<svg width="89" height="84" viewBox="0 0 89 84" fill="none" xmlns="http://www.w3.org/2000/svg">
<path fill-rule="evenodd" clip-rule="evenodd" d="M6.99318 20.3823C14.5226 8.1838 28.1696 0 43.699 0C59.2284 0 72.8755 8.1838 80.248 20.3823H52.797L46.8363 46.3236H34.601L31.9343 58.5221H44.1696L38.5226 84C31.15 83.0735 24.248 80.2942 18.601 76.2794L28.3265 32.5809H47.6206L50.4441 20.3823H6.99318ZM64.0912 32.5809H85.2677C85.9997 35.6691 86.3657 38.8603 86.3657 42.1544C86.3657 43.5956 86.3135 44.9853 86.2089 46.3236H60.9539L64.0912 32.5809ZM6.99318 64.0809C3.07161 57.5956 0.875488 50.1838 0.875488 42.1544C0.875488 38.8603 1.24152 35.6691 1.97355 32.5809H14.052L6.99318 64.0809ZM83.0716 58.5221C77.7383 71.0294 66.4441 80.4486 52.797 83.3824L58.2872 58.5221H83.0716ZM76.0128 83.0736V75.8162H73.3461V74.8898H79.6206V75.8162H76.954V83.0736H76.0128ZM81.0323 83.0736V74.8898H82.2873L84.9539 81.8383L87.6206 74.8898H88.8755V83.0736H87.9344V76.4339C87.7775 76.8971 87.6206 77.5148 87.4638 77.978L85.4246 83.0736H84.4834L82.4442 77.978C82.2873 77.5148 82.1304 77.0515 81.9736 76.4339V83.0736H81.0323Z" fill="white"/>
</svg>
