<svg width="91" height="91" viewBox="0 0 91 91" fill="none" xmlns="http://www.w3.org/2000/svg">
<g clip-path="url(#clip0_1_9750)">
<g filter="url(#filter0_b_1_9750)">
<mask id="mask0_1_9750" style="mask-type:luminance" maskUnits="userSpaceOnUse" x="3" y="3" width="85" height="85">
<path d="M84.812 26.5718H87.724V29.4838H84.812V26.5718Z" fill="white"/>
<path d="M84.812 29.4839H87.724V32.3959H84.812V29.4839Z" fill="white"/>
<path d="M84.812 32.396H87.724V35.308H84.812V32.396Z" fill="white"/>
<path d="M84.812 35.3081H87.724V38.2201H84.812V35.3081Z" fill="white"/>
<path d="M84.812 44.0439H87.724V46.9559H84.812V44.0439Z" fill="white"/>
<path d="M84.812 49.8677H87.724V52.7797H84.812V49.8677Z" fill="white"/>
<path d="M84.812 52.7798H87.724V55.6918H84.812V52.7798Z" fill="white"/>
<path d="M81.9 32.396H84.812V35.308H81.9V32.396Z" fill="white"/>
<path d="M81.9 38.2197H84.812V41.1317H81.9V38.2197Z" fill="white"/>
<path d="M81.9 41.1318H84.812V44.0438H81.9V41.1318Z" fill="white"/>
<path d="M81.9 49.8677H84.812V52.7797H81.9V49.8677Z" fill="white"/>
<path d="M81.9 55.6919H84.812V58.6039H81.9V55.6919Z" fill="white"/>
<path d="M81.9 61.5161H84.812V64.4281H81.9V61.5161Z" fill="white"/>
<path d="M78.988 29.4839H81.9V32.3959H78.988V29.4839Z" fill="white"/>
<path d="M78.988 32.396H81.9V35.308H78.988V32.396Z" fill="white"/>
<path d="M78.988 35.3081H81.9V38.2201H78.988V35.3081Z" fill="white"/>
<path d="M78.988 46.9561H81.9V49.8681H78.988V46.9561Z" fill="white"/>
<path d="M76.076 29.4839H78.988V32.3959H76.076V29.4839Z" fill="white"/>
<path d="M76.076 32.396H78.988V35.308H76.076V32.396Z" fill="white"/>
<path d="M76.076 41.1318H78.988V44.0438H76.076V41.1318Z" fill="white"/>
<path d="M76.076 44.0439H78.988V46.9559H76.076V44.0439Z" fill="white"/>
<path d="M76.076 46.9561H78.988V49.8681H76.076V46.9561Z" fill="white"/>
<path d="M76.076 49.8677H78.988V52.7797H76.076V49.8677Z" fill="white"/>
<path d="M76.076 52.7798H78.988V55.6918H76.076V52.7798Z" fill="white"/>
<path d="M76.076 55.6919H78.988V58.6039H76.076V55.6919Z" fill="white"/>
<path d="M73.164 26.5718H76.076V29.4838H73.164V26.5718Z" fill="white"/>
<path d="M73.164 29.4839H76.076V32.3959H73.164V29.4839Z" fill="white"/>
<path d="M73.164 32.396H76.076V35.308H73.164V32.396Z" fill="white"/>
<path d="M73.164 38.2197H76.076V41.1317H73.164V38.2197Z" fill="white"/>
<path d="M73.164 44.0439H76.076V46.9559H73.164V44.0439Z" fill="white"/>
<path d="M73.164 52.7798H76.076V55.6918H73.164V52.7798Z" fill="white"/>
<path d="M73.164 55.6919H76.076V58.6039H73.164V55.6919Z" fill="white"/>
<path d="M73.164 58.604H76.076V61.516H73.164V58.604Z" fill="white"/>
<path d="M73.164 61.5161H76.076V64.4281H73.164V61.5161Z" fill="white"/>
<path d="M70.2519 26.5718H73.1639V29.4838H70.2519V26.5718Z" fill="white"/>
<path d="M70.2519 38.2197H73.1639V41.1317H70.2519V38.2197Z" fill="white"/>
<path d="M70.2519 49.8677H73.1639V52.7797H70.2519V49.8677Z" fill="white"/>
<path d="M70.2519 52.7798H73.1639V55.6918H70.2519V52.7798Z" fill="white"/>
<path d="M67.34 26.5718H70.252V29.4838H67.34V26.5718Z" fill="white"/>
<path d="M67.34 32.396H70.252V35.308H67.34V32.396Z" fill="white"/>
<path d="M67.34 38.2197H70.252V41.1317H67.34V38.2197Z" fill="white"/>
<path d="M67.34 44.0439H70.252V46.9559H67.34V44.0439Z" fill="white"/>
<path d="M67.34 49.8677H70.252V52.7797H67.34V49.8677Z" fill="white"/>
<path d="M67.34 55.6919H70.252V58.6039H67.34V55.6919Z" fill="white"/>
<path d="M67.34 61.5161H70.252V64.4281H67.34V61.5161Z" fill="white"/>
<path d="M64.428 29.4839H67.34V32.3959H64.428V29.4839Z" fill="white"/>
<path d="M64.428 32.396H67.34V35.308H64.428V32.396Z" fill="white"/>
<path d="M64.428 35.3081H67.34V38.2201H64.428V35.3081Z" fill="white"/>
<path d="M64.428 41.1318H67.34V44.0438H64.428V41.1318Z" fill="white"/>
<path d="M64.428 44.0439H67.34V46.9559H64.428V44.0439Z" fill="white"/>
<path d="M64.428 52.7798H67.34V55.6918H64.428V52.7798Z" fill="white"/>
<path d="M64.428 55.6919H67.34V58.6039H64.428V55.6919Z" fill="white"/>
<path d="M64.428 61.5161H67.34V64.4281H64.428V61.5161Z" fill="white"/>
<path d="M61.516 6.18799H64.428V9.09999H61.516V6.18799Z" fill="white"/>
<path d="M61.516 9.1001H64.428V12.0121H61.516V9.1001Z" fill="white"/>
<path d="M61.516 12.0117H64.428V14.9237H61.516V12.0117Z" fill="white"/>
<path d="M61.516 14.9238H64.428V17.8358H61.516V14.9238Z" fill="white"/>
<path d="M61.516 17.8359H64.428V20.7479H61.516V17.8359Z" fill="white"/>
<path d="M61.516 20.748H64.428V23.66H61.516V20.748Z" fill="white"/>
<path d="M61.516 23.6597H64.428V26.5717H61.516V23.6597Z" fill="white"/>
<path d="M61.516 38.2197H64.428V41.1317H61.516V38.2197Z" fill="white"/>
<path d="M61.516 46.9561H64.428V49.8681H61.516V46.9561Z" fill="white"/>
<path d="M61.516 58.604H64.428V61.516H61.516V58.604Z" fill="white"/>
<path d="M61.516 70.252H64.428V73.164H61.516V70.252Z" fill="white"/>
<path d="M61.516 73.1641H64.428V76.0761H61.516V73.1641Z" fill="white"/>
<path d="M61.516 84.812H64.428V87.724H61.516V84.812Z" fill="white"/>
<path d="M58.604 3.27588H61.516V6.18788H58.604V3.27588Z" fill="white"/>
<path d="M58.604 6.18799H61.516V9.09999H58.604V6.18799Z" fill="white"/>
<path d="M58.604 12.0117H61.516V14.9237H58.604V12.0117Z" fill="white"/>
<path d="M58.604 23.6597H61.516V26.5717H58.604V23.6597Z" fill="white"/>
<path d="M58.604 26.5718H61.516V29.4838H58.604V26.5718Z" fill="white"/>
<path d="M58.604 35.3081H61.516V38.2201H58.604V35.3081Z" fill="white"/>
<path d="M58.604 38.2197H61.516V41.1317H58.604V38.2197Z" fill="white"/>
<path d="M58.604 46.9561H61.516V49.8681H58.604V46.9561Z" fill="white"/>
<path d="M58.604 52.7798H61.516V55.6918H58.604V52.7798Z" fill="white"/>
<path d="M58.604 55.6919H61.516V58.6039H58.604V55.6919Z" fill="white"/>
<path d="M58.604 61.5161H61.516V64.4281H58.604V61.5161Z" fill="white"/>
<path d="M58.604 64.4277H61.516V67.3397H58.604V64.4277Z" fill="white"/>
<path d="M58.604 70.252H61.516V73.164H58.604V70.252Z" fill="white"/>
<path d="M58.604 84.812H61.516V87.724H58.604V84.812Z" fill="white"/>
<path d="M55.692 3.27588H58.604V6.18788H55.692V3.27588Z" fill="white"/>
<path d="M55.692 14.9238H58.604V17.8358H55.692V14.9238Z" fill="white"/>
<path d="M55.692 20.748H58.604V23.66H55.692V20.748Z" fill="white"/>
<path d="M55.692 23.6597H58.604V26.5717H55.692V23.6597Z" fill="white"/>
<path d="M55.692 29.4839H58.604V32.3959H55.692V29.4839Z" fill="white"/>
<path d="M55.692 35.3081H58.604V38.2201H55.692V35.3081Z" fill="white"/>
<path d="M55.692 38.2197H58.604V41.1317H55.692V38.2197Z" fill="white"/>
<path d="M55.692 41.1318H58.604V44.0438H55.692V41.1318Z" fill="white"/>
<path d="M55.692 46.9561H58.604V49.8681H55.692V46.9561Z" fill="white"/>
<path d="M55.692 49.8677H58.604V52.7797H55.692V49.8677Z" fill="white"/>
<path d="M55.692 52.7798H58.604V55.6918H55.692V52.7798Z" fill="white"/>
<path d="M55.692 58.604H58.604V61.516H55.692V58.604Z" fill="white"/>
<path d="M55.692 64.4277H58.604V67.3397H55.692V64.4277Z" fill="white"/>
<path d="M55.692 67.3398H58.604V70.2518H55.692V67.3398Z" fill="white"/>
<path d="M55.692 76.0757H58.604V78.9877H55.692V76.0757Z" fill="white"/>
<path d="M52.78 6.18799H55.692V9.09999H52.78V6.18799Z" fill="white"/>
<path d="M52.78 12.0117H55.692V14.9237H52.78V12.0117Z" fill="white"/>
<path d="M52.78 23.6597H55.692V26.5717H52.78V23.6597Z" fill="white"/>
<path d="M52.78 29.4839H55.692V32.3959H52.78V29.4839Z" fill="white"/>
<path d="M52.78 38.2197H55.692V41.1317H52.78V38.2197Z" fill="white"/>
<path d="M52.78 41.1318H55.692V44.0438H52.78V41.1318Z" fill="white"/>
<path d="M52.78 44.0439H55.692V46.9559H52.78V44.0439Z" fill="white"/>
<path d="M52.78 46.9561H55.692V49.8681H52.78V46.9561Z" fill="white"/>
<path d="M52.78 55.6919H55.692V58.6039H52.78V55.6919Z" fill="white"/>
<path d="M52.78 58.604H55.692V61.516H52.78V58.604Z" fill="white"/>
<path d="M52.78 61.5161H55.692V64.4281H52.78V61.5161Z" fill="white"/>
<path d="M52.78 64.4277H55.692V67.3397H52.78V64.4277Z" fill="white"/>
<path d="M52.78 67.3398H55.692V70.2518H52.78V67.3398Z" fill="white"/>
<path d="M52.78 70.252H55.692V73.164H52.78V70.252Z" fill="white"/>
<path d="M52.78 76.0757H55.692V78.9877H52.78V76.0757Z" fill="white"/>
<path d="M52.78 81.8999H55.692V84.8119H52.78V81.8999Z" fill="white"/>
<path d="M49.868 6.18799H52.78V9.09999H49.868V6.18799Z" fill="white"/>
<path d="M49.868 9.1001H52.78V12.0121H49.868V9.1001Z" fill="white"/>
<path d="M49.868 12.0117H52.78V14.9237H49.868V12.0117Z" fill="white"/>
<path d="M49.868 20.748H52.78V23.66H49.868V20.748Z" fill="white"/>
<path d="M49.868 23.6597H52.78V26.5717H49.868V23.6597Z" fill="white"/>
<path d="M49.868 26.5718H52.78V29.4838H49.868V26.5718Z" fill="white"/>
<path d="M49.868 29.4839H52.78V32.3959H49.868V29.4839Z" fill="white"/>
<path d="M49.868 32.396H52.78V35.308H49.868V32.396Z" fill="white"/>
<path d="M49.868 35.3081H52.78V38.2201H49.868V35.3081Z" fill="white"/>
<path d="M49.868 44.0439H52.78V46.9559H49.868V44.0439Z" fill="white"/>
<path d="M49.868 46.9561H52.78V49.8681H49.868V46.9561Z" fill="white"/>
<path d="M49.868 49.8677H52.78V52.7797H49.868V49.8677Z" fill="white"/>
<path d="M49.868 52.7798H52.78V55.6918H49.868V52.7798Z" fill="white"/>
<path d="M49.868 58.604H52.78V61.516H49.868V58.604Z" fill="white"/>
<path d="M49.868 64.4277H52.78V67.3397H49.868V64.4277Z" fill="white"/>
<path d="M49.868 70.252H52.78V73.164H49.868V70.252Z" fill="white"/>
<path d="M49.868 81.8999H52.78V84.8119H49.868V81.8999Z" fill="white"/>
<path d="M49.868 84.812H52.78V87.724H49.868V84.812Z" fill="white"/>
<path d="M46.956 3.27588H49.868V6.18788H46.956V3.27588Z" fill="white"/>
<path d="M46.956 9.1001H49.868V12.0121H46.956V9.1001Z" fill="white"/>
<path d="M46.956 12.0117H49.868V14.9237H46.956V12.0117Z" fill="white"/>
<path d="M46.956 14.9238H49.868V17.8358H46.956V14.9238Z" fill="white"/>
<path d="M46.956 23.6597H49.868V26.5717H46.956V23.6597Z" fill="white"/>
<path d="M46.956 26.5718H49.868V29.4838H46.956V26.5718Z" fill="white"/>
<path d="M46.956 32.396H49.868V35.308H46.956V32.396Z" fill="white"/>
<path d="M46.956 35.3081H49.868V38.2201H46.956V35.3081Z" fill="white"/>
<path d="M46.956 46.9561H49.868V49.8681H46.956V46.9561Z" fill="white"/>
<path d="M46.956 58.604H49.868V61.516H46.956V58.604Z" fill="white"/>
<path d="M46.956 61.5161H49.868V64.4281H46.956V61.5161Z" fill="white"/>
<path d="M46.956 64.4277H49.868V67.3397H46.956V64.4277Z" fill="white"/>
<path d="M46.956 67.3398H49.868V70.2518H46.956V67.3398Z" fill="white"/>
<path d="M46.956 73.1641H49.868V76.0761H46.956V73.1641Z" fill="white"/>
<path d="M46.956 76.0757H49.868V78.9877H46.956V76.0757Z" fill="white"/>
<path d="M46.956 81.8999H49.868V84.8119H46.956V81.8999Z" fill="white"/>
<path d="M44.0441 6.18799H46.9561V9.09999H44.0441V6.18799Z" fill="white"/>
<path d="M44.0441 9.1001H46.9561V12.0121H44.0441V9.1001Z" fill="white"/>
<path d="M44.0441 20.748H46.9561V23.66H44.0441V20.748Z" fill="white"/>
<path d="M44.0441 23.6597H46.9561V26.5717H44.0441V23.6597Z" fill="white"/>
<path d="M44.0441 29.4839H46.9561V32.3959H44.0441V29.4839Z" fill="white"/>
<path d="M44.0441 32.396H46.9561V35.308H44.0441V32.396Z" fill="white"/>
<path d="M44.0441 35.3081H46.9561V38.2201H44.0441V35.3081Z" fill="white"/>
<path d="M44.0441 41.1318H46.9561V44.0438H44.0441V41.1318Z" fill="white"/>
<path d="M44.0441 44.0439H46.9561V46.9559H44.0441V44.0439Z" fill="white"/>
<path d="M44.0441 46.9561H46.9561V49.8681H44.0441V46.9561Z" fill="white"/>
<path d="M44.0441 55.6919H46.9561V58.6039H44.0441V55.6919Z" fill="white"/>
<path d="M44.0441 61.5161H46.9561V64.4281H44.0441V61.5161Z" fill="white"/>
<path d="M44.0441 64.4277H46.9561V67.3397H44.0441V64.4277Z" fill="white"/>
<path d="M44.0441 70.252H46.9561V73.164H44.0441V70.252Z" fill="white"/>
<path d="M41.1319 3.27588H44.0439V6.18788H41.1319V3.27588Z" fill="white"/>
<path d="M41.1319 14.9238H44.0439V17.8358H41.1319V14.9238Z" fill="white"/>
<path d="M41.1319 17.8359H44.0439V20.7479H41.1319V17.8359Z" fill="white"/>
<path d="M41.1319 23.6597H44.0439V26.5717H41.1319V23.6597Z" fill="white"/>
<path d="M41.1319 26.5718H44.0439V29.4838H41.1319V26.5718Z" fill="white"/>
<path d="M41.1319 32.396H44.0439V35.308H41.1319V32.396Z" fill="white"/>
<path d="M41.1319 35.3081H44.0439V38.2201H41.1319V35.3081Z" fill="white"/>
<path d="M41.1319 38.2197H44.0439V41.1317H41.1319V38.2197Z" fill="white"/>
<path d="M41.1319 49.8677H44.0439V52.7797H41.1319V49.8677Z" fill="white"/>
<path d="M41.1319 58.604H44.0439V61.516H41.1319V58.604Z" fill="white"/>
<path d="M41.1319 73.1641H44.0439V76.0761H41.1319V73.1641Z" fill="white"/>
<path d="M41.1319 76.0757H44.0439V78.9877H41.1319V76.0757Z" fill="white"/>
<path d="M41.1319 81.8999H44.0439V84.8119H41.1319V81.8999Z" fill="white"/>
<path d="M41.1319 84.812H44.0439V87.724H41.1319V84.812Z" fill="white"/>
<path d="M38.22 3.27588H41.132V6.18788H38.22V3.27588Z" fill="white"/>
<path d="M38.22 12.0117H41.132V14.9237H38.22V12.0117Z" fill="white"/>
<path d="M38.22 20.748H41.132V23.66H38.22V20.748Z" fill="white"/>
<path d="M38.22 32.396H41.132V35.308H38.22V32.396Z" fill="white"/>
<path d="M38.22 35.3081H41.132V38.2201H38.22V35.3081Z" fill="white"/>
<path d="M38.22 38.2197H41.132V41.1317H38.22V38.2197Z" fill="white"/>
<path d="M38.22 44.0439H41.132V46.9559H38.22V44.0439Z" fill="white"/>
<path d="M38.22 46.9561H41.132V49.8681H38.22V46.9561Z" fill="white"/>
<path d="M38.22 55.6919H41.132V58.6039H38.22V55.6919Z" fill="white"/>
<path d="M38.22 61.5161H41.132V64.4281H38.22V61.5161Z" fill="white"/>
<path d="M38.22 64.4277H41.132V67.3397H38.22V64.4277Z" fill="white"/>
<path d="M38.22 73.1641H41.132V76.0761H38.22V73.1641Z" fill="white"/>
<path d="M38.22 76.0757H41.132V78.9877H38.22V76.0757Z" fill="white"/>
<path d="M38.22 78.9878H41.132V81.8998H38.22V78.9878Z" fill="white"/>
<path d="M38.22 81.8999H41.132V84.8119H38.22V81.8999Z" fill="white"/>
<path d="M38.22 84.812H41.132V87.724H38.22V84.812Z" fill="white"/>
<path d="M35.308 3.27588H38.22V6.18788H35.308V3.27588Z" fill="white"/>
<path d="M35.308 6.18799H38.22V9.09999H35.308V6.18799Z" fill="white"/>
<path d="M35.308 17.8359H38.22V20.7479H35.308V17.8359Z" fill="white"/>
<path d="M35.308 23.6597H38.22V26.5717H35.308V23.6597Z" fill="white"/>
<path d="M35.308 26.5718H38.22V29.4838H35.308V26.5718Z" fill="white"/>
<path d="M35.308 32.396H38.22V35.308H35.308V32.396Z" fill="white"/>
<path d="M35.308 41.1318H38.22V44.0438H35.308V41.1318Z" fill="white"/>
<path d="M35.308 46.9561H38.22V49.8681H35.308V46.9561Z" fill="white"/>
<path d="M35.308 49.8677H38.22V52.7797H35.308V49.8677Z" fill="white"/>
<path d="M35.308 73.1641H38.22V76.0761H35.308V73.1641Z" fill="white"/>
<path d="M35.308 76.0757H38.22V78.9877H35.308V76.0757Z" fill="white"/>
<path d="M35.308 81.8999H38.22V84.8119H35.308V81.8999Z" fill="white"/>
<path d="M35.308 84.812H38.22V87.724H35.308V84.812Z" fill="white"/>
<path d="M32.396 3.27588H35.308V6.18788H32.396V3.27588Z" fill="white"/>
<path d="M32.396 12.0117H35.308V14.9237H32.396V12.0117Z" fill="white"/>
<path d="M32.396 14.9238H35.308V17.8358H32.396V14.9238Z" fill="white"/>
<path d="M32.396 17.8359H35.308V20.7479H32.396V17.8359Z" fill="white"/>
<path d="M32.396 20.748H35.308V23.66H32.396V20.748Z" fill="white"/>
<path d="M32.396 29.4839H35.308V32.3959H32.396V29.4839Z" fill="white"/>
<path d="M32.396 35.3081H35.308V38.2201H32.396V35.3081Z" fill="white"/>
<path d="M32.396 38.2197H35.308V41.1317H32.396V38.2197Z" fill="white"/>
<path d="M32.396 44.0439H35.308V46.9559H32.396V44.0439Z" fill="white"/>
<path d="M32.396 52.7798H35.308V55.6918H32.396V52.7798Z" fill="white"/>
<path d="M32.396 55.6919H35.308V58.6039H32.396V55.6919Z" fill="white"/>
<path d="M32.396 61.5161H35.308V64.4281H32.396V61.5161Z" fill="white"/>
<path d="M32.396 67.3398H35.308V70.2518H32.396V67.3398Z" fill="white"/>
<path d="M32.396 73.1641H35.308V76.0761H32.396V73.1641Z" fill="white"/>
<path d="M32.396 76.0757H35.308V78.9877H32.396V76.0757Z" fill="white"/>
<path d="M29.484 3.27588H32.396V6.18788H29.484V3.27588Z" fill="white"/>
<path d="M29.484 9.1001H32.396V12.0121H29.484V9.1001Z" fill="white"/>
<path d="M29.484 14.9238H32.396V17.8358H29.484V14.9238Z" fill="white"/>
<path d="M29.484 17.8359H32.396V20.7479H29.484V17.8359Z" fill="white"/>
<path d="M29.484 29.4839H32.396V32.3959H29.484V29.4839Z" fill="white"/>
<path d="M29.484 32.396H32.396V35.308H29.484V32.396Z" fill="white"/>
<path d="M29.484 38.2197H32.396V41.1317H29.484V38.2197Z" fill="white"/>
<path d="M29.484 41.1318H32.396V44.0438H29.484V41.1318Z" fill="white"/>
<path d="M29.484 44.0439H32.396V46.9559H29.484V44.0439Z" fill="white"/>
<path d="M29.484 49.8677H32.396V52.7797H29.484V49.8677Z" fill="white"/>
<path d="M29.484 55.6919H32.396V58.6039H29.484V55.6919Z" fill="white"/>
<path d="M29.484 67.3398H32.396V70.2518H29.484V67.3398Z" fill="white"/>
<path d="M29.484 76.0757H32.396V78.9877H29.484V76.0757Z" fill="white"/>
<path d="M26.572 3.27588H29.484V6.18788H26.572V3.27588Z" fill="white"/>
<path d="M26.572 12.0117H29.484V14.9237H26.572V12.0117Z" fill="white"/>
<path d="M26.572 20.748H29.484V23.66H26.572V20.748Z" fill="white"/>
<path d="M26.572 23.6597H29.484V26.5717H26.572V23.6597Z" fill="white"/>
<path d="M26.572 26.5718H29.484V29.4838H26.572V26.5718Z" fill="white"/>
<path d="M26.572 29.4839H29.484V32.3959H26.572V29.4839Z" fill="white"/>
<path d="M26.572 35.3081H29.484V38.2201H26.572V35.3081Z" fill="white"/>
<path d="M26.572 38.2197H29.484V41.1317H26.572V38.2197Z" fill="white"/>
<path d="M26.572 41.1318H29.484V44.0438H26.572V41.1318Z" fill="white"/>
<path d="M26.572 52.7798H29.484V55.6918H26.572V52.7798Z" fill="white"/>
<path d="M26.572 61.5161H29.484V64.4281H26.572V61.5161Z" fill="white"/>
<path d="M26.572 64.4277H29.484V67.3397H26.572V64.4277Z" fill="white"/>
<path d="M26.572 67.3398H29.484V70.2518H26.572V67.3398Z" fill="white"/>
<path d="M26.572 70.252H29.484V73.164H26.572V70.252Z" fill="white"/>
<path d="M26.572 73.1641H29.484V76.0761H26.572V73.1641Z" fill="white"/>
<path d="M23.66 26.5718H26.572V29.4838H23.66V26.5718Z" fill="white"/>
<path d="M23.66 29.4839H26.572V32.3959H23.66V29.4839Z" fill="white"/>
<path d="M23.66 35.3081H26.572V38.2201H23.66V35.3081Z" fill="white"/>
<path d="M23.66 41.1318H26.572V44.0438H23.66V41.1318Z" fill="white"/>
<path d="M23.66 46.9561H26.572V49.8681H23.66V46.9561Z" fill="white"/>
<path d="M23.66 49.8677H26.572V52.7797H23.66V49.8677Z" fill="white"/>
<path d="M23.66 52.7798H26.572V55.6918H23.66V52.7798Z" fill="white"/>
<path d="M23.66 55.6919H26.572V58.6039H23.66V55.6919Z" fill="white"/>
<path d="M23.66 61.5161H26.572V64.4281H23.66V61.5161Z" fill="white"/>
<path d="M23.66 73.1641H26.572V76.0761H23.66V73.1641Z" fill="white"/>
<path d="M23.66 76.0757H26.572V78.9877H23.66V76.0757Z" fill="white"/>
<path d="M20.748 26.5718H23.66V29.4838H20.748V26.5718Z" fill="white"/>
<path d="M20.748 29.4839H23.66V32.3959H20.748V29.4839Z" fill="white"/>
<path d="M20.748 38.2197H23.66V41.1317H20.748V38.2197Z" fill="white"/>
<path d="M20.748 41.1318H23.66V44.0438H20.748V41.1318Z" fill="white"/>
<path d="M20.748 44.0439H23.66V46.9559H20.748V44.0439Z" fill="white"/>
<path d="M20.748 46.9561H23.66V49.8681H20.748V46.9561Z" fill="white"/>
<path d="M20.748 49.8677H23.66V52.7797H20.748V49.8677Z" fill="white"/>
<path d="M20.748 52.7798H23.66V55.6918H20.748V52.7798Z" fill="white"/>
<path d="M20.748 58.604H23.66V61.516H20.748V58.604Z" fill="white"/>
<path d="M20.748 61.5161H23.66V64.4281H20.748V61.5161Z" fill="white"/>
<path d="M20.748 67.3398H23.66V70.2518H20.748V67.3398Z" fill="white"/>
<path d="M20.748 73.1641H23.66V76.0761H20.748V73.1641Z" fill="white"/>
<path d="M17.836 26.5718H20.748V29.4838H17.836V26.5718Z" fill="white"/>
<path d="M17.836 29.4839H20.748V32.3959H17.836V29.4839Z" fill="white"/>
<path d="M17.836 32.396H20.748V35.308H17.836V32.396Z" fill="white"/>
<path d="M17.836 35.3081H20.748V38.2201H17.836V35.3081Z" fill="white"/>
<path d="M17.836 49.8677H20.748V52.7797H17.836V49.8677Z" fill="white"/>
<path d="M17.836 52.7798H20.748V55.6918H17.836V52.7798Z" fill="white"/>
<path d="M17.836 55.6919H20.748V58.6039H17.836V55.6919Z" fill="white"/>
<path d="M17.836 58.604H20.748V61.516H17.836V58.604Z" fill="white"/>
<path d="M17.836 61.5161H20.748V64.4281H17.836V61.5161Z" fill="white"/>
<path d="M17.836 73.1641H20.748V76.0761H17.836V73.1641Z" fill="white"/>
<path d="M17.836 76.0757H20.748V78.9877H17.836V76.0757Z" fill="white"/>
<path d="M17.836 81.8999H20.748V84.8119H17.836V81.8999Z" fill="white"/>
<path d="M14.9239 26.5718H17.8359V29.4838H14.9239V26.5718Z" fill="white"/>
<path d="M14.9239 29.4839H17.8359V32.3959H14.9239V29.4839Z" fill="white"/>
<path d="M14.9239 35.3081H17.8359V38.2201H14.9239V35.3081Z" fill="white"/>
<path d="M14.9239 49.8677H17.8359V52.7797H14.9239V49.8677Z" fill="white"/>
<path d="M14.9239 61.5161H17.8359V64.4281H14.9239V61.5161Z" fill="white"/>
<path d="M14.9239 64.4277H17.8359V67.3397H14.9239V64.4277Z" fill="white"/>
<path d="M14.9239 67.3398H17.8359V70.2518H14.9239V67.3398Z" fill="white"/>
<path d="M14.9239 70.252H17.8359V73.164H14.9239V70.252Z" fill="white"/>
<path d="M14.9239 73.1641H17.8359V76.0761H14.9239V73.1641Z" fill="white"/>
<path d="M14.9239 76.0757H17.8359V78.9877H14.9239V76.0757Z" fill="white"/>
<path d="M14.9239 78.9878H17.8359V81.8998H14.9239V78.9878Z" fill="white"/>
<path d="M12.012 26.5718H14.924V29.4838H12.012V26.5718Z" fill="white"/>
<path d="M12.012 35.3081H14.924V38.2201H12.012V35.3081Z" fill="white"/>
<path d="M12.012 46.9561H14.924V49.8681H12.012V46.9561Z" fill="white"/>
<path d="M12.012 55.6919H14.924V58.6039H12.012V55.6919Z" fill="white"/>
<path d="M12.012 58.604H14.924V61.516H12.012V58.604Z" fill="white"/>
<path d="M12.012 61.5161H14.924V64.4281H12.012V61.5161Z" fill="white"/>
<path d="M12.012 64.4277H14.924V67.3397H12.012V64.4277Z" fill="white"/>
<path d="M12.012 70.252H14.924V73.164H12.012V70.252Z" fill="white"/>
<path d="M9.09996 26.5718H12.012V29.4838H9.09996V26.5718Z" fill="white"/>
<path d="M9.09996 29.4839H12.012V32.3959H9.09996V29.4839Z" fill="white"/>
<path d="M9.09996 35.3081H12.012V38.2201H9.09996V35.3081Z" fill="white"/>
<path d="M9.09996 41.1318H12.012V44.0438H9.09996V41.1318Z" fill="white"/>
<path d="M9.09996 46.9561H12.012V49.8681H9.09996V46.9561Z" fill="white"/>
<path d="M9.09996 49.8677H12.012V52.7797H9.09996V49.8677Z" fill="white"/>
<path d="M9.09996 58.604H12.012V61.516H9.09996V58.604Z" fill="white"/>
<path d="M9.09996 61.5161H12.012V64.4281H9.09996V61.5161Z" fill="white"/>
<path d="M9.09996 64.4277H12.012V67.3397H9.09996V64.4277Z" fill="white"/>
<path d="M9.09996 67.3398H12.012V70.2518H9.09996V67.3398Z" fill="white"/>
<path d="M9.09996 70.252H12.012V73.164H9.09996V70.252Z" fill="white"/>
<path d="M9.09996 73.1641H12.012V76.0761H9.09996V73.1641Z" fill="white"/>
<path d="M9.09996 78.9878H12.012V81.8998H9.09996V78.9878Z" fill="white"/>
<path d="M9.09996 81.8999H12.012V84.8119H9.09996V81.8999Z" fill="white"/>
<path d="M6.18798 26.5718H9.09998V29.4838H6.18798V26.5718Z" fill="white"/>
<path d="M6.18798 29.4839H9.09998V32.3959H6.18798V29.4839Z" fill="white"/>
<path d="M6.18798 35.3081H9.09998V38.2201H6.18798V35.3081Z" fill="white"/>
<path d="M6.18798 38.2197H9.09998V41.1317H6.18798V38.2197Z" fill="white"/>
<path d="M6.18798 44.0439H9.09998V46.9559H6.18798V44.0439Z" fill="white"/>
<path d="M6.18798 46.9561H9.09998V49.8681H6.18798V46.9561Z" fill="white"/>
<path d="M6.18798 67.3398H9.09998V70.2518H6.18798V67.3398Z" fill="white"/>
<path d="M6.18798 73.1641H9.09998V76.0761H6.18798V73.1641Z" fill="white"/>
<path d="M6.18798 76.0757H9.09998V78.9877H6.18798V76.0757Z" fill="white"/>
<path d="M6.18798 81.8999H9.09998V84.8119H6.18798V81.8999Z" fill="white"/>
<path d="M3.27599 38.2197H6.18799V41.1317H3.27599V38.2197Z" fill="white"/>
<path d="M3.27599 44.0439H6.18799V46.9559H3.27599V44.0439Z" fill="white"/>
<path d="M3.27599 46.9561H6.18799V49.8681H3.27599V46.9561Z" fill="white"/>
<path d="M3.27599 52.7798H6.18799V55.6918H3.27599V52.7798Z" fill="white"/>
<path d="M3.27599 55.6919H6.18799V58.6039H3.27599V55.6919Z" fill="white"/>
<path d="M3.27599 58.604H6.18799V61.516H3.27599V58.604Z" fill="white"/>
<path d="M3.27599 61.5161H6.18799V64.4281H3.27599V61.5161Z" fill="white"/>
<path d="M3.27599 64.4277H6.18799V67.3397H3.27599V64.4277Z" fill="white"/>
<path d="M3.27599 67.3398H6.18799V70.2518H3.27599V67.3398Z" fill="white"/>
<path d="M3.27599 73.1641H6.18799V76.0761H3.27599V73.1641Z" fill="white"/>
<path d="M3.27599 76.0757H6.18799V78.9877H3.27599V76.0757Z" fill="white"/>
</mask>
<g mask="url(#mask0_1_9750)">
<path d="M0 0H91V91H0V0Z" fill="black"/>
</g>
</g>
<g filter="url(#filter1_b_1_9750)">
<mask id="mask1_1_9750" style="mask-type:luminance" maskUnits="userSpaceOnUse" x="67" y="3" width="21" height="21">
<path fill-rule="evenodd" clip-rule="evenodd" d="M87.724 10.5559V16.3799C87.724 18.3107 86.957 20.1624 85.5917 21.5276C84.9157 22.2036 84.1132 22.7399 83.2299 23.1057C82.3467 23.4716 81.4 23.6599 80.444 23.6599H74.62C72.6892 23.6599 70.8375 22.8929 69.4723 21.5276C68.107 20.1624 67.34 18.3107 67.34 16.3799V10.5559C67.34 9.59986 67.5283 8.65319 67.8942 7.76994C68.26 6.88669 68.7963 6.08415 69.4723 5.40814C70.1483 4.73213 70.9508 4.19589 71.8341 3.83004C72.7173 3.46418 73.664 3.27588 74.62 3.27588H80.444C81.4 3.27588 82.3467 3.46418 83.2299 3.83004C84.1132 4.19589 84.9157 4.73213 85.5917 5.40814C86.957 6.77341 87.724 8.6251 87.724 10.5559ZM80.444 6.18788H74.62C73.4615 6.18788 72.3505 6.64808 71.5314 7.46724C70.7122 8.2864 70.252 9.39741 70.252 10.5559V16.3799C70.252 17.5383 70.7122 18.6494 71.5314 19.4685C72.3505 20.2877 73.4615 20.7479 74.62 20.7479H80.444C81.6025 20.7479 82.7135 20.2877 83.5326 19.4685C84.3518 18.6494 84.812 17.5383 84.812 16.3799V10.5559C84.812 9.39741 84.3518 8.2864 83.5326 7.46724C82.7135 6.64808 81.6025 6.18788 80.444 6.18788Z" fill="white"/>
</mask>
<g mask="url(#mask1_1_9750)">
<path d="M67.34 3.27588H87.724V23.6599H67.34V3.27588Z" fill="black"/>
</g>
</g>
<g filter="url(#filter2_b_1_9750)">
<mask id="mask2_1_9750" style="mask-type:luminance" maskUnits="userSpaceOnUse" x="73" y="9" width="9" height="9">
<path d="M77.532 17.8361C75.1196 17.8361 73.164 15.8805 73.164 13.4681C73.164 11.0557 75.1196 9.1001 77.532 9.1001C79.9444 9.1001 81.9 11.0557 81.9 13.4681C81.9 15.8805 79.9444 17.8361 77.532 17.8361Z" fill="white"/>
</mask>
<g mask="url(#mask2_1_9750)">
<path d="M73.164 9.1001H81.9V17.8361H73.164V9.1001Z" fill="black"/>
</g>
</g>
<g filter="url(#filter3_b_1_9750)">
<mask id="mask3_1_9750" style="mask-type:luminance" maskUnits="userSpaceOnUse" x="3" y="3" width="21" height="21">
<path fill-rule="evenodd" clip-rule="evenodd" d="M10.556 3.27588L16.38 3.27588C18.3108 3.27588 20.1625 4.04288 21.5277 5.40814C22.893 6.77341 23.66 8.6251 23.66 10.5559V16.3799C23.66 18.3107 22.893 20.1624 21.5277 21.5276C20.1625 22.8929 18.3108 23.6599 16.38 23.6599H10.556C9.59998 23.6599 8.65332 23.4716 7.77007 23.1057C6.88682 22.7399 6.08427 22.2036 5.40826 21.5276C4.73225 20.8516 4.19601 20.0491 3.83016 19.1658C3.4643 18.2826 3.276 17.3359 3.276 16.3799L3.276 10.5559C3.276 8.6251 4.043 6.77341 5.40826 5.40814C6.77353 4.04288 8.62522 3.27588 10.556 3.27588ZM6.188 10.5559L6.188 16.3799C6.188 17.5383 6.6482 18.6494 7.46736 19.4685C8.28652 20.2877 9.39754 20.7479 10.556 20.7479H16.38C17.5385 20.7479 18.6495 20.2877 19.4686 19.4685C20.2878 18.6494 20.748 17.5383 20.748 16.3799V10.5559C20.748 9.39741 20.2878 8.2864 19.4686 7.46724C18.6495 6.64808 17.5385 6.18788 16.38 6.18788L10.556 6.18788C9.39754 6.18788 8.28652 6.64808 7.46736 7.46724C6.6482 8.2864 6.188 9.39741 6.188 10.5559Z" fill="white"/>
</mask>
<g mask="url(#mask3_1_9750)">
<path d="M3.27604 3.27588H23.66V23.6599H3.27604V3.27588Z" fill="black"/>
</g>
</g>
<g filter="url(#filter4_b_1_9750)">
<mask id="mask4_1_9750" style="mask-type:luminance" maskUnits="userSpaceOnUse" x="9" y="9" width="9" height="9">
<path d="M17.836 13.4681C17.836 15.8805 15.8804 17.8361 13.468 17.8361C11.0556 17.8361 9.09998 15.8805 9.09998 13.4681C9.09998 11.0557 11.0556 9.1001 13.468 9.1001C15.8804 9.1001 17.836 11.0557 17.836 13.4681Z" fill="white"/>
</mask>
<g mask="url(#mask4_1_9750)">
<path d="M9.09994 9.1001H17.8359V17.8361H9.09994V9.1001Z" fill="black"/>
</g>
</g>
<g filter="url(#filter5_b_1_9750)">
<mask id="mask5_1_9750" style="mask-type:luminance" maskUnits="userSpaceOnUse" x="67" y="67" width="21" height="21">
<path fill-rule="evenodd" clip-rule="evenodd" d="M80.444 87.7236H74.62C72.6892 87.7236 70.8375 86.9566 69.4723 85.5914C68.7963 84.9154 68.26 84.1128 67.8942 83.2296C67.5283 82.3463 67.34 81.3997 67.34 80.4436V74.6196C67.34 72.6889 68.107 70.8372 69.4723 69.4719C70.8375 68.1066 72.6892 67.3396 74.62 67.3396H80.444C82.3748 67.3396 84.2265 68.1066 85.5917 69.4719C86.957 70.8372 87.724 72.6889 87.724 74.6196V80.4436C87.724 81.3997 87.5357 82.3463 87.1698 83.2296C86.804 84.1128 86.2677 84.9154 85.5917 85.5914C84.2265 86.9566 82.3748 87.7236 80.444 87.7236ZM84.812 80.4436V74.6196C84.812 73.4612 84.3518 72.3501 83.5326 71.531C82.7135 70.7118 81.6025 70.2516 80.444 70.2516H74.62C73.4615 70.2516 72.3505 70.7118 71.5314 71.531C70.7122 72.3501 70.252 73.4612 70.252 74.6196V80.4436C70.252 81.6021 70.7122 82.7131 71.5314 83.5323C72.3505 84.3514 73.4615 84.8116 74.62 84.8116H80.444C81.6025 84.8116 82.7135 84.3514 83.5326 83.5323C84.3518 82.7131 84.812 81.6021 84.812 80.4436Z" fill="white"/>
</mask>
<g mask="url(#mask5_1_9750)">
<path d="M67.34 67.3398H87.724V87.7238H67.34V67.3398Z" fill="black"/>
</g>
</g>
<g filter="url(#filter6_b_1_9750)">
<mask id="mask6_1_9750" style="mask-type:luminance" maskUnits="userSpaceOnUse" x="73" y="73" width="9" height="9">
<path d="M73.164 77.5319C73.164 75.1195 75.1196 73.1639 77.532 73.1639C79.9444 73.1639 81.9 75.1195 81.9 77.5319C81.9 79.9443 79.9444 81.8999 77.532 81.8999C75.1196 81.8999 73.164 79.9443 73.164 77.5319Z" fill="white"/>
</mask>
<g mask="url(#mask6_1_9750)">
<path d="M73.164 73.1641H81.9V81.9001H73.164V73.1641Z" fill="black"/>
</g>
</g>
</g>
<defs>
<filter id="filter0_b_1_9750" x="-160.724" y="-160.724" width="412.448" height="412.448" filterUnits="userSpaceOnUse" color-interpolation-filters="sRGB">
<feFlood flood-opacity="0" result="BackgroundImageFix"/>
<feGaussianBlur in="BackgroundImageFix" stdDeviation="82"/>
<feComposite in2="SourceAlpha" operator="in" result="effect1_backgroundBlur_1_9750"/>
<feBlend mode="normal" in="SourceGraphic" in2="effect1_backgroundBlur_1_9750" result="shape"/>
</filter>
<filter id="filter1_b_1_9750" x="-96.66" y="-160.724" width="348.384" height="348.384" filterUnits="userSpaceOnUse" color-interpolation-filters="sRGB">
<feFlood flood-opacity="0" result="BackgroundImageFix"/>
<feGaussianBlur in="BackgroundImageFix" stdDeviation="82"/>
<feComposite in2="SourceAlpha" operator="in" result="effect1_backgroundBlur_1_9750"/>
<feBlend mode="normal" in="SourceGraphic" in2="effect1_backgroundBlur_1_9750" result="shape"/>
</filter>
<filter id="filter2_b_1_9750" x="-90.8359" y="-154.9" width="336.736" height="336.736" filterUnits="userSpaceOnUse" color-interpolation-filters="sRGB">
<feFlood flood-opacity="0" result="BackgroundImageFix"/>
<feGaussianBlur in="BackgroundImageFix" stdDeviation="82"/>
<feComposite in2="SourceAlpha" operator="in" result="effect1_backgroundBlur_1_9750"/>
<feBlend mode="normal" in="SourceGraphic" in2="effect1_backgroundBlur_1_9750" result="shape"/>
</filter>
<filter id="filter3_b_1_9750" x="-160.724" y="-160.724" width="348.384" height="348.384" filterUnits="userSpaceOnUse" color-interpolation-filters="sRGB">
<feFlood flood-opacity="0" result="BackgroundImageFix"/>
<feGaussianBlur in="BackgroundImageFix" stdDeviation="82"/>
<feComposite in2="SourceAlpha" operator="in" result="effect1_backgroundBlur_1_9750"/>
<feBlend mode="normal" in="SourceGraphic" in2="effect1_backgroundBlur_1_9750" result="shape"/>
</filter>
<filter id="filter4_b_1_9750" x="-154.9" y="-154.9" width="336.736" height="336.736" filterUnits="userSpaceOnUse" color-interpolation-filters="sRGB">
<feFlood flood-opacity="0" result="BackgroundImageFix"/>
<feGaussianBlur in="BackgroundImageFix" stdDeviation="82"/>
<feComposite in2="SourceAlpha" operator="in" result="effect1_backgroundBlur_1_9750"/>
<feBlend mode="normal" in="SourceGraphic" in2="effect1_backgroundBlur_1_9750" result="shape"/>
</filter>
<filter id="filter5_b_1_9750" x="-96.66" y="-96.6602" width="348.384" height="348.384" filterUnits="userSpaceOnUse" color-interpolation-filters="sRGB">
<feFlood flood-opacity="0" result="BackgroundImageFix"/>
<feGaussianBlur in="BackgroundImageFix" stdDeviation="82"/>
<feComposite in2="SourceAlpha" operator="in" result="effect1_backgroundBlur_1_9750"/>
<feBlend mode="normal" in="SourceGraphic" in2="effect1_backgroundBlur_1_9750" result="shape"/>
</filter>
<filter id="filter6_b_1_9750" x="-90.8359" y="-90.8359" width="336.736" height="336.736" filterUnits="userSpaceOnUse" color-interpolation-filters="sRGB">
<feFlood flood-opacity="0" result="BackgroundImageFix"/>
<feGaussianBlur in="BackgroundImageFix" stdDeviation="82"/>
<feComposite in2="SourceAlpha" operator="in" result="effect1_backgroundBlur_1_9750"/>
<feBlend mode="normal" in="SourceGraphic" in2="effect1_backgroundBlur_1_9750" result="shape"/>
</filter>
<clipPath id="clip0_1_9750">
<rect width="91" height="91" fill="white" transform="matrix(-1 0 0 1 91 0)"/>
</clipPath>
</defs>
</svg>
