<svg width="26" height="22" viewBox="0 0 26 22" fill="none" xmlns="http://www.w3.org/2000/svg">
<path d="M12.9549 2.0252L13.6507 0.868095C14.0801 0.144915 15.0379 -0.0989046 15.7895 0.314345C16.5411 0.727595 16.7944 1.64914 16.365 2.37232L9.6608 13.5383H14.5096C16.0815 13.5383 16.9619 15.3152 16.2791 16.5467H2.06331C1.19576 16.5467 0.5 15.8773 0.5 15.0425C0.5 14.2077 1.19576 13.5383 2.06331 13.5383H6.04887L11.1511 5.0295L9.5577 2.36819C9.1282 1.64501 9.3816 0.731726 10.1332 0.310216C10.8848 -0.103034 11.834 0.140786 12.272 0.863966L12.9549 2.0252ZM6.92501 18.0964L5.42183 20.6048C4.99235 21.328 4.03462 21.5718 3.28303 21.1586C2.53144 20.7453 2.27804 19.8238 2.70752 19.1006L3.82417 17.241C5.08684 16.8649 6.1133 17.1542 6.92501 18.0964ZM19.8695 13.5465H23.9367C24.8042 13.5465 25.5 14.216 25.5 15.0508C25.5 15.8855 24.8042 16.555 23.9367 16.555H21.6776L23.2023 19.1006C23.6318 19.8238 23.3784 20.737 22.6268 21.1586C21.8752 21.5718 20.926 21.328 20.488 20.6048C17.9197 16.3194 15.9913 13.1126 14.7115 10.9761C13.4016 8.80248 14.3378 6.62048 15.2612 5.88079C16.2877 7.57508 17.8209 10.1331 19.8695 13.5465Z" fill="#111111" fill-opacity="0.4"/>
</svg>
