<svg width="27" height="28" viewBox="0 0 27 28" fill="none" xmlns="http://www.w3.org/2000/svg">
<path fill-rule="evenodd" clip-rule="evenodd" d="M7.57575 0.859375C2.02883 0.859375 0 2.88786 0 8.43365V20.2851C0 25.8309 2.02883 27.8594 7.57575 27.8594H19.4206C24.9674 27.8594 27 25.8309 27 20.2851V8.43365C27 2.88786 24.9712 0.859375 19.4242 0.859375H7.57575ZM11.7773 16.5188H12.8612L12.3174 15.2541L11.7773 16.5188ZM11.5104 17.1562L11.1888 17.892H10.4566L12.0136 14.3596H12.6464L14.1971 17.892H13.4454L13.1279 17.1562H11.5104ZM23.2923 17.8894H24V14.3594H23.2923V17.8894ZM20.4758 16.373H21.7802V15.7293H20.4758V15.0058H22.3694V14.362H19.7684V17.8918H22.4375V17.248H20.4758V16.373ZM17.664 16.7901L16.8618 14.3594H16.2763L15.474 16.7901L14.6932 14.3613H13.9298L15.1619 17.894H15.7555L16.559 15.5735L17.3626 17.894H17.9613L19.1903 14.3613H18.4466L17.664 16.7901ZM9.37632 16.3827C9.37632 16.9574 9.09096 17.2645 8.57274 17.2645C8.05171 17.2645 7.76483 16.9485 7.76483 16.3582V14.3618H7.04762V16.3827C7.04762 17.3769 7.60012 17.9469 8.56298 17.9469C9.53539 17.9469 10.0929 17.366 10.0929 16.3532V14.3596H9.37632V16.3827ZM5.33652 14.3596H6.05329V17.8942H5.33652V16.4587H3.71721V17.8942H3V14.3596H3.71721V15.7853H5.33652V14.3596ZM9 5.35938C9 7.84071 11.0184 9.85938 13.5 9.85938C15.9813 9.85938 18 7.84071 18 5.35938H17.3644C17.3644 7.49002 15.6306 9.22352 13.5 9.22352C11.3694 9.22352 9.63563 7.49002 9.63563 5.35938H9Z" fill="#111111" fill-opacity="0.4"/>
</svg>
