<svg width="29" height="36" viewBox="0 0 29 36" fill="none" xmlns="http://www.w3.org/2000/svg">
<path d="M23.8047 18.8879C23.7654 14.5239 27.3788 12.4009 27.5441 12.302C25.4976 9.31913 22.3257 8.91157 21.211 8.87908C18.547 8.59879 15.9629 10.4727 14.6058 10.4727C13.2216 10.4727 11.1318 8.90616 8.87951 8.95219C5.98117 8.99687 3.26972 10.6745 1.78262 13.2796C-1.28637 18.5914 1.00251 26.3973 3.94284 30.6908C5.41369 32.7949 7.13238 35.1414 9.38198 35.0588C11.5828 34.9695 12.4049 33.6574 15.0609 33.6574C17.6924 33.6574 18.4644 35.0588 20.7587 35.006C23.1207 34.9695 24.6078 32.8938 26.0272 30.7721C27.7269 28.3633 28.4095 25.9883 28.4366 25.8665C28.3824 25.8475 23.8507 24.1171 23.8047 18.8879ZM19.4707 6.05461C20.6544 4.57468 21.4643 2.56127 21.2395 0.518066C19.5262 0.593891 17.3836 1.70283 16.1498 3.15026C15.0581 4.42574 14.083 6.51633 14.3349 8.48235C16.2595 8.62588 18.2355 7.51153 19.4707 6.05461Z" fill="black"/>
</svg>
