<svg width="31" height="35" viewBox="0 0 31 35" fill="none" xmlns="http://www.w3.org/2000/svg">
<path d="M22.6687 0.46875C20.7165 0.582859 18.4755 1.67685 17.1431 3.07C15.9393 4.33713 14.9896 6.21903 15.3773 8.03966C17.4987 8.09587 19.628 6.97354 20.9028 5.55483C22.093 4.2281 22.9954 2.37625 22.6687 0.46875ZM22.7843 8.03634C19.7217 8.03634 18.4411 9.92907 16.3198 9.92907C14.1374 9.92907 12.1424 8.15609 9.50125 8.15609C5.90857 8.15779 0.447388 11.5055 0.447388 19.3928C0.447388 26.568 6.91085 34.5312 10.5593 34.5312C12.7756 34.5534 13.3129 33.1295 16.3198 33.1142C19.33 33.092 19.9794 34.55 22.1991 34.5312C24.698 34.5124 26.6496 31.7501 28.0752 29.5615C29.0978 27.9946 29.5181 27.1947 30.3104 25.4235C24.4305 23.9247 23.2606 14.3861 30.3104 12.4139C28.9797 10.13 25.0954 8.03634 22.7843 8.03634Z" fill="white"/>
</svg>
