<svg width="206" height="60" viewBox="0 0 206 60" fill="none" xmlns="http://www.w3.org/2000/svg">
<g filter="url(#filter0_d_1_13582)">
<rect x="4.16138" y="0.998047" width="197" height="52" rx="10" fill="white"/>
<rect x="20.1614" y="8.99805" width="33" height="33" rx="8" fill="#F4AC31"/>
<path d="M46.3244 31.4685C46.3244 32.1652 45.9532 33.5068 45.1199 34.2438C44.9531 34.378 44.7853 34.3023 44.8587 34.1068C45.1016 33.4858 45.658 32.0492 45.3967 31.7186C45.2134 31.4675 44.4526 31.4857 43.8036 31.5442C43.5066 31.5835 43.2472 31.6017 43.0446 31.6448C42.8585 31.6611 42.82 31.4886 43.007 31.3544C43.2472 31.1771 43.5066 31.043 43.8045 30.9443C44.8587 30.6146 46.0778 30.813 46.252 31.0238C46.285 31.064 46.3253 31.1771 46.3253 31.4675L46.3244 31.4685ZM44.5635 32.7085C44.3215 32.9018 44.0673 33.0779 43.8027 33.2356C41.8575 34.4575 39.3385 35.0977 37.1495 35.0977C33.6267 35.0977 30.4762 33.7397 28.0855 31.4675C27.8811 31.2931 28.0507 31.0401 28.2899 31.1771C30.8657 32.7488 34.0539 33.6995 37.3548 33.6995C39.5616 33.6929 41.7481 33.2588 43.8036 32.4191C43.9521 32.3607 44.1189 32.2811 44.2647 32.2255C44.6011 32.0674 44.8972 32.4584 44.5635 32.7085ZM38.9077 22.1381C38.9077 21.1405 38.9452 20.553 38.629 20.049C38.3485 19.634 37.8654 19.3848 37.1917 19.4241C36.4602 19.4663 35.6746 19.9675 35.4738 20.8865C35.4353 21.0974 35.3171 21.3044 35.0742 21.3494L32.8412 21.0523C32.6817 21.014 32.4397 20.8865 32.5185 20.553C32.9979 17.9157 35.1539 16.9967 37.1917 16.873H37.6711C38.7894 16.873 40.2258 17.2075 41.1452 18.0844C42.2608 19.173 42.1426 20.6355 42.1426 22.2244V25.9878C42.1426 27.1167 42.5798 27.6169 43.0207 28.2053C43.1399 28.4152 43.1802 28.6625 42.9795 28.833C42.4022 29.3716 41.8164 29.9 41.2222 30.4181C41.0627 30.5456 40.7749 30.559 40.6631 30.4613C39.9572 29.8431 39.7849 29.5 39.3477 28.8723C38.5868 29.707 37.9488 30.168 37.1889 30.4181C36.6545 30.5599 36.1049 30.6295 35.5536 30.6251C33.6377 30.6251 32.1197 29.3764 32.1197 26.9068C32.1197 24.9432 33.1189 23.6082 34.5947 22.9767C36.0706 22.3442 38.2156 22.1429 38.9067 22.1391L38.9077 22.1381ZM38.4695 27.1138C38.9462 26.2781 38.9067 25.5939 38.9067 24.0615C38.31 24.0615 37.7096 24.1046 37.1917 24.2321C36.2337 24.5225 35.4738 25.153 35.4738 26.489C35.4738 27.5335 35.9936 28.2446 36.8717 28.2446C36.9927 28.2446 37.0991 28.2293 37.1917 28.2015C37.8058 28.0233 38.189 27.7013 38.4695 27.1138Z" fill="white"/>
<path d="M60.9814 24.998L64.7194 16.402H59.5394V15.198H66.1614V16.22L62.4374 24.998H60.9814ZM70.2468 25.166C69.5561 25.166 68.9634 25.0447 68.4688 24.802C67.9741 24.55 67.5821 24.214 67.2928 23.794C67.0034 23.3647 66.8261 22.884 66.7608 22.352H68.1328C68.2261 22.828 68.4594 23.22 68.8328 23.528C69.2061 23.8267 69.6774 23.976 70.2468 23.976C70.6761 23.976 71.0448 23.8734 71.3528 23.668C71.6608 23.4627 71.8988 23.1874 72.0668 22.842C72.2348 22.4967 72.3188 22.114 72.3188 21.694C72.3188 21.246 72.2301 20.8587 72.0528 20.532C71.8848 20.196 71.6468 19.9347 71.3388 19.748C71.0401 19.5614 70.6901 19.468 70.2888 19.468C69.8034 19.468 69.3834 19.58 69.0288 19.804C68.6834 20.0187 68.4314 20.294 68.2728 20.63H66.9148L67.7268 15.198H73.0048V16.416H68.8048L68.2868 19.16C68.5108 18.908 68.8094 18.7027 69.1828 18.544C69.5654 18.3854 69.9994 18.306 70.4848 18.306C70.9794 18.306 71.4228 18.3947 71.8148 18.572C72.2068 18.74 72.5381 18.978 72.8088 19.286C73.0888 19.594 73.2988 19.9534 73.4388 20.364C73.5881 20.7747 73.6628 21.2087 73.6628 21.666C73.6628 22.1607 73.5834 22.618 73.4248 23.038C73.2661 23.458 73.0374 23.8314 72.7388 24.158C72.4494 24.4754 72.0901 24.7227 71.6608 24.9C71.2408 25.0774 70.7694 25.166 70.2468 25.166ZM78.5941 25.07C78.2901 25.07 78.0221 25.016 77.7901 24.908C77.5581 24.796 77.3781 24.64 77.2501 24.44C77.1221 24.24 77.0581 24.006 77.0581 23.738H77.6881C77.6881 23.89 77.7241 24.03 77.7961 24.158C77.8681 24.282 77.9701 24.382 78.1021 24.458C78.2381 24.53 78.4021 24.566 78.5941 24.566C78.7621 24.566 78.9061 24.538 79.0261 24.482C79.1501 24.426 79.2441 24.35 79.3081 24.254C79.3721 24.154 79.4041 24.04 79.4041 23.912C79.4041 23.776 79.3721 23.662 79.3081 23.57C79.2481 23.474 79.1641 23.394 79.0561 23.33C78.9481 23.266 78.8201 23.208 78.6721 23.156C78.5281 23.104 78.3721 23.052 78.2041 23C77.8521 22.888 77.5941 22.746 77.4301 22.574C77.2661 22.398 77.1841 22.172 77.1841 21.896C77.1841 21.66 77.2381 21.456 77.3461 21.284C77.4581 21.108 77.6161 20.972 77.8201 20.876C78.0241 20.776 78.2621 20.726 78.5341 20.726C78.8101 20.726 79.0481 20.776 79.2481 20.876C79.4521 20.976 79.6121 21.114 79.7281 21.29C79.8441 21.466 79.9041 21.672 79.9081 21.908H79.2721C79.2721 21.8 79.2441 21.694 79.1881 21.59C79.1321 21.486 79.0481 21.402 78.9361 21.338C78.8241 21.27 78.6861 21.236 78.5221 21.236C78.3861 21.232 78.2641 21.254 78.1561 21.302C78.0481 21.35 77.9621 21.42 77.8981 21.512C77.8381 21.604 77.8081 21.714 77.8081 21.842C77.8081 21.97 77.8361 22.074 77.8921 22.154C77.9481 22.23 78.0261 22.296 78.1261 22.352C78.2301 22.408 78.3521 22.46 78.4921 22.508C78.6321 22.552 78.7861 22.602 78.9541 22.658C79.1581 22.726 79.3421 22.81 79.5061 22.91C79.6701 23.006 79.7981 23.132 79.8901 23.288C79.9861 23.44 80.0341 23.636 80.0341 23.876C80.0341 24.084 79.9801 24.278 79.8721 24.458C79.7641 24.638 79.6041 24.786 79.3921 24.902C79.1801 25.014 78.9141 25.07 78.5941 25.07ZM80.3265 24.998L81.8685 20.798H82.5225L84.0645 24.998H83.4225L82.1925 21.518L80.9565 24.998H80.3265ZM81.0225 23.96L81.1905 23.48H83.1645L83.3325 23.96H81.0225ZM84.5066 24.998V20.798H85.9286C86.2606 20.798 86.5326 20.854 86.7446 20.966C86.9566 21.078 87.1126 21.228 87.2126 21.416C87.3166 21.6 87.3686 21.81 87.3686 22.046C87.3686 22.27 87.3166 22.478 87.2126 22.67C87.1126 22.858 86.9546 23.01 86.7386 23.126C86.5226 23.238 86.2466 23.294 85.9106 23.294H85.1066V24.998H84.5066ZM86.7146 24.998L85.8086 23.132H86.4686L87.4106 24.998H86.7146ZM85.1066 22.838H85.8926C86.1886 22.838 86.4046 22.766 86.5406 22.622C86.6806 22.474 86.7506 22.286 86.7506 22.058C86.7506 21.826 86.6826 21.642 86.5466 21.506C86.4106 21.37 86.1906 21.302 85.8866 21.302H85.1066V22.838ZM87.7066 25.604L89.2066 20.384H89.7946L88.2946 25.604H87.7066ZM90.1047 24.998V21.842H90.6447L90.6807 22.262C90.7767 22.11 90.9047 21.99 91.0647 21.902C91.2287 21.814 91.4027 21.77 91.5867 21.77C91.7387 21.77 91.8747 21.79 91.9947 21.83C92.1147 21.87 92.2207 21.932 92.3127 22.016C92.4047 22.1 92.4787 22.202 92.5347 22.322C92.6387 22.142 92.7787 22.006 92.9547 21.914C93.1347 21.818 93.3247 21.77 93.5247 21.77C93.7647 21.77 93.9667 21.816 94.1307 21.908C94.2987 22 94.4267 22.14 94.5147 22.328C94.6027 22.512 94.6467 22.738 94.6467 23.006V24.998H94.0527V23.066C94.0527 22.806 93.9947 22.61 93.8787 22.478C93.7667 22.346 93.6087 22.28 93.4047 22.28C93.2687 22.28 93.1447 22.316 93.0327 22.388C92.9247 22.456 92.8387 22.558 92.7747 22.694C92.7107 22.83 92.6787 22.994 92.6787 23.186V24.998H92.0787V23.066C92.0787 22.806 92.0207 22.61 91.9047 22.478C91.7887 22.346 91.6307 22.28 91.4307 22.28C91.2987 22.28 91.1787 22.316 91.0707 22.388C90.9627 22.456 90.8747 22.558 90.8067 22.694C90.7387 22.83 90.7047 22.994 90.7047 23.186V24.998H90.1047ZM96.6836 25.07C96.3916 25.07 96.1316 25.002 95.9036 24.866C95.6756 24.726 95.4996 24.532 95.3756 24.284C95.2516 24.036 95.1896 23.748 95.1896 23.42C95.1896 23.088 95.2516 22.8 95.3756 22.556C95.5036 22.308 95.6816 22.116 95.9096 21.98C96.1376 21.84 96.3996 21.77 96.6956 21.77C96.9916 21.77 97.2516 21.84 97.4756 21.98C97.6996 22.116 97.8736 22.308 97.9976 22.556C98.1256 22.8 98.1896 23.088 98.1896 23.42C98.1896 23.748 98.1256 24.036 97.9976 24.284C97.8736 24.532 97.6976 24.726 97.4696 24.866C97.2456 25.002 96.9836 25.07 96.6836 25.07ZM96.6836 24.554C96.8556 24.554 97.0076 24.512 97.1396 24.428C97.2756 24.344 97.3816 24.218 97.4576 24.05C97.5376 23.878 97.5776 23.668 97.5776 23.42C97.5776 23.168 97.5396 22.958 97.4636 22.79C97.3876 22.622 97.2836 22.496 97.1516 22.412C97.0196 22.328 96.8676 22.286 96.6956 22.286C96.5276 22.286 96.3756 22.328 96.2396 22.412C96.1076 22.496 96.0016 22.622 95.9216 22.79C95.8416 22.958 95.8016 23.168 95.8016 23.42C95.8016 23.668 95.8396 23.878 95.9156 24.05C95.9956 24.218 96.1016 24.344 96.2336 24.428C96.3656 24.512 96.5156 24.554 96.6836 24.554ZM98.7389 24.998V21.842H99.2789L99.3149 22.328C99.4029 22.152 99.5329 22.016 99.7049 21.92C99.8769 21.82 100.079 21.77 100.311 21.77C100.547 21.77 100.751 21.816 100.923 21.908C101.095 21.996 101.227 22.132 101.319 22.316C101.415 22.496 101.463 22.724 101.463 23V24.998H100.863V23.06C100.863 22.804 100.799 22.61 100.671 22.478C100.543 22.346 100.369 22.28 100.149 22.28C100.001 22.28 99.8649 22.314 99.7409 22.382C99.6209 22.45 99.5229 22.55 99.4469 22.682C99.3749 22.814 99.3389 22.974 99.3389 23.162V24.998H98.7389ZM103.4 24.998C103.208 24.998 103.042 24.968 102.902 24.908C102.762 24.848 102.654 24.748 102.578 24.608C102.502 24.468 102.464 24.278 102.464 24.038V22.346H101.918V21.842H102.464L102.542 21.026H103.064V21.842H103.934V22.346H103.064V24.044C103.064 24.216 103.1 24.334 103.172 24.398C103.244 24.458 103.368 24.488 103.544 24.488H103.934V24.998H103.4ZM104.455 24.998V20.678H105.055V22.334C105.159 22.162 105.299 22.026 105.475 21.926C105.651 21.822 105.843 21.77 106.051 21.77C106.303 21.77 106.513 21.816 106.681 21.908C106.853 22 106.983 22.14 107.071 22.328C107.159 22.516 107.203 22.752 107.203 23.036V24.998H106.609V23.096C106.609 22.828 106.545 22.626 106.417 22.49C106.289 22.35 106.113 22.28 105.889 22.28C105.737 22.28 105.597 22.316 105.469 22.388C105.345 22.46 105.245 22.566 105.169 22.706C105.093 22.846 105.055 23.014 105.055 23.21V24.998H104.455Z" fill="#1A191E"/>
<path d="M60.2921 36.998H59.3602L61.454 31.1799H62.4682L64.5619 36.998H63.6301L61.9852 32.2367H61.9398L60.2921 36.998ZM60.4483 34.7196H63.471V35.4583H60.4483V34.7196ZM65.334 36.998V32.6344H66.1493V33.3446H66.2033C66.2942 33.1041 66.4429 32.9166 66.6493 32.7821C66.8557 32.6458 67.1029 32.5776 67.3908 32.5776C67.6824 32.5776 67.9268 32.6458 68.1237 32.7821C68.3226 32.9185 68.4694 33.106 68.5641 33.3446H68.6095C68.7137 33.1117 68.8794 32.9261 69.1067 32.7878C69.334 32.6477 69.6048 32.5776 69.9192 32.5776C70.315 32.5776 70.6379 32.7016 70.8879 32.9498C71.1398 33.1979 71.2658 33.5719 71.2658 34.0719V36.998H70.4163V34.1515C70.4163 33.856 70.3359 33.642 70.1749 33.5094C70.0139 33.3768 69.8217 33.3105 69.5982 33.3105C69.3217 33.3105 69.1067 33.3958 68.9533 33.5662C68.7999 33.7348 68.7232 33.9516 68.7232 34.2168V36.998H67.8766V34.0975C67.8766 33.8607 67.8027 33.6704 67.655 33.5265C67.5073 33.3825 67.315 33.3105 67.0783 33.3105C66.9173 33.3105 66.7686 33.3532 66.6323 33.4384C66.4978 33.5217 66.3889 33.6382 66.3056 33.7878C66.2241 33.9374 66.1834 34.1107 66.1834 34.3077V36.998H65.334ZM73.6742 37.0946C73.3976 37.0946 73.1476 37.0435 72.9242 36.9412C72.7007 36.8371 72.5236 36.6865 72.3929 36.4895C72.2641 36.2926 72.1997 36.0511 72.1997 35.7651C72.1997 35.5189 72.2471 35.3162 72.3418 35.1571C72.4365 34.998 72.5643 34.8721 72.7253 34.7793C72.8863 34.6865 73.0662 34.6164 73.2651 34.5691C73.4639 34.5217 73.6666 34.4857 73.873 34.4611C74.1344 34.4308 74.3465 34.4062 74.5094 34.3873C74.6723 34.3664 74.7906 34.3333 74.8645 34.2878C74.9384 34.2424 74.9753 34.1685 74.9753 34.0662V34.0463C74.9753 33.7982 74.9052 33.606 74.7651 33.4696C74.6268 33.3333 74.4204 33.2651 74.1458 33.2651C73.8598 33.2651 73.6344 33.3285 73.4696 33.4554C73.3067 33.5804 73.194 33.7196 73.1315 33.873L72.3333 33.6912C72.4279 33.4261 72.5662 33.2121 72.748 33.0492C72.9317 32.8844 73.1429 32.7651 73.3815 32.6912C73.6202 32.6155 73.8711 32.5776 74.1344 32.5776C74.3086 32.5776 74.4933 32.5984 74.6884 32.6401C74.8853 32.6799 75.069 32.7537 75.2395 32.8617C75.4119 32.9696 75.5529 33.124 75.6628 33.3248C75.7726 33.5236 75.8276 33.7821 75.8276 34.1003V36.998H74.998V36.4015H74.9639C74.909 36.5113 74.8266 36.6193 74.7168 36.7253C74.6069 36.8314 74.4658 36.9194 74.2935 36.9895C74.1211 37.0596 73.9147 37.0946 73.6742 37.0946ZM73.8588 36.4128C74.0937 36.4128 74.2944 36.3664 74.4611 36.2736C74.6297 36.1808 74.7575 36.0596 74.8446 35.91C74.9336 35.7585 74.9781 35.5965 74.9781 35.4242V34.8617C74.9478 34.892 74.8891 34.9204 74.802 34.9469C74.7168 34.9715 74.6192 34.9933 74.5094 35.0123C74.3995 35.0293 74.2925 35.0454 74.1884 35.0605C74.0842 35.0738 73.9971 35.0852 73.927 35.0946C73.7622 35.1155 73.6117 35.1505 73.4753 35.1998C73.3408 35.249 73.2329 35.32 73.1514 35.4128C73.0719 35.5037 73.0321 35.6249 73.0321 35.7765C73.0321 35.9867 73.1098 36.1458 73.2651 36.2537C73.4204 36.3598 73.6183 36.4128 73.8588 36.4128ZM76.8681 36.998V36.4157L79.2317 33.4128V33.373H76.9448V32.6344H80.2913V33.2537L78.0186 36.2196V36.2594H80.3709V36.998H76.8681ZM83.0861 37.0861C82.677 37.0861 82.32 36.9924 82.0151 36.8049C81.7101 36.6174 81.4734 36.3551 81.3048 36.0179C81.1363 35.6808 81.052 35.2869 81.052 34.8361C81.052 34.3835 81.1363 33.9876 81.3048 33.6486C81.4734 33.3096 81.7101 33.0463 82.0151 32.8588C82.32 32.6713 82.677 32.5776 83.0861 32.5776C83.4952 32.5776 83.8522 32.6713 84.1571 32.8588C84.462 33.0463 84.6988 33.3096 84.8673 33.6486C85.0359 33.9876 85.1202 34.3835 85.1202 34.8361C85.1202 35.2869 85.0359 35.6808 84.8673 36.0179C84.6988 36.3551 84.462 36.6174 84.1571 36.8049C83.8522 36.9924 83.4952 37.0861 83.0861 37.0861ZM83.0889 36.373C83.3541 36.373 83.5738 36.303 83.748 36.1628C83.9223 36.0227 84.0511 35.8361 84.1344 35.6032C84.2196 35.3702 84.2622 35.1136 84.2622 34.8333C84.2622 34.5549 84.2196 34.2992 84.1344 34.0662C84.0511 33.8314 83.9223 33.6429 83.748 33.5009C83.5738 33.3588 83.3541 33.2878 83.0889 33.2878C82.8219 33.2878 82.6003 33.3588 82.4242 33.5009C82.2499 33.6429 82.1202 33.8314 82.035 34.0662C81.9516 34.2992 81.91 34.5549 81.91 34.8333C81.91 35.1136 81.9516 35.3702 82.035 35.6032C82.1202 35.8361 82.2499 36.0227 82.4242 36.1628C82.6003 36.303 82.8219 36.373 83.0889 36.373ZM86.9178 34.4071V36.998H86.0683V32.6344H86.8837V33.3446H86.9377C87.038 33.1136 87.1952 32.928 87.4092 32.7878C87.6252 32.6477 87.8969 32.5776 88.2246 32.5776C88.5219 32.5776 88.7824 32.6401 89.0058 32.7651C89.2293 32.8882 89.4026 33.0719 89.5257 33.3162C89.6488 33.5605 89.7104 33.8626 89.7104 34.2225V36.998H88.861V34.3248C88.861 34.0085 88.7786 33.7613 88.6138 33.5833C88.449 33.4033 88.2227 33.3134 87.9348 33.3134C87.7378 33.3134 87.5627 33.356 87.4092 33.4412C87.2577 33.5265 87.1375 33.6515 87.0485 33.8162C86.9613 33.9791 86.9178 34.1761 86.9178 34.4071ZM93.035 36.998V31.1799H95.1088C95.5615 31.1799 95.9365 31.2623 96.2338 31.427C96.5312 31.5918 96.7537 31.8172 96.9014 32.1032C97.0492 32.3873 97.123 32.7073 97.123 33.0634C97.123 33.4213 97.0482 33.7433 96.8986 34.0293C96.7509 34.3134 96.5274 34.5388 96.2281 34.7054C95.9308 34.8702 95.5567 34.9526 95.106 34.9526H93.6798V34.2083H95.0264C95.3124 34.2083 95.5444 34.159 95.7225 34.0605C95.9005 33.9602 96.0312 33.8238 96.1145 33.6515C96.1978 33.4791 96.2395 33.2831 96.2395 33.0634C96.2395 32.8437 96.1978 32.6486 96.1145 32.4782C96.0312 32.3077 95.8995 32.1742 95.7196 32.0776C95.5416 31.981 95.3067 31.9327 95.0151 31.9327H93.9128V36.998H93.035ZM98.084 36.998V32.6344H98.905V33.3276H98.9504C99.03 33.0927 99.1701 32.9081 99.3709 32.7736C99.5735 32.6373 99.8027 32.5691 100.058 32.5691C100.111 32.5691 100.174 32.571 100.246 32.5748C100.32 32.5785 100.378 32.5833 100.419 32.589V33.4015C100.385 33.392 100.324 33.3816 100.237 33.3702C100.15 33.3569 100.063 33.3503 99.976 33.3503C99.7753 33.3503 99.5963 33.3929 99.4391 33.4782C99.2838 33.5615 99.1607 33.678 99.0698 33.8276C98.9788 33.9753 98.9334 34.1439 98.9334 34.3333V36.998H98.084ZM101.154 36.998V32.6344H102.004V36.998H101.154ZM101.583 31.9611C101.436 31.9611 101.309 31.9119 101.203 31.8134C101.098 31.713 101.046 31.5937 101.046 31.4554C101.046 31.3153 101.098 31.196 101.203 31.0975C101.309 30.9971 101.436 30.9469 101.583 30.9469C101.731 30.9469 101.857 30.9971 101.961 31.0975C102.067 31.196 102.12 31.3153 102.12 31.4554C102.12 31.5937 102.067 31.713 101.961 31.8134C101.857 31.9119 101.731 31.9611 101.583 31.9611ZM103.146 36.998V32.6344H103.962V33.3446H104.016C104.107 33.1041 104.255 32.9166 104.462 32.7821C104.668 32.6458 104.915 32.5776 105.203 32.5776C105.495 32.5776 105.739 32.6458 105.936 32.7821C106.135 32.9185 106.282 33.106 106.377 33.3446H106.422C106.526 33.1117 106.692 32.9261 106.919 32.7878C107.146 32.6477 107.417 32.5776 107.732 32.5776C108.128 32.5776 108.45 32.7016 108.7 32.9498C108.952 33.1979 109.078 33.5719 109.078 34.0719V36.998H108.229V34.1515C108.229 33.856 108.148 33.642 107.987 33.5094C107.826 33.3768 107.634 33.3105 107.411 33.3105C107.134 33.3105 106.919 33.3958 106.766 33.5662C106.612 33.7348 106.536 33.9516 106.536 34.2168V36.998H105.689V34.0975C105.689 33.8607 105.615 33.6704 105.467 33.5265C105.32 33.3825 105.128 33.3105 104.891 33.3105C104.73 33.3105 104.581 33.3532 104.445 33.4384C104.31 33.5217 104.201 33.6382 104.118 33.7878C104.037 33.9374 103.996 34.1107 103.996 34.3077V36.998H103.146ZM112.097 37.0861C111.668 37.0861 111.297 36.9943 110.987 36.8105C110.678 36.6249 110.439 36.3645 110.271 36.0293C110.104 35.6922 110.021 35.2973 110.021 34.8446C110.021 34.3977 110.104 34.0037 110.271 33.6628C110.439 33.3219 110.674 33.0558 110.975 32.8645C111.278 32.6732 111.632 32.5776 112.038 32.5776C112.284 32.5776 112.523 32.6183 112.754 32.6998C112.985 32.7812 113.192 32.909 113.376 33.0833C113.56 33.2575 113.704 33.4838 113.811 33.7623C113.917 34.0388 113.97 34.3749 113.97 34.7708V35.0719H110.501V34.4355H113.137C113.137 34.2121 113.092 34.0141 113.001 33.8418C112.91 33.6676 112.782 33.5302 112.617 33.4299C112.454 33.3295 112.263 33.2793 112.043 33.2793C111.805 33.2793 111.597 33.338 111.418 33.4554C111.242 33.571 111.106 33.7225 111.009 33.91C110.915 34.0956 110.867 34.2973 110.867 34.5151V35.0123C110.867 35.3039 110.918 35.552 111.021 35.7566C111.125 35.9611 111.27 36.1174 111.455 36.2253C111.641 36.3314 111.858 36.3844 112.106 36.3844C112.267 36.3844 112.414 36.3617 112.546 36.3162C112.679 36.2689 112.793 36.1988 112.89 36.106C112.987 36.0132 113.061 35.8986 113.112 35.7623L113.916 35.9071C113.851 36.1439 113.736 36.3513 113.569 36.5293C113.404 36.7054 113.197 36.8427 112.947 36.9412C112.699 37.0378 112.416 37.0861 112.097 37.0861Z" fill="#1A191E" fill-opacity="0.5"/>
<rect x="157.161" y="17.998" width="27.8891" height="16.3086" rx="8.1543" fill="#C4C4C4"/>
<ellipse cx="166.396" cy="26.2337" rx="6.235" ry="6.23564" fill="white"/>
</g>
<defs>
<filter id="filter0_d_1_13582" x="0.161377" y="-0.00195312" width="205" height="60" filterUnits="userSpaceOnUse" color-interpolation-filters="sRGB">
<feFlood flood-opacity="0" result="BackgroundImageFix"/>
<feColorMatrix in="SourceAlpha" type="matrix" values="0 0 0 0 0 0 0 0 0 0 0 0 0 0 0 0 0 0 127 0" result="hardAlpha"/>
<feOffset dy="3"/>
<feGaussianBlur stdDeviation="2"/>
<feComposite in2="hardAlpha" operator="out"/>
<feColorMatrix type="matrix" values="0 0 0 0 0 0 0 0 0 0 0 0 0 0 0 0 0 0 0.1 0"/>
<feBlend mode="normal" in2="BackgroundImageFix" result="effect1_dropShadow_1_13582"/>
<feBlend mode="normal" in="SourceGraphic" in2="effect1_dropShadow_1_13582" result="shape"/>
</filter>
</defs>
</svg>
