<svg width="206" height="60" viewBox="0 0 206 60" fill="none" xmlns="http://www.w3.org/2000/svg">
<g filter="url(#filter0_d_1_13570)">
<rect x="4.16138" y="0.998047" width="197" height="52" rx="10" fill="white"/>
<rect x="20.1614" y="8.99805" width="33" height="33" rx="8" fill="#F4AC31"/>
<g clip-path="url(#clip0_1_13570)">
<path d="M36.8793 22.4145C36.2223 22.4145 35.2053 21.6675 34.1343 21.6945C32.7213 21.7125 31.4253 22.5135 30.6963 23.7825C29.2293 26.3295 30.3183 30.0915 31.7493 32.1615C32.4513 33.1695 33.2793 34.3035 34.3773 34.2675C35.4303 34.2225 35.8263 33.5835 37.1043 33.5835C38.3733 33.5835 38.7333 34.2675 39.8493 34.2405C40.9833 34.2225 41.7033 33.2145 42.3963 32.1975C43.1973 31.0275 43.5303 29.8935 43.5483 29.8305C43.5213 29.8215 41.3433 28.9845 41.3163 26.4645C41.2983 24.3585 43.0353 23.3505 43.1163 23.3055C42.1263 21.8565 40.6053 21.6945 40.0743 21.6585C38.6883 21.5505 37.5273 22.4145 36.8793 22.4145ZM39.2193 20.2905C39.8043 19.5885 40.1913 18.6075 40.0833 17.6355C39.2463 17.6715 38.2383 18.1935 37.6353 18.8955C37.0953 19.5165 36.6273 20.5155 36.7533 21.4695C37.6803 21.5415 38.6343 20.9925 39.2193 20.2905Z" fill="white"/>
</g>
<path d="M63.4734 25.166C62.8294 25.166 62.246 25.0494 61.7234 24.816C61.21 24.5734 60.7994 24.2374 60.4914 23.808C60.1927 23.3787 60.0434 22.8794 60.0434 22.31C60.0434 21.9087 60.118 21.54 60.2674 21.204C60.4167 20.8587 60.6267 20.56 60.8974 20.308C61.168 20.056 61.4854 19.874 61.8494 19.762C61.364 19.566 60.9814 19.2767 60.7014 18.894C60.4214 18.5114 60.2814 18.0914 60.2814 17.634C60.2814 17.158 60.4074 16.724 60.6594 16.332C60.9114 15.94 61.2754 15.6274 61.7514 15.394C62.2274 15.1514 62.8014 15.03 63.4734 15.03C64.1454 15.03 64.7194 15.1514 65.1954 15.394C65.6714 15.6274 66.0307 15.94 66.2734 16.332C66.5254 16.724 66.6514 17.158 66.6514 17.634C66.6514 18.0914 66.5114 18.516 66.2314 18.908C65.9607 19.2907 65.5827 19.5754 65.0974 19.762C65.4614 19.874 65.7787 20.056 66.0494 20.308C66.32 20.56 66.53 20.8587 66.6794 21.204C66.8287 21.54 66.9034 21.9087 66.9034 22.31C66.9034 22.8794 66.7494 23.3787 66.4414 23.808C66.1427 24.2374 65.732 24.5734 65.2094 24.816C64.696 25.0494 64.1174 25.166 63.4734 25.166ZM63.4734 23.962C64.1547 23.962 64.6634 23.8034 64.9994 23.486C65.3447 23.1594 65.5174 22.7347 65.5174 22.212C65.5174 21.624 65.3307 21.176 64.9574 20.868C64.5934 20.56 64.0987 20.406 63.4734 20.406C62.848 20.406 62.3487 20.56 61.9754 20.868C61.6114 21.176 61.4294 21.624 61.4294 22.212C61.4294 22.7347 61.5974 23.1594 61.9334 23.486C62.2787 23.8034 62.792 23.962 63.4734 23.962ZM63.4734 19.3C64.024 19.3 64.458 19.1554 64.7754 18.866C65.102 18.5767 65.2654 18.208 65.2654 17.76C65.2654 17.2467 65.1067 16.8594 64.7894 16.598C64.472 16.3367 64.0334 16.206 63.4734 16.206C62.9227 16.206 62.4887 16.3367 62.1714 16.598C61.854 16.8594 61.6954 17.2467 61.6954 17.76C61.6954 18.208 61.854 18.5767 62.1714 18.866C62.4887 19.1554 62.9227 19.3 63.4734 19.3ZM71.2415 25.166C70.6069 25.166 70.0655 25.0447 69.6175 24.802C69.1695 24.55 68.8149 24.2187 68.5535 23.808C68.2922 23.388 68.1335 22.9354 68.0775 22.45H69.3795C69.4729 22.9354 69.6829 23.3134 70.0095 23.584C70.3362 23.8454 70.7515 23.976 71.2555 23.976C71.7222 23.976 72.1329 23.836 72.4875 23.556C72.8422 23.276 73.1269 22.8514 73.3415 22.282C73.5562 21.7127 73.6775 20.994 73.7055 20.126C73.7149 20.098 73.7195 20.07 73.7195 20.042C73.7195 20.014 73.7195 19.986 73.7195 19.958C73.5702 20.238 73.3649 20.4947 73.1035 20.728C72.8422 20.9614 72.5342 21.148 72.1795 21.288C71.8342 21.4187 71.4469 21.484 71.0175 21.484C70.4669 21.484 69.9489 21.358 69.4635 21.106C68.9875 20.8447 68.5955 20.476 68.2875 20C67.9889 19.524 67.8395 18.9687 67.8395 18.334C67.8395 17.7647 67.9749 17.228 68.2455 16.724C68.5255 16.22 68.9175 15.814 69.4215 15.506C69.9349 15.1887 70.5369 15.03 71.2275 15.03C71.9462 15.03 72.5482 15.1654 73.0335 15.436C73.5282 15.6974 73.9202 16.0567 74.2095 16.514C74.5082 16.962 74.7229 17.466 74.8535 18.026C74.9935 18.5767 75.0635 19.146 75.0635 19.734C75.0635 20.8074 74.9142 21.7547 74.6155 22.576C74.3169 23.388 73.8829 24.0227 73.3135 24.48C72.7442 24.9374 72.0535 25.166 71.2415 25.166ZM71.3255 20.294C71.7269 20.294 72.0862 20.2054 72.4035 20.028C72.7209 19.8414 72.9729 19.594 73.1595 19.286C73.3462 18.978 73.4395 18.6374 73.4395 18.264C73.4395 17.872 73.3462 17.5267 73.1595 17.228C72.9729 16.92 72.7162 16.682 72.3895 16.514C72.0722 16.3367 71.7129 16.248 71.3115 16.248C70.9195 16.248 70.5649 16.3367 70.2475 16.514C69.9302 16.682 69.6782 16.92 69.4915 17.228C69.3142 17.5267 69.2255 17.8767 69.2255 18.278C69.2255 18.6794 69.3142 19.034 69.4915 19.342C69.6782 19.6407 69.9302 19.874 70.2475 20.042C70.5649 20.21 70.9242 20.294 71.3255 20.294ZM79.9476 25.07C79.6436 25.07 79.3756 25.016 79.1436 24.908C78.9116 24.796 78.7316 24.64 78.6036 24.44C78.4756 24.24 78.4116 24.006 78.4116 23.738H79.0416C79.0416 23.89 79.0776 24.03 79.1496 24.158C79.2216 24.282 79.3236 24.382 79.4556 24.458C79.5916 24.53 79.7556 24.566 79.9476 24.566C80.1156 24.566 80.2596 24.538 80.3796 24.482C80.5036 24.426 80.5976 24.35 80.6616 24.254C80.7256 24.154 80.7576 24.04 80.7576 23.912C80.7576 23.776 80.7256 23.662 80.6616 23.57C80.6016 23.474 80.5176 23.394 80.4096 23.33C80.3016 23.266 80.1736 23.208 80.0256 23.156C79.8816 23.104 79.7256 23.052 79.5576 23C79.2056 22.888 78.9476 22.746 78.7836 22.574C78.6196 22.398 78.5376 22.172 78.5376 21.896C78.5376 21.66 78.5916 21.456 78.6996 21.284C78.8116 21.108 78.9696 20.972 79.1736 20.876C79.3776 20.776 79.6156 20.726 79.8876 20.726C80.1636 20.726 80.4016 20.776 80.6016 20.876C80.8056 20.976 80.9656 21.114 81.0816 21.29C81.1976 21.466 81.2576 21.672 81.2616 21.908H80.6256C80.6256 21.8 80.5976 21.694 80.5416 21.59C80.4856 21.486 80.4016 21.402 80.2896 21.338C80.1776 21.27 80.0396 21.236 79.8756 21.236C79.7396 21.232 79.6176 21.254 79.5096 21.302C79.4016 21.35 79.3156 21.42 79.2516 21.512C79.1916 21.604 79.1616 21.714 79.1616 21.842C79.1616 21.97 79.1896 22.074 79.2456 22.154C79.3016 22.23 79.3796 22.296 79.4796 22.352C79.5836 22.408 79.7056 22.46 79.8456 22.508C79.9856 22.552 80.1396 22.602 80.3076 22.658C80.5116 22.726 80.6956 22.81 80.8596 22.91C81.0236 23.006 81.1516 23.132 81.2436 23.288C81.3396 23.44 81.3876 23.636 81.3876 23.876C81.3876 24.084 81.3336 24.278 81.2256 24.458C81.1176 24.638 80.9576 24.786 80.7456 24.902C80.5336 25.014 80.2676 25.07 79.9476 25.07ZM81.68 24.998L83.222 20.798H83.876L85.418 24.998H84.776L83.546 21.518L82.31 24.998H81.68ZM82.376 23.96L82.544 23.48H84.518L84.686 23.96H82.376ZM85.8601 24.998V20.798H87.2821C87.6141 20.798 87.8861 20.854 88.0981 20.966C88.3101 21.078 88.4661 21.228 88.5661 21.416C88.6701 21.6 88.7221 21.81 88.7221 22.046C88.7221 22.27 88.6701 22.478 88.5661 22.67C88.4661 22.858 88.3081 23.01 88.0921 23.126C87.8761 23.238 87.6001 23.294 87.2641 23.294H86.4601V24.998H85.8601ZM88.0681 24.998L87.1621 23.132H87.8221L88.7641 24.998H88.0681ZM86.4601 22.838H87.2461C87.5421 22.838 87.7581 22.766 87.8941 22.622C88.0341 22.474 88.1041 22.286 88.1041 22.058C88.1041 21.826 88.0361 21.642 87.9001 21.506C87.7641 21.37 87.5441 21.302 87.2401 21.302H86.4601V22.838ZM89.0601 25.604L90.5601 20.384H91.1481L89.6481 25.604H89.0601ZM91.4583 24.998V21.842H91.9983L92.0343 22.262C92.1303 22.11 92.2583 21.99 92.4183 21.902C92.5823 21.814 92.7563 21.77 92.9403 21.77C93.0923 21.77 93.2283 21.79 93.3483 21.83C93.4683 21.87 93.5743 21.932 93.6663 22.016C93.7583 22.1 93.8323 22.202 93.8883 22.322C93.9923 22.142 94.1323 22.006 94.3083 21.914C94.4883 21.818 94.6783 21.77 94.8783 21.77C95.1183 21.77 95.3203 21.816 95.4843 21.908C95.6523 22 95.7803 22.14 95.8683 22.328C95.9563 22.512 96.0003 22.738 96.0003 23.006V24.998H95.4063V23.066C95.4063 22.806 95.3483 22.61 95.2323 22.478C95.1203 22.346 94.9623 22.28 94.7583 22.28C94.6223 22.28 94.4983 22.316 94.3863 22.388C94.2783 22.456 94.1923 22.558 94.1283 22.694C94.0643 22.83 94.0323 22.994 94.0323 23.186V24.998H93.4323V23.066C93.4323 22.806 93.3743 22.61 93.2583 22.478C93.1423 22.346 92.9843 22.28 92.7843 22.28C92.6523 22.28 92.5323 22.316 92.4243 22.388C92.3163 22.456 92.2283 22.558 92.1603 22.694C92.0923 22.83 92.0583 22.994 92.0583 23.186V24.998H91.4583ZM98.0372 25.07C97.7452 25.07 97.4852 25.002 97.2572 24.866C97.0292 24.726 96.8532 24.532 96.7292 24.284C96.6052 24.036 96.5432 23.748 96.5432 23.42C96.5432 23.088 96.6052 22.8 96.7292 22.556C96.8572 22.308 97.0352 22.116 97.2632 21.98C97.4912 21.84 97.7532 21.77 98.0492 21.77C98.3452 21.77 98.6052 21.84 98.8292 21.98C99.0532 22.116 99.2272 22.308 99.3512 22.556C99.4792 22.8 99.5432 23.088 99.5432 23.42C99.5432 23.748 99.4792 24.036 99.3512 24.284C99.2272 24.532 99.0512 24.726 98.8232 24.866C98.5992 25.002 98.3372 25.07 98.0372 25.07ZM98.0372 24.554C98.2092 24.554 98.3612 24.512 98.4932 24.428C98.6292 24.344 98.7352 24.218 98.8112 24.05C98.8912 23.878 98.9312 23.668 98.9312 23.42C98.9312 23.168 98.8932 22.958 98.8172 22.79C98.7412 22.622 98.6372 22.496 98.5052 22.412C98.3732 22.328 98.2212 22.286 98.0492 22.286C97.8812 22.286 97.7292 22.328 97.5932 22.412C97.4612 22.496 97.3552 22.622 97.2752 22.79C97.1952 22.958 97.1552 23.168 97.1552 23.42C97.1552 23.668 97.1932 23.878 97.2692 24.05C97.3492 24.218 97.4552 24.344 97.5872 24.428C97.7192 24.512 97.8692 24.554 98.0372 24.554ZM100.092 24.998V21.842H100.632L100.668 22.328C100.756 22.152 100.886 22.016 101.058 21.92C101.23 21.82 101.432 21.77 101.664 21.77C101.9 21.77 102.104 21.816 102.276 21.908C102.448 21.996 102.58 22.132 102.672 22.316C102.768 22.496 102.816 22.724 102.816 23V24.998H102.216V23.06C102.216 22.804 102.152 22.61 102.024 22.478C101.896 22.346 101.722 22.28 101.502 22.28C101.354 22.28 101.218 22.314 101.094 22.382C100.974 22.45 100.876 22.55 100.8 22.682C100.728 22.814 100.692 22.974 100.692 23.162V24.998H100.092ZM104.753 24.998C104.561 24.998 104.395 24.968 104.255 24.908C104.115 24.848 104.007 24.748 103.931 24.608C103.855 24.468 103.817 24.278 103.817 24.038V22.346H103.271V21.842H103.817L103.895 21.026H104.417V21.842H105.287V22.346H104.417V24.044C104.417 24.216 104.453 24.334 104.525 24.398C104.597 24.458 104.721 24.488 104.897 24.488H105.287V24.998H104.753ZM105.809 24.998V20.678H106.409V22.334C106.513 22.162 106.653 22.026 106.829 21.926C107.005 21.822 107.197 21.77 107.405 21.77C107.657 21.77 107.867 21.816 108.035 21.908C108.207 22 108.337 22.14 108.425 22.328C108.513 22.516 108.557 22.752 108.557 23.036V24.998H107.963V23.096C107.963 22.828 107.899 22.626 107.771 22.49C107.643 22.35 107.467 22.28 107.243 22.28C107.091 22.28 106.951 22.316 106.823 22.388C106.699 22.46 106.599 22.566 106.523 22.706C106.447 22.846 106.409 23.014 106.409 23.21V24.998H105.809Z" fill="#1A191E"/>
<path d="M60.2921 36.998H59.3602L61.454 31.1799H62.4682L64.5619 36.998H63.6301L61.9852 32.2367H61.9398L60.2921 36.998ZM60.4483 34.7196H63.471V35.4583H60.4483V34.7196ZM65.334 38.6344V32.6344H66.1635V33.3418H66.2345C66.2838 33.2509 66.3548 33.1458 66.4476 33.0265C66.5404 32.9071 66.6692 32.803 66.834 32.714C66.9987 32.623 67.2165 32.5776 67.4874 32.5776C67.8396 32.5776 68.154 32.6666 68.4306 32.8446C68.7071 33.0227 68.9239 33.2793 69.0811 33.6145C69.2402 33.9498 69.3198 34.3532 69.3198 34.8248C69.3198 35.2963 69.2412 35.7007 69.084 36.0378C68.9268 36.373 68.7109 36.6316 68.4362 36.8134C68.1616 36.9933 67.8482 37.0833 67.4959 37.0833C67.2307 37.0833 67.0139 37.0388 66.8453 36.9498C66.6787 36.8607 66.548 36.7566 66.4533 36.6373C66.3586 36.5179 66.2857 36.4119 66.2345 36.3191H66.1834V38.6344H65.334ZM66.1663 34.8162C66.1663 35.123 66.2109 35.392 66.2999 35.623C66.3889 35.8541 66.5177 36.035 66.6862 36.1657C66.8548 36.2944 67.0612 36.3588 67.3056 36.3588C67.5593 36.3588 67.7715 36.2916 67.9419 36.1571C68.1124 36.0208 68.2412 35.8361 68.3283 35.6032C68.4173 35.3702 68.4618 35.1079 68.4618 34.8162C68.4618 34.5283 68.4182 34.2698 68.3311 34.0407C68.2459 33.8115 68.1171 33.6306 67.9448 33.498C67.7743 33.3655 67.5612 33.2992 67.3056 33.2992C67.0593 33.2992 66.851 33.3626 66.6806 33.4895C66.512 33.6164 66.3842 33.7935 66.297 34.0208C66.2099 34.248 66.1663 34.5132 66.1663 34.8162ZM70.2715 38.6344V32.6344H71.101V33.3418H71.172C71.2213 33.2509 71.2923 33.1458 71.3851 33.0265C71.4779 32.9071 71.6067 32.803 71.7715 32.714C71.9362 32.623 72.154 32.5776 72.4249 32.5776C72.7771 32.5776 73.0915 32.6666 73.3681 32.8446C73.6446 33.0227 73.8614 33.2793 74.0186 33.6145C74.1777 33.9498 74.2573 34.3532 74.2573 34.8248C74.2573 35.2963 74.1787 35.7007 74.0215 36.0378C73.8643 36.373 73.6484 36.6316 73.3737 36.8134C73.0991 36.9933 72.7857 37.0833 72.4334 37.0833C72.1682 37.0833 71.9514 37.0388 71.7828 36.9498C71.6162 36.8607 71.4855 36.7566 71.3908 36.6373C71.2961 36.5179 71.2232 36.4119 71.172 36.3191H71.1209V38.6344H70.2715ZM71.1038 34.8162C71.1038 35.123 71.1484 35.392 71.2374 35.623C71.3264 35.8541 71.4552 36.035 71.6237 36.1657C71.7923 36.2944 71.9987 36.3588 72.2431 36.3588C72.4968 36.3588 72.709 36.2916 72.8794 36.1571C73.0499 36.0208 73.1787 35.8361 73.2658 35.6032C73.3548 35.3702 73.3993 35.1079 73.3993 34.8162C73.3993 34.5283 73.3557 34.2698 73.2686 34.0407C73.1834 33.8115 73.0546 33.6306 72.8823 33.498C72.7118 33.3655 72.4987 33.2992 72.2431 33.2992C71.9968 33.2992 71.7885 33.3626 71.6181 33.4895C71.4495 33.6164 71.3217 33.7935 71.2345 34.0208C71.1474 34.248 71.1038 34.5132 71.1038 34.8162ZM76.0584 31.1799V36.998H75.209V31.1799H76.0584ZM79.0818 37.0861C78.6519 37.0861 78.2816 36.9943 77.971 36.8105C77.6623 36.6249 77.4237 36.3645 77.2551 36.0293C77.0885 35.6922 77.0051 35.2973 77.0051 34.8446C77.0051 34.3977 77.0885 34.0037 77.2551 33.6628C77.4237 33.3219 77.6585 33.0558 77.9597 32.8645C78.2627 32.6732 78.6169 32.5776 79.0222 32.5776C79.2684 32.5776 79.507 32.6183 79.7381 32.6998C79.9691 32.7812 80.1765 32.909 80.3602 33.0833C80.544 33.2575 80.6888 33.4838 80.7949 33.7623C80.901 34.0388 80.954 34.3749 80.954 34.7708V35.0719H77.4852V34.4355H80.1216C80.1216 34.2121 80.0761 34.0141 79.9852 33.8418C79.8943 33.6676 79.7665 33.5302 79.6017 33.4299C79.4388 33.3295 79.2476 33.2793 79.0279 33.2793C78.7892 33.2793 78.5809 33.338 78.4029 33.4554C78.2267 33.571 78.0904 33.7225 77.9938 33.91C77.8991 34.0956 77.8517 34.2973 77.8517 34.5151V35.0123C77.8517 35.3039 77.9029 35.552 78.0051 35.7566C78.1093 35.9611 78.2542 36.1174 78.4398 36.2253C78.6254 36.3314 78.8422 36.3844 79.0904 36.3844C79.2513 36.3844 79.3981 36.3617 79.5307 36.3162C79.6633 36.2689 79.7779 36.1988 79.8744 36.106C79.971 36.0132 80.0449 35.8986 80.096 35.7623L80.9 35.9071C80.8356 36.1439 80.7201 36.3513 80.5534 36.5293C80.3886 36.7054 80.1813 36.8427 79.9313 36.9412C79.6832 37.0378 79.4 37.0861 79.0818 37.0861ZM83.7949 31.9355V31.1799H88.2977V31.9355H86.4824V36.998H85.6074V31.9355H83.7949ZM89.8013 31.1799L91.4206 35.9185H91.486L93.1053 31.1799H94.0541L91.9604 36.998H90.9462L88.8524 31.1799H89.8013Z" fill="#1A191E" fill-opacity="0.5"/>
<rect x="157.161" y="16.998" width="27.8891" height="16.3086" rx="8.1543" fill="#CE0E2D"/>
<ellipse cx="176.396" cy="25.2337" rx="6.235" ry="6.23564" fill="white"/>
</g>
<defs>
<filter id="filter0_d_1_13570" x="0.161377" y="-0.00195312" width="205" height="60" filterUnits="userSpaceOnUse" color-interpolation-filters="sRGB">
<feFlood flood-opacity="0" result="BackgroundImageFix"/>
<feColorMatrix in="SourceAlpha" type="matrix" values="0 0 0 0 0 0 0 0 0 0 0 0 0 0 0 0 0 0 127 0" result="hardAlpha"/>
<feOffset dy="3"/>
<feGaussianBlur stdDeviation="2"/>
<feComposite in2="hardAlpha" operator="out"/>
<feColorMatrix type="matrix" values="0 0 0 0 0 0 0 0 0 0 0 0 0 0 0 0 0 0 0.1 0"/>
<feBlend mode="normal" in2="BackgroundImageFix" result="effect1_dropShadow_1_13570"/>
<feBlend mode="normal" in="SourceGraphic" in2="effect1_dropShadow_1_13570" result="shape"/>
</filter>
<clipPath id="clip0_1_13570">
<rect width="18" height="18" fill="white" transform="translate(28.1614 16.998)"/>
</clipPath>
</defs>
</svg>
