<svg width="282" height="282" viewBox="0 0 282 282" fill="none" xmlns="http://www.w3.org/2000/svg">
<rect x="0.774414" y="0.777344" width="280.775" height="280.775" rx="35.7126" fill="white"/>
<path d="M61.6848 255.877L66.7018 237.535H71.2941L76.2845 255.877H74.1609L72.8602 251.232H65.1091L63.8084 255.877H61.6848ZM65.5603 249.347H72.409L69.6748 239.34H68.2945L65.5603 249.347ZM82.6259 256.143C81.4933 256.143 80.6262 255.913 80.0245 255.453C79.4228 254.993 79.0069 254.276 78.7769 253.303C78.5645 252.329 78.4583 251.073 78.4583 249.533V242.605H80.5023V249.533C80.5023 250.701 80.5554 251.63 80.6616 252.32C80.7855 253.011 81.0421 253.515 81.4314 253.833C81.8207 254.134 82.4047 254.285 83.1834 254.285C83.962 254.285 84.6699 254.179 85.307 253.966C85.944 253.754 86.4573 253.541 86.8466 253.329V242.605H88.8905V255.877H86.8466V254.948C86.2803 255.267 85.6609 255.55 84.9884 255.798C84.3336 256.028 83.5461 256.143 82.6259 256.143ZM97.0724 256.169C96.1522 256.169 95.4178 256.028 94.8692 255.745C94.3383 255.462 93.9578 254.975 93.7278 254.285C93.4977 253.577 93.3827 252.586 93.3827 251.312V244.383H91.498V242.605H93.3827V238.544H95.4267V242.605H99.5942V244.383H95.4267V250.701C95.4267 251.639 95.462 252.373 95.5328 252.904C95.6213 253.418 95.7983 253.78 96.0637 253.993C96.3292 254.205 96.7451 254.311 97.3114 254.311C97.4883 254.311 97.7184 254.302 98.0015 254.285C98.2847 254.267 98.5678 254.249 98.851 254.232C99.1518 254.196 99.4173 254.17 99.6473 254.152L99.78 255.877C99.5323 255.913 99.2403 255.948 98.9041 255.984C98.5678 256.037 98.2316 256.081 97.8953 256.116C97.5768 256.152 97.3025 256.169 97.0724 256.169ZM107.122 256.143C105.636 256.143 104.476 255.886 103.645 255.373C102.831 254.86 102.255 254.081 101.919 253.037C101.601 251.993 101.441 250.675 101.441 249.082C101.441 247.56 101.618 246.304 101.972 245.313C102.344 244.321 102.946 243.578 103.777 243.083C104.609 242.587 105.724 242.339 107.122 242.339C108.538 242.339 109.662 242.587 110.493 243.083C111.325 243.578 111.918 244.321 112.272 245.313C112.643 246.304 112.829 247.56 112.829 249.082C112.829 250.675 112.661 251.993 112.325 253.037C112.006 254.081 111.431 254.86 110.599 255.373C109.785 255.886 108.626 256.143 107.122 256.143ZM107.122 254.364C108.148 254.364 108.918 254.187 109.431 253.833C109.945 253.462 110.281 252.887 110.44 252.108C110.617 251.329 110.706 250.321 110.706 249.082C110.706 247.861 110.599 246.888 110.387 246.162C110.175 245.436 109.812 244.914 109.299 244.596C108.786 244.277 108.06 244.118 107.122 244.118C106.202 244.118 105.476 244.277 104.945 244.596C104.432 244.914 104.069 245.436 103.857 246.162C103.645 246.888 103.538 247.861 103.538 249.082C103.538 250.321 103.618 251.329 103.777 252.108C103.954 252.887 104.299 253.462 104.813 253.833C105.326 254.187 106.096 254.364 107.122 254.364ZM122.227 255.877V237.535H128.943C130.288 237.535 131.394 237.756 132.261 238.198C133.128 238.623 133.774 239.278 134.199 240.163C134.623 241.03 134.836 242.136 134.836 243.481C134.836 244.808 134.623 245.941 134.199 246.879C133.774 247.799 133.128 248.507 132.261 249.002C131.394 249.48 130.288 249.719 128.943 249.719H124.35V255.877H122.227ZM124.35 247.861H128.943C130.252 247.861 131.199 247.48 131.783 246.719C132.367 245.958 132.659 244.879 132.659 243.481C132.659 242.065 132.367 241.03 131.783 240.375C131.199 239.72 130.252 239.393 128.943 239.393H124.35V247.861ZM140.252 256.143C139.031 256.143 138.102 255.798 137.465 255.108C136.827 254.417 136.509 253.409 136.509 252.081C136.509 251.214 136.659 250.506 136.96 249.958C137.261 249.409 137.712 248.993 138.314 248.71C138.933 248.409 139.694 248.224 140.597 248.153L144.685 247.755V246.613C144.685 245.711 144.481 245.074 144.074 244.702C143.685 244.33 143.101 244.145 142.322 244.145C141.88 244.145 141.349 244.162 140.73 244.198C140.128 244.233 139.526 244.277 138.924 244.33C138.323 244.383 137.792 244.437 137.332 244.49L137.226 242.923C137.65 242.835 138.164 242.746 138.765 242.658C139.367 242.57 139.995 242.499 140.65 242.446C141.305 242.375 141.906 242.339 142.455 242.339C143.464 242.339 144.287 242.499 144.924 242.817C145.561 243.118 146.021 243.587 146.304 244.224C146.605 244.844 146.755 245.64 146.755 246.613V253.329C146.791 253.718 146.941 254.002 147.207 254.179C147.49 254.356 147.844 254.471 148.268 254.524L148.189 256.143C147.941 256.143 147.702 256.134 147.472 256.116C147.242 256.099 147.021 256.063 146.808 256.01C146.614 255.975 146.419 255.931 146.224 255.877C145.994 255.789 145.773 255.683 145.561 255.559C145.366 255.435 145.171 255.285 144.977 255.108C144.641 255.249 144.207 255.4 143.676 255.559C143.163 255.718 142.605 255.851 142.004 255.957C141.42 256.081 140.836 256.143 140.252 256.143ZM140.597 254.417C141.075 254.417 141.57 254.373 142.083 254.285C142.597 254.196 143.083 254.09 143.543 253.966C144.003 253.842 144.384 253.727 144.685 253.621V249.294L140.836 249.666C140.039 249.737 139.464 249.967 139.11 250.356C138.774 250.745 138.606 251.303 138.606 252.028C138.606 252.772 138.774 253.356 139.11 253.78C139.447 254.205 139.942 254.417 140.597 254.417ZM153.106 261.744L154.832 255.877H152.841L149.098 242.605H151.169L154.407 254.099H155.31L158.575 242.605H160.645L155.177 261.744H153.106ZM163.203 255.877V242.605H165.247V243.534C165.531 243.357 165.885 243.18 166.309 243.003C166.734 242.826 167.185 242.676 167.663 242.552C168.159 242.41 168.628 242.339 169.07 242.339C169.955 242.339 170.663 242.446 171.194 242.658C171.742 242.87 172.185 243.215 172.521 243.693C172.875 243.499 173.308 243.295 173.822 243.083C174.335 242.87 174.883 242.693 175.467 242.552C176.069 242.41 176.653 242.339 177.219 242.339C178.122 242.339 178.865 242.454 179.449 242.685C180.033 242.915 180.484 243.286 180.803 243.799C181.139 244.313 181.369 244.985 181.493 245.817C181.635 246.631 181.705 247.64 181.705 248.843V255.877H179.661V248.923C179.661 247.772 179.591 246.852 179.449 246.162C179.325 245.472 179.069 244.976 178.679 244.675C178.29 244.357 177.697 244.198 176.901 244.198C176.441 244.198 175.972 244.251 175.494 244.357C175.034 244.445 174.6 244.569 174.193 244.729C173.804 244.87 173.485 245.012 173.238 245.153C173.361 245.613 173.441 246.188 173.476 246.879C173.53 247.551 173.556 248.25 173.556 248.976V255.877H171.512V249.029C171.512 247.825 171.45 246.879 171.326 246.188C171.202 245.481 170.937 244.976 170.53 244.675C170.141 244.357 169.548 244.198 168.751 244.198C168.309 244.198 167.858 244.251 167.398 244.357C166.955 244.445 166.548 244.569 166.177 244.729C165.805 244.87 165.495 245.012 165.247 245.153V255.877H163.203ZM190.092 256.143C188.765 256.143 187.712 255.886 186.933 255.373C186.172 254.86 185.624 254.099 185.287 253.09C184.951 252.081 184.783 250.825 184.783 249.321C184.783 247.64 185.013 246.295 185.473 245.286C185.933 244.26 186.579 243.516 187.411 243.056C188.243 242.578 189.225 242.339 190.357 242.339C192.127 242.339 193.463 242.835 194.366 243.826C195.268 244.799 195.72 246.374 195.72 248.551L195.613 250.117H186.88C186.898 251.498 187.154 252.542 187.65 253.249C188.145 253.957 189.039 254.311 190.331 254.311C190.826 254.311 191.366 254.302 191.95 254.285C192.552 254.249 193.145 254.214 193.729 254.179C194.313 254.143 194.808 254.108 195.215 254.072L195.268 255.692C194.844 255.762 194.321 255.833 193.702 255.904C193.1 255.975 192.481 256.028 191.844 256.063C191.207 256.116 190.623 256.143 190.092 256.143ZM186.88 248.445H193.649C193.649 246.817 193.384 245.684 192.853 245.047C192.339 244.392 191.508 244.065 190.357 244.065C189.614 244.065 188.986 244.215 188.473 244.516C187.96 244.799 187.561 245.259 187.278 245.896C187.013 246.534 186.88 247.383 186.88 248.445ZM198.796 255.877V242.605H200.84V243.534C201.14 243.357 201.512 243.18 201.955 243.003C202.415 242.826 202.901 242.676 203.414 242.552C203.928 242.41 204.423 242.339 204.901 242.339C205.821 242.339 206.573 242.463 207.157 242.711C207.741 242.941 208.193 243.322 208.511 243.853C208.847 244.366 209.077 245.038 209.201 245.87C209.343 246.684 209.414 247.675 209.414 248.843V255.877H207.343V248.923C207.343 247.772 207.272 246.852 207.131 246.162C207.007 245.472 206.741 244.976 206.334 244.675C205.945 244.357 205.343 244.198 204.529 244.198C204.087 244.198 203.627 244.251 203.149 244.357C202.689 244.445 202.255 244.569 201.848 244.729C201.441 244.87 201.105 245.012 200.84 245.153V255.877H198.796ZM217.355 256.169C216.435 256.169 215.7 256.028 215.152 255.745C214.621 255.462 214.24 254.975 214.01 254.285C213.78 253.577 213.665 252.586 213.665 251.312V244.383H211.78V242.605H213.665V238.544H215.709V242.605H219.877V244.383H215.709V250.701C215.709 251.639 215.744 252.373 215.815 252.904C215.904 253.418 216.081 253.78 216.346 253.993C216.612 254.205 217.027 254.311 217.594 254.311C217.771 254.311 218.001 254.302 218.284 254.285C218.567 254.267 218.85 254.249 219.133 254.232C219.434 254.196 219.7 254.17 219.93 254.152L220.062 255.877C219.815 255.913 219.523 255.948 219.186 255.984C218.85 256.037 218.514 256.081 218.178 256.116C217.859 256.152 217.585 256.169 217.355 256.169Z" fill="#111111"/>
<path d="M240.51 25.7773H41.9371C19.4517 25.7773 1.22363 44.0054 1.22363 66.4908V195.064C1.22363 217.549 19.4517 235.777 41.9371 235.777H240.51C262.996 235.777 281.224 217.549 281.224 195.064V66.4908C281.224 44.0054 262.996 25.7773 240.51 25.7773Z" fill="white"/>
<path d="M55.1531 120.379C29.4518 120.881 9.05776 135.443 1.22363 142.376V192.999H281.224V86.7578C244.489 90.38 234.375 139.237 184.433 142.376C134.49 145.515 80.8547 119.878 55.1531 120.379Z" fill="url(#paint0_linear_1_14643)"/>
<path d="M1.22363 163.787C9.05776 156.855 29.4518 142.292 55.1531 141.791C80.8546 141.29 134.49 166.927 184.433 163.787C234.375 160.648 244.489 111.791 281.224 108.169" stroke="#B8CEDC" stroke-width="2.03567"/>
<path d="M76.5023 80.5186H1.22363V200.913H76.5023V80.5186Z" fill="url(#paint1_linear_1_14643)"/>
<path d="M205.945 80.5186H281.224V200.913H205.945V80.5186Z" fill="url(#paint2_linear_1_14643)"/>
<path d="M106.64 73.7974C106.395 73.7974 106.11 73.7811 105.785 73.7486C105.459 73.7241 105.133 73.6916 104.808 73.6509C104.49 73.602 104.209 73.5613 103.965 73.5287L104.062 72.7226C104.299 72.747 104.571 72.7755 104.881 72.8081C105.198 72.8407 105.508 72.8692 105.809 72.8936C106.119 72.918 106.379 72.9302 106.591 72.9302C106.99 72.9302 107.32 72.8732 107.58 72.7592C107.841 72.6371 108.036 72.4539 108.166 72.2096C108.297 71.9653 108.362 71.6518 108.362 71.2691C108.362 70.9597 108.301 70.7154 108.179 70.5363C108.065 70.349 107.869 70.2024 107.592 70.0966C107.324 69.9826 106.961 69.8808 106.505 69.7912C106.066 69.7016 105.683 69.5999 105.357 69.4859C105.031 69.3719 104.759 69.2294 104.539 69.0584C104.319 68.8792 104.156 68.6553 104.05 68.3866C103.944 68.1179 103.891 67.784 103.891 67.3851C103.891 66.8395 104.001 66.3998 104.221 66.0659C104.449 65.7321 104.767 65.4878 105.174 65.3331C105.589 65.1784 106.07 65.101 106.615 65.101C106.86 65.101 107.136 65.1173 107.446 65.1499C107.763 65.1743 108.073 65.2069 108.374 65.2476C108.683 65.2802 108.948 65.3168 109.168 65.3575L109.082 66.1759C108.846 66.1433 108.574 66.1148 108.264 66.0904C107.955 66.0578 107.657 66.0293 107.372 66.0049C107.088 65.9804 106.86 65.9682 106.689 65.9682C106.298 65.9682 105.968 66.0171 105.699 66.1148C105.43 66.2125 105.227 66.3631 105.088 66.5667C104.95 66.7621 104.881 67.0146 104.881 67.324C104.881 67.6823 104.946 67.955 105.076 68.1423C105.215 68.3296 105.435 68.4762 105.736 68.582C106.037 68.6879 106.432 68.7978 106.921 68.9118C107.344 69.0095 107.706 69.1154 108.008 69.2294C108.317 69.3434 108.569 69.4859 108.765 69.6569C108.968 69.8197 109.115 70.0274 109.205 70.2798C109.302 70.5241 109.351 70.8294 109.351 71.1958C109.351 71.8147 109.241 72.3155 109.021 72.6982C108.802 73.0809 108.488 73.3618 108.081 73.5409C107.674 73.7119 107.193 73.7974 106.64 73.7974ZM112.136 73.8096C111.574 73.8096 111.147 73.6509 110.853 73.3333C110.56 73.0157 110.414 72.5516 110.414 71.9409C110.414 71.5419 110.483 71.2162 110.621 70.9638C110.76 70.7113 110.967 70.52 111.244 70.3897C111.529 70.2513 111.879 70.1658 112.295 70.1332L114.176 69.95V69.4248C114.176 69.0095 114.082 68.7164 113.895 68.5454C113.716 68.3744 113.447 68.2889 113.089 68.2889C112.885 68.2889 112.641 68.297 112.356 68.3133C112.079 68.3296 111.802 68.35 111.525 68.3744C111.248 68.3988 111.004 68.4232 110.792 68.4477L110.743 67.727C110.939 67.6863 111.175 67.6456 111.452 67.6049C111.729 67.5642 112.018 67.5316 112.319 67.5072C112.62 67.4746 112.897 67.4583 113.15 67.4583C113.614 67.4583 113.992 67.5316 114.286 67.6782C114.579 67.8166 114.79 68.0324 114.921 68.3255C115.059 68.6105 115.128 68.9769 115.128 69.4248V72.515C115.145 72.6941 115.214 72.8244 115.336 72.9058C115.466 72.9872 115.629 73.0402 115.825 73.0646L115.788 73.8096C115.674 73.8096 115.564 73.8056 115.458 73.7974C115.352 73.7893 115.25 73.773 115.153 73.7486C115.063 73.7323 114.974 73.7119 114.884 73.6875C114.778 73.6468 114.676 73.5979 114.579 73.5409C114.489 73.4839 114.4 73.4147 114.31 73.3333C114.155 73.3984 113.956 73.4676 113.711 73.5409C113.475 73.6142 113.219 73.6753 112.942 73.7241C112.673 73.7811 112.405 73.8096 112.136 73.8096ZM112.295 73.0157C112.515 73.0157 112.743 72.9954 112.979 72.9547C113.215 72.9139 113.439 72.8651 113.65 72.8081C113.862 72.7511 114.037 72.6982 114.176 72.6493V70.6584L112.405 70.8294C112.038 70.862 111.774 70.9678 111.611 71.147C111.456 71.3261 111.379 71.5826 111.379 71.9165C111.379 72.2585 111.456 72.5272 111.611 72.7226C111.765 72.918 111.993 73.0157 112.295 73.0157ZM117.009 73.6875V64.93H117.949V73.6875H117.009ZM121.117 73.8096C120.556 73.8096 120.128 73.6509 119.835 73.3333C119.542 73.0157 119.395 72.5516 119.395 71.9409C119.395 71.5419 119.465 71.2162 119.603 70.9638C119.741 70.7113 119.949 70.52 120.226 70.3897C120.511 70.2513 120.861 70.1658 121.276 70.1332L123.157 69.95V69.4248C123.157 69.0095 123.064 68.7164 122.876 68.5454C122.697 68.3744 122.428 68.2889 122.07 68.2889C121.867 68.2889 121.622 68.297 121.337 68.3133C121.061 68.3296 120.784 68.35 120.507 68.3744C120.23 68.3988 119.986 68.4232 119.774 68.4477L119.725 67.727C119.921 67.6863 120.157 67.6456 120.434 67.6049C120.71 67.5642 120.999 67.5316 121.301 67.5072C121.602 67.4746 121.879 67.4583 122.131 67.4583C122.595 67.4583 122.974 67.5316 123.267 67.6782C123.56 67.8166 123.772 68.0324 123.902 68.3255C124.041 68.6105 124.11 68.9769 124.11 69.4248V72.515C124.126 72.6941 124.195 72.8244 124.318 72.9058C124.448 72.9872 124.611 73.0402 124.806 73.0646L124.769 73.8096C124.656 73.8096 124.546 73.8056 124.44 73.7974C124.334 73.7893 124.232 73.773 124.134 73.7486C124.045 73.7323 123.955 73.7119 123.866 73.6875C123.76 73.6468 123.658 73.5979 123.56 73.5409C123.471 73.4839 123.381 73.4147 123.292 73.3333C123.137 73.3984 122.937 73.4676 122.693 73.5409C122.457 73.6142 122.2 73.6753 121.924 73.7241C121.655 73.7811 121.386 73.8096 121.117 73.8096ZM121.276 73.0157C121.496 73.0157 121.724 72.9954 121.96 72.9547C122.196 72.9139 122.42 72.8651 122.632 72.8081C122.844 72.7511 123.019 72.6982 123.157 72.6493V70.6584L121.386 70.8294C121.02 70.862 120.755 70.9678 120.592 71.147C120.438 71.3261 120.36 71.5826 120.36 71.9165C120.36 72.2585 120.438 72.5272 120.592 72.7226C120.747 72.918 120.975 73.0157 121.276 73.0157ZM125.917 73.6875V67.5805H126.858V68.3988C127.012 68.293 127.208 68.179 127.444 68.0568C127.68 67.9265 127.941 67.8044 128.226 67.6904C128.51 67.5764 128.795 67.495 129.08 67.4461V68.411C128.804 68.468 128.523 68.5454 128.238 68.6431C127.953 68.7327 127.688 68.8304 127.444 68.9362C127.208 69.0421 127.012 69.1357 126.858 69.2172V73.6875H125.917ZM131.422 76.3868L132.216 73.6875H131.3L129.577 67.5805H130.53L132.02 72.8692H132.435L133.938 67.5805H134.89L132.374 76.3868H131.422ZM138.153 73.6875L140.461 65.2476H142.574L144.871 73.6875H143.893L143.295 71.55H139.728L139.13 73.6875H138.153ZM139.936 70.6828H143.087L141.829 66.0781H141.194L139.936 70.6828ZM146.027 73.6875V67.5805H146.968V68.008C147.098 67.9265 147.261 67.8451 147.456 67.7637C147.652 67.6823 147.859 67.613 148.079 67.556C148.307 67.4909 148.523 67.4583 148.727 67.4583C149.134 67.4583 149.459 67.5072 149.704 67.6049C149.956 67.7026 150.16 67.8614 150.314 68.0813C150.477 67.9917 150.677 67.898 150.913 67.8003C151.149 67.7026 151.401 67.6212 151.67 67.556C151.947 67.4909 152.216 67.4583 152.476 67.4583C152.892 67.4583 153.234 67.5113 153.502 67.6171C153.771 67.723 153.979 67.894 154.125 68.1301C154.28 68.3662 154.386 68.6757 154.443 69.0584C154.508 69.4329 154.54 69.8971 154.54 70.4508V73.6875H153.6V70.4874C153.6 69.9581 153.567 69.5347 153.502 69.2172C153.445 68.8996 153.327 68.6716 153.148 68.5332C152.969 68.3866 152.696 68.3133 152.33 68.3133C152.118 68.3133 151.902 68.3377 151.682 68.3866C151.471 68.4273 151.271 68.4843 151.084 68.5576C150.905 68.6227 150.758 68.6879 150.644 68.753C150.701 68.9647 150.738 69.2294 150.754 69.5469C150.779 69.8564 150.791 70.178 150.791 70.5118V73.6875H149.85V70.5363C149.85 69.9826 149.822 69.5469 149.765 69.2294C149.708 68.9037 149.586 68.6716 149.398 68.5332C149.219 68.3866 148.946 68.3133 148.58 68.3133C148.376 68.3133 148.169 68.3377 147.957 68.3866C147.754 68.4273 147.566 68.4843 147.395 68.5576C147.224 68.6227 147.082 68.6879 146.968 68.753V73.6875H146.027ZM158.583 73.8096C157.899 73.8096 157.365 73.6916 156.983 73.4554C156.608 73.2193 156.343 72.861 156.189 72.3806C156.042 71.9002 155.969 71.2935 155.969 70.5607C155.969 69.8604 156.05 69.2823 156.213 68.8263C156.384 68.3703 156.661 68.0283 157.044 67.8003C157.426 67.5723 157.939 67.4583 158.583 67.4583C159.234 67.4583 159.751 67.5723 160.134 67.8003C160.516 68.0283 160.789 68.3703 160.952 68.8263C161.123 69.2823 161.209 69.8604 161.209 70.5607C161.209 71.2935 161.131 71.9002 160.977 72.3806C160.83 72.861 160.565 73.2193 160.183 73.4554C159.808 73.6916 159.275 73.8096 158.583 73.8096ZM158.583 72.9913C159.055 72.9913 159.409 72.9099 159.645 72.747C159.881 72.576 160.036 72.3114 160.109 71.9531C160.191 71.5948 160.231 71.1307 160.231 70.5607C160.231 69.9989 160.183 69.551 160.085 69.2172C159.987 68.8833 159.82 68.6431 159.584 68.4965C159.348 68.35 159.014 68.2767 158.583 68.2767C158.159 68.2767 157.825 68.35 157.581 68.4965C157.345 68.6431 157.178 68.8833 157.08 69.2172C156.983 69.551 156.934 69.9989 156.934 70.5607C156.934 71.1307 156.97 71.5948 157.044 71.9531C157.125 72.3114 157.284 72.576 157.52 72.747C157.756 72.9099 158.11 72.9913 158.583 72.9913ZM164.559 73.8096C164.038 73.8096 163.639 73.7038 163.362 73.4921C163.085 73.2804 162.894 72.9506 162.788 72.5027C162.69 72.0549 162.641 71.4768 162.641 70.7683V67.5805H163.582V70.7683C163.582 71.3058 163.606 71.7333 163.655 72.0508C163.712 72.3684 163.83 72.6004 164.009 72.747C164.188 72.8854 164.457 72.9547 164.815 72.9547C165.174 72.9547 165.499 72.9058 165.792 72.8081C166.086 72.7104 166.322 72.6127 166.501 72.515V67.5805H167.441V73.6875H166.501V73.26C166.24 73.4066 165.955 73.5369 165.646 73.6509C165.345 73.7567 164.982 73.8096 164.559 73.8096ZM169.203 73.6875V67.5805H170.143V68.008C170.282 67.9265 170.453 67.8451 170.656 67.7637C170.868 67.6823 171.092 67.613 171.328 67.556C171.564 67.4909 171.792 67.4583 172.012 67.4583C172.436 67.4583 172.782 67.5153 173.05 67.6293C173.319 67.7352 173.527 67.9103 173.673 68.1545C173.828 68.3907 173.934 68.7001 173.991 69.0828C174.056 69.4574 174.089 69.9134 174.089 70.4508V73.6875H173.136V70.4874C173.136 69.9581 173.103 69.5347 173.038 69.2172C172.981 68.8996 172.859 68.6716 172.672 68.5332C172.493 68.3866 172.216 68.3133 171.841 68.3133C171.638 68.3133 171.426 68.3377 171.206 68.3866C170.994 68.4273 170.795 68.4843 170.608 68.5576C170.42 68.6227 170.266 68.6879 170.143 68.753V73.6875H169.203ZM177.742 73.8219C177.319 73.8219 176.981 73.7567 176.729 73.6264C176.484 73.4961 176.309 73.2722 176.204 72.9547C176.098 72.6289 176.045 72.173 176.045 71.5867V68.3988H175.178V67.5805H176.045V65.7117H176.985V67.5805H178.903V68.3988H176.985V71.3058C176.985 71.7373 177.001 72.0752 177.034 72.3195C177.075 72.5557 177.156 72.7226 177.278 72.8203C177.4 72.918 177.592 72.9669 177.852 72.9669C177.934 72.9669 178.04 72.9628 178.17 72.9547C178.3 72.9465 178.431 72.9384 178.561 72.9302C178.699 72.9139 178.821 72.9017 178.927 72.8936L178.988 73.6875C178.874 73.7038 178.74 73.7201 178.585 73.7364C178.431 73.7608 178.276 73.7811 178.121 73.7974C177.975 73.8137 177.848 73.8219 177.742 73.8219Z" fill="#979797"/>
<path d="M87.3643 113.299C86.6948 113.299 85.989 113.262 85.2472 113.19C84.5234 113.118 83.8267 113.027 83.1572 112.919C82.5058 112.792 81.9629 112.683 81.5287 112.593L81.6915 109.689C82.1258 109.743 82.6415 109.806 83.2386 109.879C83.8539 109.951 84.4781 110.014 85.1114 110.069C85.7629 110.105 86.36 110.123 86.9028 110.123C87.9342 110.123 88.7033 109.933 89.2099 109.553C89.7166 109.173 89.9699 108.558 89.9699 107.707C89.9699 107.128 89.8523 106.676 89.6171 106.35C89.3999 106.006 89.0742 105.753 88.64 105.59C88.2238 105.427 87.7352 105.337 87.1743 105.319H83.4829V102.333H87.0928C87.509 102.333 87.9071 102.243 88.2871 102.062C88.6852 101.881 89.0018 101.618 89.2371 101.275C89.4904 100.931 89.6171 100.515 89.6171 100.026C89.6171 99.266 89.3818 98.7322 88.9114 98.4246C88.459 98.0989 87.7171 97.936 86.6857 97.936C86.1429 97.936 85.5729 97.9632 84.9757 98.0174C84.3786 98.0717 83.8086 98.1351 83.2658 98.2074C82.7229 98.2617 82.2706 98.325 81.9087 98.3974L81.7458 95.5475C82.1439 95.4389 82.6324 95.3303 83.2115 95.2218C83.7905 95.0951 84.4057 94.9956 85.0572 94.9232C85.7086 94.8327 86.3238 94.7875 86.9028 94.7875C88.4409 94.7875 89.6804 94.9504 90.6213 95.2761C91.5804 95.5837 92.277 96.0994 92.7113 96.8232C93.1456 97.5289 93.3627 98.4608 93.3627 99.6188C93.3627 100.252 93.2813 100.786 93.1184 101.22C92.9737 101.655 92.7746 102.025 92.5213 102.333C92.2861 102.641 92.0418 102.894 91.7885 103.093C91.5351 103.274 91.2999 103.437 91.0828 103.582C91.6256 103.835 92.0961 104.115 92.4942 104.423C92.8922 104.731 93.1999 105.138 93.417 105.644C93.6341 106.151 93.7427 106.83 93.7427 107.68C93.7427 109.037 93.5075 110.132 93.037 110.964C92.5665 111.779 91.8608 112.376 90.9199 112.756C89.979 113.118 88.7938 113.299 87.3643 113.299ZM95.905 116.121L96.8821 109.173H100.845L98.8906 116.121H95.905ZM109.504 113.299C108.346 113.299 107.342 113.145 106.491 112.837C105.641 112.511 104.935 111.996 104.374 111.29C103.831 110.566 103.415 109.625 103.125 108.467C102.854 107.309 102.718 105.889 102.718 104.206C102.718 102.469 102.854 100.994 103.125 99.7817C103.415 98.5693 103.84 97.6013 104.401 96.8775C104.962 96.1356 105.659 95.6018 106.491 95.2761C107.342 94.9504 108.337 94.7875 109.477 94.7875C110.653 94.7875 111.666 94.9504 112.517 95.2761C113.367 95.6018 114.064 96.1356 114.607 96.8775C115.168 97.6013 115.575 98.5693 115.828 99.7817C116.1 100.976 116.235 102.451 116.235 104.206C116.235 106.432 115.991 108.214 115.502 109.553C115.032 110.874 114.299 111.833 113.304 112.43C112.309 113.009 111.042 113.299 109.504 113.299ZM109.504 110.15C110.011 110.15 110.445 110.069 110.807 109.906C111.187 109.725 111.503 109.417 111.757 108.983C112.01 108.549 112.191 107.942 112.3 107.164C112.426 106.386 112.49 105.4 112.49 104.206C112.49 102.939 112.426 101.899 112.3 101.085C112.191 100.27 112.019 99.6369 111.784 99.1846C111.549 98.7141 111.241 98.3884 110.861 98.2074C110.481 98.0084 110.029 97.9089 109.504 97.9089C108.979 97.9089 108.527 98.0084 108.147 98.2074C107.767 98.3884 107.45 98.705 107.197 99.1574C106.962 99.6098 106.781 100.252 106.654 101.085C106.527 101.899 106.464 102.948 106.464 104.233C106.464 105.427 106.527 106.413 106.654 107.192C106.799 107.97 106.998 108.576 107.251 109.01C107.504 109.426 107.812 109.725 108.174 109.906C108.554 110.069 108.997 110.15 109.504 110.15ZM124.586 113.299C123.428 113.299 122.424 113.145 121.573 112.837C120.723 112.511 120.017 111.996 119.456 111.29C118.913 110.566 118.497 109.625 118.207 108.467C117.936 107.309 117.8 105.889 117.8 104.206C117.8 102.469 117.936 100.994 118.207 99.7817C118.497 98.5693 118.922 97.6013 119.483 96.8775C120.044 96.1356 120.741 95.6018 121.573 95.2761C122.424 94.9504 123.419 94.7875 124.559 94.7875C125.735 94.7875 126.748 94.9504 127.599 95.2761C128.449 95.6018 129.146 96.1356 129.689 96.8775C130.25 97.6013 130.657 98.5693 130.91 99.7817C131.182 100.976 131.317 102.451 131.317 104.206C131.317 106.432 131.073 108.214 130.584 109.553C130.114 110.874 129.381 111.833 128.386 112.43C127.391 113.009 126.124 113.299 124.586 113.299ZM124.586 110.15C125.093 110.15 125.527 110.069 125.889 109.906C126.269 109.725 126.585 109.417 126.839 108.983C127.092 108.549 127.273 107.942 127.382 107.164C127.508 106.386 127.572 105.4 127.572 104.206C127.572 102.939 127.508 101.899 127.382 101.085C127.273 100.27 127.101 99.6369 126.866 99.1846C126.631 98.7141 126.323 98.3884 125.943 98.2074C125.563 98.0084 125.111 97.9089 124.586 97.9089C124.061 97.9089 123.609 98.0084 123.229 98.2074C122.849 98.3884 122.532 98.705 122.279 99.1574C122.044 99.6098 121.863 100.252 121.736 101.085C121.609 101.899 121.546 102.948 121.546 104.233C121.546 105.427 121.609 106.413 121.736 107.192C121.881 107.97 122.08 108.576 122.333 109.01C122.586 109.426 122.894 109.725 123.256 109.906C123.636 110.069 124.079 110.15 124.586 110.15ZM139.668 113.299C138.51 113.299 137.506 113.145 136.655 112.837C135.805 112.511 135.099 111.996 134.538 111.29C133.995 110.566 133.579 109.625 133.289 108.467C133.018 107.309 132.882 105.889 132.882 104.206C132.882 102.469 133.018 100.994 133.289 99.7817C133.579 98.5693 134.004 97.6013 134.565 96.8775C135.126 96.1356 135.823 95.6018 136.655 95.2761C137.506 94.9504 138.501 94.7875 139.641 94.7875C140.817 94.7875 141.83 94.9504 142.681 95.2761C143.531 95.6018 144.228 96.1356 144.771 96.8775C145.332 97.6013 145.739 98.5693 145.992 99.7817C146.264 100.976 146.399 102.451 146.399 104.206C146.399 106.432 146.155 108.214 145.666 109.553C145.196 110.874 144.463 111.833 143.468 112.43C142.473 113.009 141.206 113.299 139.668 113.299ZM139.668 110.15C140.175 110.15 140.609 110.069 140.971 109.906C141.351 109.725 141.667 109.417 141.921 108.983C142.174 108.549 142.355 107.942 142.464 107.164C142.59 106.386 142.654 105.4 142.654 104.206C142.654 102.939 142.59 101.899 142.464 101.085C142.355 100.27 142.183 99.6369 141.948 99.1846C141.713 98.7141 141.405 98.3884 141.025 98.2074C140.645 98.0084 140.193 97.9089 139.668 97.9089C139.143 97.9089 138.691 98.0084 138.311 98.2074C137.931 98.3884 137.614 98.705 137.361 99.1574C137.126 99.6098 136.945 100.252 136.818 101.085C136.691 101.899 136.628 102.948 136.628 104.233C136.628 105.427 136.691 106.413 136.818 107.192C136.963 107.97 137.162 108.576 137.415 109.01C137.668 109.426 137.976 109.725 138.338 109.906C138.718 110.069 139.161 110.15 139.668 110.15ZM160.824 113.299C160.136 113.299 159.385 113.253 158.571 113.163C157.757 113.09 156.96 113 156.182 112.891C155.422 112.765 154.771 112.656 154.228 112.566L154.472 109.607C155.033 109.68 155.685 109.761 156.427 109.851C157.169 109.924 157.901 109.987 158.625 110.041C159.367 110.096 160.009 110.123 160.552 110.123C161.24 110.123 161.801 110.032 162.235 109.851C162.669 109.671 162.986 109.399 163.185 109.037C163.402 108.657 163.511 108.178 163.511 107.599C163.511 107.128 163.411 106.757 163.212 106.486C163.031 106.196 162.697 105.97 162.208 105.807C161.719 105.626 161.041 105.454 160.172 105.292C159.087 105.093 158.155 104.857 157.377 104.586C156.617 104.314 155.992 103.98 155.504 103.582C155.015 103.165 154.653 102.641 154.418 102.007C154.201 101.374 154.092 100.605 154.092 99.7003C154.092 98.2889 154.355 97.1851 154.88 96.3889C155.404 95.5746 156.155 94.9956 157.132 94.6518C158.109 94.308 159.258 94.1361 160.579 94.1361C161.177 94.1361 161.855 94.1723 162.615 94.2447C163.393 94.2989 164.153 94.3713 164.895 94.4618C165.655 94.5523 166.297 94.6518 166.822 94.7604L166.659 97.746C166.116 97.6736 165.483 97.6103 164.759 97.556C164.054 97.4836 163.348 97.4203 162.642 97.366C161.955 97.3117 161.367 97.2846 160.878 97.2846C160.208 97.2846 159.648 97.357 159.195 97.5017C158.743 97.6465 158.408 97.8727 158.191 98.1803C157.974 98.4879 157.865 98.8769 157.865 99.3474C157.865 99.8903 157.974 100.306 158.191 100.596C158.408 100.885 158.77 101.121 159.277 101.302C159.801 101.483 160.516 101.673 161.421 101.872C162.488 102.107 163.393 102.36 164.135 102.632C164.895 102.903 165.501 103.229 165.954 103.609C166.424 103.989 166.768 104.477 166.985 105.074C167.202 105.672 167.311 106.423 167.311 107.327C167.311 108.775 167.048 109.942 166.524 110.829C166.017 111.697 165.275 112.33 164.298 112.729C163.339 113.109 162.181 113.299 160.824 113.299ZM168.311 113L173.034 94.4618H179.575L184.271 113H180.525L179.494 109.254H173.007L172.029 113H168.311ZM173.604 106.242H178.951L176.861 97.5017H175.721L173.604 106.242ZM186.315 113V94.4618H193.562C195.045 94.4618 196.285 94.6518 197.28 95.0318C198.293 95.4118 199.044 96.0451 199.533 96.9317C200.04 97.8184 200.293 99.0217 200.293 100.542C200.293 101.881 200.049 103.012 199.56 103.934C199.09 104.839 198.366 105.509 197.389 105.943L200.293 113H196.357L193.914 106.784H190.06V113H186.315ZM190.06 103.717H193.643C194.331 103.717 194.883 103.591 195.299 103.337C195.715 103.066 196.013 102.695 196.194 102.224C196.375 101.736 196.466 101.184 196.466 100.569C196.466 99.5555 196.231 98.7955 195.76 98.2889C195.29 97.7822 194.557 97.5289 193.562 97.5289H190.06V103.717Z" fill="#161616"/>
<path d="M99.5671 194L101.876 185.56H103.989L106.285 194H105.308L104.709 191.863H101.143L100.544 194H99.5671ZM101.35 190.995H104.502L103.244 186.391H102.608L101.35 190.995ZM109.203 194.122C108.682 194.122 108.283 194.016 108.006 193.805C107.729 193.593 107.538 193.263 107.432 192.815C107.334 192.367 107.285 191.789 107.285 191.081V187.893H108.226V191.081C108.226 191.618 108.25 192.046 108.299 192.363C108.356 192.681 108.474 192.913 108.653 193.06C108.832 193.198 109.101 193.267 109.459 193.267C109.817 193.267 110.143 193.218 110.436 193.121C110.729 193.023 110.966 192.925 111.145 192.827V187.893H112.085V194H111.145V193.573C110.884 193.719 110.599 193.849 110.29 193.963C109.988 194.069 109.626 194.122 109.203 194.122ZM115.85 194.134C115.426 194.134 115.089 194.069 114.836 193.939C114.592 193.809 114.417 193.585 114.311 193.267C114.205 192.941 114.152 192.485 114.152 191.899V188.711H113.285V187.893H114.152V186.024H115.093V187.893H117.01V188.711H115.093V191.618C115.093 192.05 115.109 192.388 115.141 192.632C115.182 192.868 115.264 193.035 115.386 193.133C115.508 193.231 115.699 193.279 115.96 193.279C116.041 193.279 116.147 193.275 116.277 193.267C116.408 193.259 116.538 193.251 116.668 193.243C116.807 193.226 116.929 193.214 117.035 193.206L117.096 194C116.982 194.016 116.847 194.033 116.693 194.049C116.538 194.073 116.383 194.094 116.229 194.11C116.082 194.126 115.956 194.134 115.85 194.134ZM120.474 194.122C119.79 194.122 119.257 194.004 118.874 193.768C118.499 193.532 118.235 193.174 118.08 192.693C117.933 192.213 117.86 191.606 117.86 190.873C117.86 190.173 117.942 189.595 118.104 189.139C118.275 188.683 118.552 188.341 118.935 188.113C119.318 187.885 119.831 187.771 120.474 187.771C121.125 187.771 121.642 187.885 122.025 188.113C122.408 188.341 122.681 188.683 122.843 189.139C123.014 189.595 123.1 190.173 123.1 190.873C123.1 191.606 123.023 192.213 122.868 192.693C122.721 193.174 122.457 193.532 122.074 193.768C121.699 194.004 121.166 194.122 120.474 194.122ZM120.474 193.304C120.946 193.304 121.3 193.222 121.537 193.06C121.773 192.889 121.927 192.624 122.001 192.266C122.082 191.907 122.123 191.443 122.123 190.873C122.123 190.311 122.074 189.864 121.976 189.53C121.879 189.196 121.712 188.956 121.476 188.809C121.239 188.662 120.906 188.589 120.474 188.589C120.051 188.589 119.717 188.662 119.472 188.809C119.236 188.956 119.069 189.196 118.972 189.53C118.874 189.864 118.825 190.311 118.825 190.873C118.825 191.443 118.862 191.907 118.935 192.266C119.016 192.624 119.175 192.889 119.411 193.06C119.647 193.222 120.002 193.304 120.474 193.304ZM129.732 194.11C129.488 194.11 129.203 194.094 128.878 194.061C128.552 194.037 128.226 194.004 127.9 193.963C127.583 193.915 127.302 193.874 127.058 193.841L127.155 193.035C127.391 193.06 127.664 193.088 127.974 193.121C128.291 193.153 128.601 193.182 128.902 193.206C129.211 193.231 129.472 193.243 129.684 193.243C130.083 193.243 130.412 193.186 130.673 193.072C130.934 192.95 131.129 192.766 131.259 192.522C131.39 192.278 131.455 191.964 131.455 191.582C131.455 191.272 131.394 191.028 131.271 190.849C131.157 190.661 130.962 190.515 130.685 190.409C130.416 190.295 130.054 190.193 129.598 190.104C129.158 190.014 128.776 189.912 128.45 189.798C128.124 189.684 127.852 189.542 127.632 189.371C127.412 189.192 127.249 188.968 127.143 188.699C127.037 188.43 126.984 188.097 126.984 187.698C126.984 187.152 127.094 186.712 127.314 186.378C127.542 186.045 127.86 185.8 128.267 185.646C128.682 185.491 129.163 185.414 129.708 185.414C129.952 185.414 130.229 185.43 130.539 185.462C130.856 185.487 131.166 185.519 131.467 185.56C131.776 185.593 132.041 185.629 132.261 185.67L132.175 186.488C131.939 186.456 131.666 186.427 131.357 186.403C131.048 186.37 130.75 186.342 130.465 186.317C130.18 186.293 129.952 186.281 129.781 186.281C129.39 186.281 129.061 186.33 128.792 186.427C128.523 186.525 128.32 186.676 128.181 186.879C128.043 187.075 127.974 187.327 127.974 187.636C127.974 187.995 128.039 188.268 128.169 188.455C128.308 188.642 128.527 188.789 128.829 188.895C129.13 189 129.525 189.11 130.013 189.224C130.437 189.322 130.799 189.428 131.1 189.542C131.41 189.656 131.662 189.798 131.858 189.969C132.061 190.132 132.208 190.34 132.297 190.592C132.395 190.837 132.444 191.142 132.444 191.508C132.444 192.127 132.334 192.628 132.114 193.011C131.894 193.393 131.581 193.674 131.174 193.853C130.767 194.024 130.286 194.11 129.732 194.11ZM135.229 194.122C134.667 194.122 134.239 193.963 133.946 193.646C133.653 193.328 133.507 192.864 133.507 192.253C133.507 191.854 133.576 191.529 133.714 191.276C133.853 191.024 134.06 190.832 134.337 190.702C134.622 190.564 134.972 190.478 135.387 190.446L137.268 190.263V189.737C137.268 189.322 137.175 189.029 136.988 188.858C136.808 188.687 136.54 188.601 136.181 188.601C135.978 188.601 135.734 188.61 135.449 188.626C135.172 188.642 134.895 188.662 134.618 188.687C134.341 188.711 134.097 188.736 133.885 188.76L133.836 188.04C134.032 187.999 134.268 187.958 134.545 187.917C134.822 187.877 135.111 187.844 135.412 187.82C135.713 187.787 135.99 187.771 136.242 187.771C136.707 187.771 137.085 187.844 137.378 187.991C137.672 188.129 137.883 188.345 138.014 188.638C138.152 188.923 138.221 189.289 138.221 189.737V192.827C138.237 193.007 138.307 193.137 138.429 193.218C138.559 193.3 138.722 193.353 138.917 193.377L138.881 194.122C138.767 194.122 138.657 194.118 138.551 194.11C138.445 194.102 138.343 194.085 138.246 194.061C138.156 194.045 138.066 194.024 137.977 194C137.871 193.959 137.769 193.91 137.672 193.853C137.582 193.796 137.492 193.727 137.403 193.646C137.248 193.711 137.049 193.78 136.804 193.853C136.568 193.927 136.312 193.988 136.035 194.037C135.766 194.094 135.497 194.122 135.229 194.122ZM135.387 193.328C135.607 193.328 135.835 193.308 136.071 193.267C136.308 193.226 136.532 193.178 136.743 193.121C136.955 193.064 137.13 193.011 137.268 192.962V190.971L135.497 191.142C135.131 191.174 134.866 191.28 134.704 191.459C134.549 191.639 134.471 191.895 134.471 192.229C134.471 192.571 134.549 192.84 134.704 193.035C134.858 193.231 135.086 193.328 135.387 193.328ZM140.102 194V185.243H141.042V194H140.102ZM144.21 194.122C143.648 194.122 143.221 193.963 142.928 193.646C142.635 193.328 142.488 192.864 142.488 192.253C142.488 191.854 142.557 191.529 142.696 191.276C142.834 191.024 143.042 190.832 143.319 190.702C143.604 190.564 143.954 190.478 144.369 190.446L146.25 190.263V189.737C146.25 189.322 146.156 189.029 145.969 188.858C145.79 188.687 145.521 188.601 145.163 188.601C144.959 188.601 144.715 188.61 144.43 188.626C144.153 188.642 143.876 188.662 143.6 188.687C143.323 188.711 143.078 188.736 142.867 188.76L142.818 188.04C143.013 187.999 143.249 187.958 143.526 187.917C143.803 187.877 144.092 187.844 144.394 187.82C144.695 187.787 144.972 187.771 145.224 187.771C145.688 187.771 146.067 187.844 146.36 187.991C146.653 188.129 146.865 188.345 146.995 188.638C147.134 188.923 147.203 189.289 147.203 189.737V192.827C147.219 193.007 147.288 193.137 147.41 193.218C147.541 193.3 147.704 193.353 147.899 193.377L147.862 194.122C147.748 194.122 147.638 194.118 147.533 194.11C147.427 194.102 147.325 194.085 147.227 194.061C147.138 194.045 147.048 194.024 146.958 194C146.853 193.959 146.751 193.91 146.653 193.853C146.564 193.796 146.474 193.727 146.384 193.646C146.23 193.711 146.03 193.78 145.786 193.853C145.55 193.927 145.293 193.988 145.016 194.037C144.748 194.094 144.479 194.122 144.21 194.122ZM144.369 193.328C144.589 193.328 144.817 193.308 145.053 193.267C145.289 193.226 145.513 193.178 145.725 193.121C145.937 193.064 146.112 193.011 146.25 192.962V190.971L144.479 191.142C144.113 191.174 143.848 191.28 143.685 191.459C143.53 191.639 143.453 191.895 143.453 192.229C143.453 192.571 143.53 192.84 143.685 193.035C143.84 193.231 144.068 193.328 144.369 193.328ZM149.01 194V187.893H149.95V188.711C150.105 188.605 150.3 188.491 150.537 188.369C150.773 188.239 151.033 188.117 151.318 188.003C151.603 187.889 151.888 187.807 152.173 187.759V188.724C151.896 188.781 151.616 188.858 151.331 188.956C151.046 189.045 150.781 189.143 150.537 189.249C150.3 189.355 150.105 189.448 149.95 189.53V194H149.01ZM154.515 196.699L155.308 194H154.392L152.67 187.893H153.623L155.113 193.182H155.528L157.031 187.893H157.983L155.467 196.699H154.515ZM161.991 194V185.56H165.081C165.7 185.56 166.209 185.662 166.608 185.865C167.007 186.061 167.304 186.362 167.499 186.769C167.695 187.168 167.792 187.677 167.792 188.296C167.792 188.907 167.695 189.428 167.499 189.859C167.304 190.283 167.007 190.609 166.608 190.837C166.209 191.056 165.7 191.166 165.081 191.166H162.968V194H161.991ZM162.968 190.311H165.081C165.683 190.311 166.119 190.136 166.388 189.786C166.657 189.436 166.791 188.939 166.791 188.296C166.791 187.645 166.657 187.168 166.388 186.867C166.119 186.566 165.683 186.415 165.081 186.415H162.968V190.311ZM170.284 194.122C169.723 194.122 169.295 193.963 169.002 193.646C168.709 193.328 168.562 192.864 168.562 192.253C168.562 191.854 168.631 191.529 168.77 191.276C168.908 191.024 169.116 190.832 169.393 190.702C169.678 190.564 170.028 190.478 170.443 190.446L172.324 190.263V189.737C172.324 189.322 172.231 189.029 172.043 188.858C171.864 188.687 171.595 188.601 171.237 188.601C171.034 188.601 170.789 188.61 170.504 188.626C170.227 188.642 169.951 188.662 169.674 188.687C169.397 188.711 169.153 188.736 168.941 188.76L168.892 188.04C169.087 187.999 169.324 187.958 169.6 187.917C169.877 187.877 170.166 187.844 170.468 187.82C170.769 187.787 171.046 187.771 171.298 187.771C171.762 187.771 172.141 187.844 172.434 187.991C172.727 188.129 172.939 188.345 173.069 188.638C173.208 188.923 173.277 189.289 173.277 189.737V192.827C173.293 193.007 173.362 193.137 173.485 193.218C173.615 193.3 173.778 193.353 173.973 193.377L173.936 194.122C173.822 194.122 173.713 194.118 173.607 194.11C173.501 194.102 173.399 194.085 173.301 194.061C173.212 194.045 173.122 194.024 173.033 194C172.927 193.959 172.825 193.91 172.727 193.853C172.638 193.796 172.548 193.727 172.459 193.646C172.304 193.711 172.104 193.78 171.86 193.853C171.624 193.927 171.367 193.988 171.091 194.037C170.822 194.094 170.553 194.122 170.284 194.122ZM170.443 193.328C170.663 193.328 170.891 193.308 171.127 193.267C171.363 193.226 171.587 193.178 171.799 193.121C172.011 193.064 172.186 193.011 172.324 192.962V190.971L170.553 191.142C170.187 191.174 169.922 191.28 169.759 191.459C169.605 191.639 169.527 191.895 169.527 192.229C169.527 192.571 169.605 192.84 169.759 193.035C169.914 193.231 170.142 193.328 170.443 193.328ZM176.199 196.699L176.993 194H176.077L174.355 187.893H175.308L176.798 193.182H177.213L178.715 187.893H179.668L177.152 196.699H176.199ZM180.845 194V187.893H181.786V188.32C181.916 188.239 182.079 188.158 182.274 188.076C182.47 187.995 182.677 187.926 182.897 187.869C183.125 187.803 183.341 187.771 183.544 187.771C183.952 187.771 184.277 187.82 184.522 187.917C184.774 188.015 184.978 188.174 185.132 188.394C185.295 188.304 185.495 188.211 185.731 188.113C185.967 188.015 186.219 187.934 186.488 187.869C186.765 187.803 187.034 187.771 187.294 187.771C187.709 187.771 188.051 187.824 188.32 187.93C188.589 188.035 188.796 188.206 188.943 188.443C189.098 188.679 189.204 188.988 189.261 189.371C189.326 189.745 189.358 190.21 189.358 190.763V194H188.418V190.8C188.418 190.271 188.385 189.847 188.32 189.53C188.263 189.212 188.145 188.984 187.966 188.846C187.787 188.699 187.514 188.626 187.148 188.626C186.936 188.626 186.72 188.65 186.5 188.699C186.289 188.74 186.089 188.797 185.902 188.87C185.723 188.935 185.576 189 185.462 189.066C185.519 189.277 185.556 189.542 185.572 189.859C185.596 190.169 185.609 190.49 185.609 190.824V194H184.668V190.849C184.668 190.295 184.64 189.859 184.583 189.542C184.526 189.216 184.403 188.984 184.216 188.846C184.037 188.699 183.764 188.626 183.398 188.626C183.194 188.626 182.987 188.65 182.775 188.699C182.571 188.74 182.384 188.797 182.213 188.87C182.042 188.935 181.9 189 181.786 189.066V194H180.845ZM193.217 194.122C192.606 194.122 192.122 194.004 191.764 193.768C191.414 193.532 191.161 193.182 191.006 192.718C190.852 192.253 190.774 191.675 190.774 190.983C190.774 190.21 190.88 189.591 191.092 189.127C191.304 188.654 191.601 188.312 191.984 188.101C192.366 187.881 192.818 187.771 193.339 187.771C194.154 187.771 194.768 187.999 195.184 188.455C195.599 188.903 195.807 189.627 195.807 190.629L195.758 191.35H191.739C191.747 191.985 191.865 192.465 192.093 192.791C192.321 193.117 192.733 193.279 193.327 193.279C193.555 193.279 193.803 193.275 194.072 193.267C194.349 193.251 194.622 193.235 194.891 193.218C195.159 193.202 195.387 193.186 195.574 193.169L195.599 193.915C195.404 193.947 195.163 193.98 194.878 194.012C194.601 194.045 194.316 194.069 194.023 194.085C193.73 194.11 193.461 194.122 193.217 194.122ZM191.739 190.58H194.854C194.854 189.831 194.732 189.31 194.487 189.017C194.251 188.715 193.869 188.565 193.339 188.565C192.997 188.565 192.708 188.634 192.472 188.772C192.236 188.903 192.053 189.114 191.922 189.408C191.8 189.701 191.739 190.092 191.739 190.58ZM197.222 194V187.893H198.162V188.32C198.301 188.239 198.472 188.158 198.675 188.076C198.887 187.995 199.111 187.926 199.347 187.869C199.583 187.803 199.811 187.771 200.031 187.771C200.455 187.771 200.801 187.828 201.069 187.942C201.338 188.048 201.546 188.223 201.692 188.467C201.847 188.703 201.953 189.013 202.01 189.395C202.075 189.77 202.108 190.226 202.108 190.763V194H201.155V190.8C201.155 190.271 201.122 189.847 201.057 189.53C201 189.212 200.878 188.984 200.691 188.846C200.512 188.699 200.235 188.626 199.86 188.626C199.657 188.626 199.445 188.65 199.225 188.699C199.013 188.74 198.814 188.797 198.627 188.87C198.439 188.935 198.285 189 198.162 189.066V194H197.222ZM205.761 194.134C205.338 194.134 205 194.069 204.748 193.939C204.503 193.809 204.328 193.585 204.223 193.267C204.117 192.941 204.064 192.485 204.064 191.899V188.711H203.197V187.893H204.064V186.024H205.004V187.893H206.922V188.711H205.004V191.618C205.004 192.05 205.021 192.388 205.053 192.632C205.094 192.868 205.175 193.035 205.297 193.133C205.42 193.231 205.611 193.279 205.871 193.279C205.953 193.279 206.059 193.275 206.189 193.267C206.319 193.259 206.45 193.251 206.58 193.243C206.718 193.226 206.84 193.214 206.946 193.206L207.007 194C206.893 194.016 206.759 194.033 206.604 194.049C206.45 194.073 206.295 194.094 206.14 194.11C205.994 194.126 205.867 194.134 205.761 194.134Z" fill="black"/>
<path d="M73.8069 190L78.3903 194.583L87.5569 185.417" stroke="#009562" stroke-width="2.66667" stroke-linecap="round" stroke-linejoin="round"/>
<defs>
<linearGradient id="paint0_linear_1_14643" x1="141.224" y1="106.847" x2="141.224" y2="192.999" gradientUnits="userSpaceOnUse">
<stop stop-color="#E8ECEF"/>
<stop offset="1" stop-color="#E8ECEF" stop-opacity="0"/>
</linearGradient>
<linearGradient id="paint1_linear_1_14643" x1="1.22363" y1="136.818" x2="76.4693" y2="134.457" gradientUnits="userSpaceOnUse">
<stop stop-color="white"/>
<stop offset="1" stop-color="white" stop-opacity="0"/>
</linearGradient>
<linearGradient id="paint2_linear_1_14643" x1="281.224" y1="136.818" x2="205.978" y2="134.457" gradientUnits="userSpaceOnUse">
<stop stop-color="white"/>
<stop offset="1" stop-color="white" stop-opacity="0"/>
</linearGradient>
</defs>
</svg>
