<svg width="282" height="282" viewBox="0 0 282 282" fill="none" xmlns="http://www.w3.org/2000/svg">
<rect x="0.54834" y="0.814453" width="280.775" height="280.775" rx="35.7126" fill="white"/>
<path d="M62.028 255.915V237.572H68.7174C69.9208 237.572 70.9206 237.731 71.717 238.05C72.531 238.368 73.1416 238.873 73.5486 239.563C73.9733 240.253 74.1857 241.147 74.1857 242.244C74.1857 243.022 74.0884 243.686 73.8937 244.235C73.7167 244.766 73.4601 245.208 73.1239 245.562C72.7877 245.916 72.3718 246.217 71.8763 246.465C72.4072 246.641 72.885 246.898 73.3097 247.234C73.7521 247.571 74.0972 248.022 74.345 248.588C74.6104 249.154 74.7431 249.88 74.7431 250.765C74.7431 251.72 74.6104 252.534 74.345 253.207C74.0795 253.862 73.6902 254.393 73.177 254.8C72.6815 255.189 72.0798 255.472 71.3719 255.649C70.6817 255.826 69.9031 255.915 69.0359 255.915H62.028ZM64.1517 254.056H68.9563C69.6996 254.056 70.3367 253.959 70.8676 253.764C71.4162 253.57 71.8409 253.233 72.1417 252.756C72.4426 252.26 72.593 251.57 72.593 250.685C72.593 249.995 72.4603 249.438 72.1948 249.013C71.9471 248.588 71.6285 248.27 71.2392 248.057C70.8499 247.845 70.4428 247.703 70.0181 247.632C69.5934 247.562 69.2041 247.526 68.8501 247.526H64.1517V254.056ZM64.1517 245.668H68.8236C69.5845 245.668 70.1951 245.553 70.6552 245.323C71.133 245.075 71.4781 244.713 71.6905 244.235C71.9205 243.757 72.0355 243.155 72.0355 242.43C72.0355 241.386 71.7524 240.625 71.1861 240.147C70.6375 239.669 69.7881 239.43 68.6378 239.43H64.1517V245.668ZM78.0409 255.915V242.642H80.0849V255.915H78.0409ZM78.0409 239.722V237.333H80.0849V239.722H78.0409ZM84.0588 255.915V236.882H86.1028V255.915H84.0588ZM90.2544 255.915V236.882H92.2983V255.915H90.2544ZM102.442 255.915V237.572H109.264C110.556 237.572 111.635 237.767 112.502 238.156C113.387 238.545 114.051 239.156 114.493 239.988C114.936 240.802 115.157 241.855 115.157 243.146C115.157 244.491 114.883 245.624 114.334 246.544C113.803 247.464 112.963 248.11 111.812 248.482L115.316 255.915H112.954L109.715 248.933H104.565V255.915H102.442ZM104.565 247.075H109.291C110.193 247.075 110.91 246.907 111.441 246.571C111.989 246.234 112.379 245.774 112.609 245.19C112.839 244.589 112.954 243.916 112.954 243.173C112.954 241.916 112.653 240.979 112.051 240.359C111.45 239.74 110.52 239.43 109.264 239.43H104.565V247.075ZM123.05 256.18C121.722 256.18 120.669 255.923 119.891 255.41C119.13 254.897 118.581 254.136 118.245 253.127C117.909 252.119 117.741 250.862 117.741 249.358C117.741 247.677 117.971 246.332 118.431 245.323C118.891 244.297 119.537 243.553 120.369 243.093C121.2 242.615 122.182 242.377 123.315 242.377C125.085 242.377 126.421 242.872 127.323 243.863C128.226 244.836 128.677 246.411 128.677 248.588L128.571 250.154H119.838C119.855 251.535 120.112 252.579 120.607 253.287C121.103 253.994 121.997 254.348 123.288 254.348C123.784 254.348 124.324 254.34 124.908 254.322C125.509 254.286 126.102 254.251 126.686 254.216C127.27 254.18 127.766 254.145 128.173 254.109L128.226 255.729C127.801 255.8 127.279 255.87 126.66 255.941C126.058 256.012 125.439 256.065 124.802 256.1C124.164 256.153 123.58 256.18 123.05 256.18ZM119.838 248.482H126.607C126.607 246.854 126.341 245.721 125.81 245.084C125.297 244.429 124.465 244.102 123.315 244.102C122.572 244.102 121.944 244.252 121.43 244.553C120.917 244.836 120.519 245.297 120.236 245.934C119.97 246.571 119.838 247.42 119.838 248.482ZM131.753 255.915V242.642H133.797V243.571C134.08 243.394 134.434 243.217 134.859 243.04C135.284 242.863 135.735 242.713 136.213 242.589C136.708 242.447 137.177 242.377 137.62 242.377C138.505 242.377 139.212 242.483 139.743 242.695C140.292 242.907 140.734 243.253 141.071 243.73C141.424 243.536 141.858 243.332 142.371 243.12C142.884 242.907 143.433 242.73 144.017 242.589C144.619 242.447 145.203 242.377 145.769 242.377C146.672 242.377 147.415 242.492 147.999 242.722C148.583 242.952 149.034 243.323 149.353 243.837C149.689 244.35 149.919 245.022 150.043 245.854C150.184 246.668 150.255 247.677 150.255 248.88V255.915H148.211V248.96C148.211 247.809 148.14 246.889 147.999 246.199C147.875 245.509 147.618 245.013 147.229 244.713C146.84 244.394 146.247 244.235 145.45 244.235C144.99 244.235 144.521 244.288 144.044 244.394C143.583 244.482 143.15 244.606 142.743 244.766C142.354 244.907 142.035 245.049 141.787 245.19C141.911 245.65 141.991 246.226 142.026 246.916C142.079 247.588 142.106 248.287 142.106 249.013V255.915H140.062V249.066C140.062 247.863 140 246.916 139.876 246.226C139.752 245.518 139.487 245.013 139.08 244.713C138.69 244.394 138.098 244.235 137.301 244.235C136.859 244.235 136.407 244.288 135.947 244.394C135.505 244.482 135.098 244.606 134.726 244.766C134.355 244.907 134.045 245.049 133.797 245.19V255.915H131.753ZM153.943 255.915V242.642H155.987V255.915H153.943ZM153.943 239.722V237.333H155.987V239.722H153.943ZM159.802 255.915V242.642H161.846V243.571C162.147 243.394 162.518 243.217 162.961 243.04C163.421 242.863 163.907 242.713 164.421 242.589C164.934 242.447 165.429 242.377 165.907 242.377C166.827 242.377 167.58 242.5 168.164 242.748C168.748 242.978 169.199 243.359 169.517 243.89C169.854 244.403 170.084 245.075 170.208 245.907C170.349 246.721 170.42 247.712 170.42 248.88V255.915H168.349V248.96C168.349 247.809 168.279 246.889 168.137 246.199C168.013 245.509 167.748 245.013 167.341 244.713C166.951 244.394 166.35 244.235 165.536 244.235C165.093 244.235 164.633 244.288 164.155 244.394C163.695 244.482 163.262 244.606 162.855 244.766C162.447 244.907 162.111 245.049 161.846 245.19V255.915H159.802ZM178.279 256.18C177.749 256.18 177.244 256.118 176.766 255.994C176.289 255.888 175.846 255.693 175.439 255.41C175.05 255.127 174.705 254.738 174.404 254.242C174.103 253.729 173.873 253.074 173.714 252.278C173.554 251.482 173.475 250.517 173.475 249.384C173.475 247.809 173.661 246.509 174.032 245.482C174.404 244.438 174.997 243.66 175.811 243.146C176.625 242.633 177.704 242.377 179.049 242.377C179.386 242.377 179.757 242.394 180.164 242.43C180.571 242.465 180.961 242.509 181.332 242.562C181.722 242.615 182.031 242.669 182.261 242.722V236.882H184.332V255.915H182.288V255.039C182.005 255.198 181.633 255.366 181.173 255.543C180.73 255.72 180.253 255.87 179.739 255.994C179.244 256.118 178.757 256.18 178.279 256.18ZM178.545 254.322C179.005 254.322 179.465 254.269 179.925 254.163C180.403 254.056 180.846 253.933 181.253 253.791C181.66 253.632 181.996 253.49 182.261 253.366V244.474C182.049 244.438 181.757 244.403 181.385 244.367C181.014 244.314 180.624 244.27 180.217 244.235C179.828 244.199 179.474 244.182 179.155 244.182C178.253 244.182 177.545 244.376 177.032 244.766C176.519 245.155 176.147 245.739 175.917 246.518C175.705 247.279 175.598 248.234 175.598 249.384C175.598 250.446 175.678 251.305 175.837 251.959C175.997 252.596 176.209 253.092 176.474 253.446C176.758 253.782 177.076 254.012 177.43 254.136C177.784 254.26 178.156 254.322 178.545 254.322ZM192.86 256.18C191.533 256.18 190.48 255.923 189.701 255.41C188.94 254.897 188.392 254.136 188.055 253.127C187.719 252.119 187.551 250.862 187.551 249.358C187.551 247.677 187.781 246.332 188.241 245.323C188.701 244.297 189.347 243.553 190.179 243.093C191.011 242.615 191.993 242.377 193.125 242.377C194.895 242.377 196.231 242.872 197.134 243.863C198.036 244.836 198.488 246.411 198.488 248.588L198.381 250.154H189.648C189.666 251.535 189.922 252.579 190.418 253.287C190.913 253.994 191.807 254.348 193.099 254.348C193.594 254.348 194.134 254.34 194.718 254.322C195.32 254.286 195.913 254.251 196.497 254.216C197.081 254.18 197.576 254.145 197.983 254.109L198.036 255.729C197.612 255.8 197.09 255.87 196.47 255.941C195.868 256.012 195.249 256.065 194.612 256.1C193.975 256.153 193.391 256.18 192.86 256.18ZM189.648 248.482H196.417C196.417 246.854 196.152 245.721 195.621 245.084C195.107 244.429 194.276 244.102 193.125 244.102C192.382 244.102 191.754 244.252 191.241 244.553C190.728 244.836 190.329 245.297 190.046 245.934C189.781 246.571 189.648 247.42 189.648 248.482ZM201.564 255.915V242.642H203.608V244.421C203.944 244.19 204.369 243.943 204.882 243.677C205.395 243.394 205.961 243.129 206.581 242.881C207.2 242.633 207.819 242.456 208.439 242.35V244.447C207.837 244.571 207.227 244.739 206.607 244.951C205.988 245.146 205.413 245.358 204.882 245.589C204.369 245.819 203.944 246.022 203.608 246.199V255.915H201.564ZM214.907 256.18C214.5 256.18 214.005 256.153 213.421 256.1C212.855 256.047 212.288 255.985 211.722 255.915C211.156 255.826 210.651 255.746 210.209 255.676L210.315 253.897C210.757 253.95 211.253 254.012 211.802 254.083C212.368 254.154 212.916 254.216 213.447 254.269C213.978 254.304 214.403 254.322 214.722 254.322C215.447 254.322 216.049 254.26 216.527 254.136C217.004 253.994 217.367 253.764 217.615 253.446C217.863 253.127 217.987 252.676 217.987 252.092C217.987 251.65 217.889 251.305 217.695 251.057C217.518 250.809 217.173 250.606 216.659 250.446C216.164 250.287 215.438 250.137 214.483 249.995C213.492 249.836 212.66 249.641 211.987 249.411C211.333 249.163 210.846 248.8 210.527 248.323C210.209 247.845 210.05 247.164 210.05 246.279C210.05 245.288 210.28 244.509 210.74 243.943C211.2 243.376 211.793 242.978 212.518 242.748C213.262 242.5 214.031 242.377 214.828 242.377C215.323 242.377 215.863 242.403 216.447 242.456C217.049 242.509 217.633 242.58 218.199 242.669C218.765 242.739 219.252 242.81 219.659 242.881L219.606 244.659C219.181 244.589 218.686 244.527 218.119 244.474C217.553 244.403 216.987 244.35 216.42 244.314C215.854 244.261 215.359 244.235 214.934 244.235C214.403 244.235 213.925 244.297 213.5 244.421C213.076 244.527 212.739 244.721 212.492 245.005C212.244 245.288 212.12 245.686 212.12 246.199C212.12 246.588 212.209 246.907 212.386 247.155C212.563 247.385 212.899 247.579 213.394 247.739C213.89 247.898 214.606 248.057 215.544 248.216C216.642 248.393 217.518 248.615 218.172 248.88C218.845 249.146 219.332 249.517 219.632 249.995C219.933 250.473 220.084 251.145 220.084 252.012C220.084 253.039 219.871 253.862 219.447 254.481C219.04 255.083 218.447 255.516 217.668 255.782C216.907 256.047 215.987 256.18 214.907 256.18Z" fill="#111111"/>
<path d="M19.8228 110.998C19.8228 105.751 24.076 101.498 29.3228 101.498H252.323C257.569 101.498 261.823 105.751 261.823 110.998V153.998C261.823 159.245 257.569 163.498 252.323 163.498H29.3227C24.076 163.498 19.8228 159.245 19.8228 153.998V110.998Z" fill="url(#paint0_linear_1_13642)" fill-opacity="0.31" stroke="url(#paint1_linear_1_13642)"/>
<circle cx="50.3228" cy="132.998" r="20" fill="white"/>
<path d="M40.0866 142.805C42.8887 145.679 46.1949 147.715 49.7146 148.92L50.9538 147.649C48.6285 146.793 46.4453 145.412 44.5813 143.5C41.368 140.203 39.6893 135.932 39.537 131.615L35.3228 135.936C36.4936 138.418 38.0786 140.745 40.0866 142.805Z" fill="#CE0E2D"/>
<path d="M59.5022 144.109C62.3032 141.235 64.2871 137.841 65.4632 134.231L64.223 132.96C63.3892 135.346 62.0427 137.587 60.1795 139.498C56.9655 142.795 52.8032 144.517 48.595 144.673L52.8081 148.997C55.2268 147.796 57.494 146.17 59.5022 144.109Z" fill="#F5B335"/>
<path d="M60.7731 124.189C57.9712 121.315 54.6637 119.28 51.145 118.074L49.9058 119.346C52.2312 120.201 54.4145 121.582 56.2783 123.495C59.4918 126.791 61.1705 131.062 61.3227 135.38L65.5368 131.057C64.3657 128.577 62.7812 126.25 60.7731 124.189Z" fill="#CE0E2D"/>
<path d="M41.3584 122.885C38.5565 125.76 36.5733 129.153 35.3975 132.764L36.6376 134.036C37.4716 131.649 38.8179 129.409 40.6809 127.497C43.8944 124.2 48.0574 122.478 52.2656 122.322L48.0525 117.998C45.634 119.201 43.3667 120.826 41.3584 122.885Z" fill="#F5B335"/>
<path d="M79.1161 72.998V63.6554H81.1878L84.6405 71.793H84.8977V63.6554H86.0892V72.998H84.0582L80.5649 64.847H80.3077V72.998H79.1161ZM90.5148 73.1334C89.8288 73.1334 89.2872 73.0026 88.89 72.7408C88.4928 72.479 88.204 72.0909 88.0234 71.5763C87.8519 71.0618 87.7662 70.4209 87.7662 69.6537C87.7662 68.8052 87.8835 68.1191 88.1182 67.5956C88.3529 67.072 88.6824 66.6929 89.1066 66.4582C89.5399 66.2145 90.0544 66.0926 90.6502 66.0926C91.5709 66.0926 92.2615 66.3454 92.7218 66.8509C93.1912 67.3474 93.4259 68.1462 93.4259 69.2475L93.3717 70.0869H88.9442C88.9532 70.7549 89.0796 71.2649 89.3233 71.617C89.567 71.96 90.0093 72.1315 90.6502 72.1315C90.9029 72.1315 91.1828 72.127 91.4897 72.1179C91.7966 72.0999 92.099 72.0818 92.3969 72.0638C92.7038 72.0457 92.961 72.0277 93.1686 72.0096L93.1957 72.9033C92.9791 72.9394 92.7128 72.9755 92.3969 73.0116C92.0809 73.0477 91.756 73.0748 91.422 73.0928C91.097 73.1199 90.7946 73.1334 90.5148 73.1334ZM88.9442 69.1798H92.2615C92.2615 68.3854 92.1351 67.8303 91.8823 67.5143C91.6296 67.1894 91.2189 67.0269 90.6502 67.0269C90.2801 67.0269 89.9687 67.0991 89.7159 67.2435C89.4722 67.388 89.2827 67.6182 89.1473 67.9341C89.0119 68.25 88.9442 68.6652 88.9442 69.1798ZM96.0794 72.998L94.2244 66.228H95.4701L96.9595 72.0096H97.447L98.9905 66.228H100.182L98.3271 72.998H96.0794ZM103.764 73.1334C103.078 73.1334 102.536 73.0026 102.139 72.7408C101.742 72.479 101.453 72.0909 101.273 71.5763C101.101 71.0618 101.015 70.4209 101.015 69.6537C101.015 68.8052 101.133 68.1191 101.367 67.5956C101.602 67.072 101.931 66.6929 102.356 66.4582C102.789 66.2145 103.304 66.0926 103.899 66.0926C104.82 66.0926 105.511 66.3454 105.971 66.8509C106.44 67.3474 106.675 68.1462 106.675 69.2475L106.621 70.0869H102.193C102.202 70.7549 102.329 71.2649 102.572 71.617C102.816 71.96 103.258 72.1315 103.899 72.1315C104.152 72.1315 104.432 72.127 104.739 72.1179C105.046 72.0999 105.348 72.0818 105.646 72.0638C105.953 72.0457 106.21 72.0277 106.418 72.0096L106.445 72.9033C106.228 72.9394 105.962 72.9755 105.646 73.0116C105.33 73.0477 105.005 73.0748 104.671 73.0928C104.346 73.1199 104.044 73.1334 103.764 73.1334ZM102.193 69.1798H105.511C105.511 68.3854 105.384 67.8303 105.131 67.5143C104.879 67.1894 104.468 67.0269 103.899 67.0269C103.529 67.0269 103.218 67.0991 102.965 67.2435C102.721 67.388 102.532 67.6182 102.396 67.9341C102.261 68.25 102.193 68.6652 102.193 69.1798ZM108.189 72.998V66.228H109.327V67.1217C109.498 67.0043 109.71 66.878 109.963 66.7426C110.225 66.5981 110.509 66.4627 110.816 66.3364C111.123 66.21 111.43 66.1242 111.737 66.0791V67.23C111.439 67.2932 111.136 67.3744 110.83 67.4737C110.523 67.573 110.238 67.6813 109.977 67.7987C109.715 67.916 109.498 68.0198 109.327 68.1101V72.998H108.189ZM115.872 72.998V66.228H117.009V66.6884C117.153 66.5981 117.334 66.5079 117.551 66.4176C117.767 66.3273 117.997 66.2506 118.241 66.1874C118.485 66.1242 118.72 66.0926 118.945 66.0926C119.397 66.0926 119.758 66.1468 120.028 66.2551C120.299 66.3634 120.52 66.535 120.692 66.7696C120.872 66.6704 121.094 66.5711 121.355 66.4718C121.617 66.3634 121.897 66.2732 122.195 66.201C122.493 66.1288 122.786 66.0926 123.075 66.0926C123.535 66.0926 123.914 66.1513 124.212 66.2687C124.519 66.386 124.754 66.5756 124.916 66.8373C125.088 67.0991 125.21 67.4421 125.282 67.8664C125.354 68.2906 125.39 68.8097 125.39 69.4235V72.998H124.239V69.4776C124.239 68.909 124.203 68.4531 124.131 68.1101C124.068 67.7581 123.941 67.5053 123.752 67.3519C123.562 67.1984 123.273 67.1217 122.885 67.1217C122.66 67.1217 122.43 67.1488 122.195 67.2029C121.969 67.2481 121.757 67.3067 121.558 67.3789C121.36 67.4512 121.202 67.5189 121.085 67.582C121.139 67.8167 121.175 68.1056 121.193 68.4486C121.22 68.7826 121.233 69.1301 121.233 69.4912V72.998H120.096V69.5318C120.096 68.936 120.065 68.4621 120.001 68.1101C119.938 67.7581 119.807 67.5053 119.609 67.3519C119.419 67.1984 119.126 67.1217 118.729 67.1217C118.512 67.1217 118.291 67.1488 118.065 67.2029C117.848 67.2481 117.65 67.3067 117.469 67.3789C117.289 67.4512 117.135 67.5189 117.009 67.582V72.998H115.872ZM127.203 72.998V66.228H128.341V72.998H127.203ZM127.203 64.7928V63.5336H128.341V64.7928H127.203ZM132.384 73.1334C132.168 73.1334 131.906 73.1199 131.599 73.0928C131.301 73.0657 131.008 73.0342 130.719 72.998C130.43 72.9529 130.173 72.9123 129.947 72.8762L130.015 71.9013C130.24 71.9284 130.493 71.96 130.773 71.9961C131.062 72.0322 131.342 72.0638 131.613 72.0909C131.883 72.1089 132.104 72.1179 132.276 72.1179C132.628 72.1179 132.921 72.0864 133.156 72.0232C133.391 71.96 133.567 71.8517 133.684 71.6982C133.811 71.5448 133.874 71.3236 133.874 71.0347C133.874 70.8181 133.824 70.6511 133.725 70.5338C133.634 70.4164 133.463 70.3171 133.21 70.2359C132.967 70.1546 132.605 70.0824 132.127 70.0192C131.622 69.938 131.197 69.8342 130.854 69.7078C130.52 69.5815 130.272 69.3964 130.11 69.1527C129.956 68.909 129.879 68.5614 129.879 68.1101C129.879 67.5956 129.997 67.1939 130.231 66.905C130.466 66.6072 130.773 66.3996 131.152 66.2822C131.531 66.1558 131.928 66.0926 132.344 66.0926C132.605 66.0926 132.89 66.1062 133.197 66.1333C133.504 66.1603 133.801 66.1965 134.09 66.2416C134.379 66.2777 134.627 66.3138 134.835 66.3499L134.808 67.3248C134.591 67.2887 134.334 67.2571 134.036 67.23C133.747 67.1939 133.458 67.1668 133.17 67.1488C132.881 67.1217 132.628 67.1081 132.411 67.1081C132.15 67.1081 131.915 67.1352 131.707 67.1894C131.5 67.2435 131.333 67.3428 131.206 67.4873C131.089 67.6227 131.03 67.8122 131.03 68.0559C131.03 68.2455 131.075 68.399 131.166 68.5163C131.256 68.6337 131.423 68.7329 131.667 68.8142C131.91 68.8864 132.267 68.9631 132.736 69.0444C133.296 69.1346 133.743 69.2475 134.077 69.3829C134.42 69.5183 134.668 69.7123 134.821 69.9651C134.975 70.2088 135.052 70.5518 135.052 70.9941C135.052 71.5177 134.943 71.9374 134.727 72.2533C134.51 72.5693 134.203 72.7949 133.806 72.9303C133.418 73.0657 132.944 73.1334 132.384 73.1334ZM138.705 73.1334C138.488 73.1334 138.226 73.1199 137.919 73.0928C137.622 73.0657 137.328 73.0342 137.039 72.998C136.75 72.9529 136.493 72.9123 136.268 72.8762L136.335 71.9013C136.561 71.9284 136.814 71.96 137.093 71.9961C137.382 72.0322 137.662 72.0638 137.933 72.0909C138.204 72.1089 138.425 72.1179 138.596 72.1179C138.948 72.1179 139.242 72.0864 139.477 72.0232C139.711 71.96 139.887 71.8517 140.005 71.6982C140.131 71.5448 140.194 71.3236 140.194 71.0347C140.194 70.8181 140.144 70.6511 140.045 70.5338C139.955 70.4164 139.783 70.3171 139.531 70.2359C139.287 70.1546 138.926 70.0824 138.447 70.0192C137.942 69.938 137.518 69.8342 137.175 69.7078C136.841 69.5815 136.592 69.3964 136.43 69.1527C136.277 68.909 136.2 68.5614 136.2 68.1101C136.2 67.5956 136.317 67.1939 136.552 66.905C136.787 66.6072 137.093 66.3996 137.473 66.2822C137.852 66.1558 138.249 66.0926 138.664 66.0926C138.926 66.0926 139.21 66.1062 139.517 66.1333C139.824 66.1603 140.122 66.1965 140.411 66.2416C140.7 66.2777 140.948 66.3138 141.155 66.3499L141.128 67.3248C140.912 67.2887 140.654 67.2571 140.357 67.23C140.068 67.1939 139.779 67.1668 139.49 67.1488C139.201 67.1217 138.948 67.1081 138.732 67.1081C138.47 67.1081 138.235 67.1352 138.028 67.1894C137.82 67.2435 137.653 67.3428 137.527 67.4873C137.409 67.6227 137.351 67.8122 137.351 68.0559C137.351 68.2455 137.396 68.399 137.486 68.5163C137.576 68.6337 137.743 68.7329 137.987 68.8142C138.231 68.8864 138.587 68.9631 139.057 69.0444C139.616 69.1346 140.063 69.2475 140.397 69.3829C140.74 69.5183 140.988 69.7123 141.142 69.9651C141.295 70.2088 141.372 70.5518 141.372 70.9941C141.372 71.5177 141.264 71.9374 141.047 72.2533C140.831 72.5693 140.524 72.7949 140.126 72.9303C139.738 73.0657 139.264 73.1334 138.705 73.1334ZM147.364 73.1334C146.723 73.1334 146.236 72.9574 145.902 72.6054C145.577 72.2533 145.414 71.7343 145.414 71.0483C145.414 70.597 145.491 70.2314 145.644 69.9515C145.807 69.6717 146.046 69.4596 146.362 69.3152C146.687 69.1707 147.08 69.0805 147.54 69.0444L149.571 68.8413V68.2861C149.571 67.8438 149.472 67.5324 149.273 67.3519C149.074 67.1713 148.786 67.0811 148.406 67.0811C148.172 67.0811 147.896 67.0901 147.581 67.1081C147.274 67.1262 146.962 67.1488 146.646 67.1758C146.339 67.2029 146.069 67.23 145.834 67.2571L145.78 66.3905C145.996 66.3454 146.258 66.3003 146.565 66.2551C146.881 66.21 147.206 66.1739 147.54 66.1468C147.883 66.1107 148.194 66.0926 148.474 66.0926C148.998 66.0926 149.426 66.1694 149.76 66.3228C150.094 66.4763 150.338 66.7155 150.492 67.0404C150.654 67.3564 150.735 67.7671 150.735 68.2726V71.6576C150.753 71.8471 150.83 71.9871 150.966 72.0773C151.101 72.1586 151.272 72.2127 151.48 72.2398L151.439 73.1334C151.313 73.1334 151.187 73.1289 151.06 73.1199C150.943 73.1109 150.83 73.0973 150.722 73.0793C150.613 73.0612 150.514 73.0387 150.424 73.0116C150.289 72.9665 150.167 72.9123 150.058 72.8491C149.95 72.7769 149.846 72.6957 149.747 72.6054C149.575 72.6776 149.359 72.7543 149.097 72.8356C148.835 72.9168 148.555 72.9845 148.258 73.0387C147.96 73.1019 147.662 73.1334 147.364 73.1334ZM147.567 72.1856C147.802 72.1856 148.045 72.1676 148.298 72.1315C148.551 72.0864 148.79 72.0322 149.016 71.969C149.241 71.9058 149.426 71.8471 149.571 71.793V69.6807L147.689 69.8568C147.301 69.8929 147.021 70.0102 146.849 70.2088C146.678 70.3984 146.592 70.6692 146.592 71.0212C146.592 71.3823 146.673 71.6666 146.836 71.8742C147.007 72.0818 147.251 72.1856 147.567 72.1856ZM157.987 73.1334C157.789 73.1334 157.545 73.1244 157.256 73.1064C156.976 73.0973 156.692 73.0793 156.403 73.0522C156.114 73.0251 155.862 73.0026 155.645 72.9845V63.3034H156.796V66.5395C156.94 66.4673 157.121 66.3996 157.338 66.3364C157.554 66.2642 157.784 66.2055 158.028 66.1603C158.272 66.1152 158.502 66.0926 158.719 66.0926C159.341 66.0926 159.833 66.21 160.195 66.4447C160.565 66.6704 160.826 67.0359 160.98 67.5414C161.142 68.0469 161.224 68.7014 161.224 69.5047C161.224 70.4074 161.124 71.125 160.926 71.6576C160.736 72.1811 160.407 72.5603 159.937 72.7949C159.468 73.0206 158.818 73.1334 157.987 73.1334ZM157.974 72.1044C158.57 72.1044 159.012 72.0141 159.301 71.8336C159.59 71.6531 159.784 71.3732 159.883 70.9941C159.982 70.606 160.032 70.1095 160.032 69.5047C160.032 68.9451 159.987 68.4892 159.897 68.1372C159.815 67.7851 159.666 67.5279 159.45 67.3654C159.233 67.1939 158.94 67.1081 158.57 67.1081C158.362 67.1081 158.145 67.1307 157.92 67.1758C157.694 67.212 157.482 67.2616 157.283 67.3248C157.094 67.3789 156.931 67.4286 156.796 67.4737V72.0367C156.986 72.0548 157.198 72.0728 157.432 72.0909C157.676 72.0999 157.857 72.1044 157.974 72.1044ZM162.825 72.998V66.228H163.963V72.998H162.825ZM162.825 64.7928V63.5336H163.963V64.7928H162.825ZM165.921 72.998V63.3034H167.072V72.998H165.921ZM169.108 72.998V63.3034H170.259V72.998H169.108ZM176.718 73.1334C176.077 73.1334 175.59 72.9574 175.256 72.6054C174.931 72.2533 174.768 71.7343 174.768 71.0483C174.768 70.597 174.845 70.2314 174.999 69.9515C175.161 69.6717 175.4 69.4596 175.716 69.3152C176.041 69.1707 176.434 69.0805 176.894 69.0444L178.925 68.8413V68.2861C178.925 67.8438 178.826 67.5324 178.627 67.3519C178.429 67.1713 178.14 67.0811 177.761 67.0811C177.526 67.0811 177.251 67.0901 176.935 67.1081C176.628 67.1262 176.316 67.1488 176.001 67.1758C175.694 67.2029 175.423 67.23 175.188 67.2571L175.134 66.3905C175.351 66.3454 175.612 66.3003 175.919 66.2551C176.235 66.21 176.56 66.1739 176.894 66.1468C177.237 66.1107 177.549 66.0926 177.828 66.0926C178.352 66.0926 178.781 66.1694 179.115 66.3228C179.449 66.4763 179.692 66.7155 179.846 67.0404C180.008 67.3564 180.09 67.7671 180.09 68.2726V71.6576C180.108 71.8471 180.184 71.9871 180.32 72.0773C180.455 72.1586 180.627 72.2127 180.834 72.2398L180.794 73.1334C180.667 73.1334 180.541 73.1289 180.415 73.1199C180.297 73.1109 180.184 73.0973 180.076 73.0793C179.968 73.0612 179.868 73.0387 179.778 73.0116C179.643 72.9665 179.521 72.9123 179.413 72.8491C179.304 72.7769 179.2 72.6957 179.101 72.6054C178.93 72.6776 178.713 72.7543 178.451 72.8356C178.19 72.9168 177.91 72.9845 177.612 73.0387C177.314 73.1019 177.016 73.1334 176.718 73.1334ZM176.921 72.1856C177.156 72.1856 177.4 72.1676 177.652 72.1315C177.905 72.0864 178.144 72.0322 178.37 71.969C178.596 71.9058 178.781 71.8471 178.925 71.793V69.6807L177.043 69.8568C176.655 69.8929 176.375 70.0102 176.204 70.2088C176.032 70.3984 175.946 70.6692 175.946 71.0212C175.946 71.3823 176.028 71.6666 176.19 71.8742C176.362 72.0818 176.605 72.1856 176.921 72.1856ZM184.626 76.1664C183.921 76.1664 183.353 76.1077 182.919 75.9904C182.486 75.873 182.166 75.6654 181.958 75.3675C181.76 75.0697 181.66 74.6635 181.66 74.1489C181.66 73.8872 181.701 73.6615 181.782 73.4719C181.863 73.2914 181.981 73.1244 182.134 72.971C182.288 72.8085 182.482 72.6415 182.716 72.47C182.599 72.3797 182.504 72.2533 182.432 72.0909C182.369 71.9194 182.337 71.7298 182.337 71.5222C182.337 71.459 182.36 71.3642 182.405 71.2378C182.459 71.1115 182.522 70.9806 182.595 70.8452C182.676 70.7008 182.748 70.5699 182.811 70.4525C182.622 70.3623 182.446 70.2404 182.283 70.0869C182.13 69.9245 182.003 69.7078 181.904 69.437C181.805 69.1662 181.755 68.8232 181.755 68.408C181.755 67.8483 181.859 67.4015 182.066 67.0675C182.283 66.7245 182.586 66.4763 182.974 66.3228C183.362 66.1694 183.813 66.0926 184.328 66.0926C184.571 66.0926 184.829 66.1107 185.099 66.1468C185.37 66.1829 185.582 66.219 185.736 66.2551L187.78 66.2145V67.1488L186.535 67.1217C186.661 67.2481 186.765 67.4151 186.846 67.6227C186.927 67.8213 186.968 68.083 186.968 68.408C186.968 69.0037 186.869 69.4686 186.67 69.8026C186.471 70.1366 186.174 70.3713 185.776 70.5067C185.388 70.6421 184.896 70.7098 184.301 70.7098C184.237 70.7098 184.129 70.7053 183.976 70.6962C183.831 70.6782 183.723 70.6647 183.651 70.6556C183.606 70.773 183.556 70.9129 183.502 71.0754C183.448 71.2288 183.42 71.3326 183.42 71.3868C183.42 71.5222 183.434 71.626 183.461 71.6982C183.497 71.7704 183.569 71.8291 183.678 71.8742C183.786 71.9194 183.949 71.951 184.165 71.969C184.382 71.978 184.68 71.9825 185.059 71.9825C185.7 71.9825 186.214 72.0367 186.602 72.145C186.991 72.2533 187.266 72.4519 187.428 72.7408C187.6 73.0206 187.686 73.4313 187.686 73.9729C187.686 74.7492 187.415 75.3089 186.873 75.6519C186.341 75.9949 185.591 76.1664 184.626 76.1664ZM184.626 75.2186C185.284 75.2186 185.767 75.1238 186.074 74.9343C186.381 74.7537 186.535 74.4559 186.535 74.0406C186.535 73.7247 186.481 73.49 186.372 73.3365C186.273 73.1921 186.106 73.0928 185.871 73.0387C185.637 72.9935 185.321 72.971 184.923 72.971C184.833 72.971 184.716 72.971 184.571 72.971C184.436 72.9619 184.292 72.9574 184.138 72.9574C183.994 72.9484 183.858 72.9394 183.732 72.9303C183.615 72.9213 183.533 72.9168 183.488 72.9168C183.317 73.0432 183.177 73.1605 183.068 73.2688C182.96 73.3772 182.883 73.49 182.838 73.6073C182.802 73.7247 182.784 73.8691 182.784 74.0406C182.784 74.3205 182.834 74.5461 182.933 74.7176C183.041 74.8891 183.231 75.0155 183.502 75.0967C183.773 75.178 184.147 75.2186 184.626 75.2186ZM184.328 69.8026C184.869 69.8026 185.253 69.6988 185.479 69.4912C185.704 69.2745 185.817 68.9135 185.817 68.408C185.817 67.9025 185.704 67.5414 185.479 67.3248C185.253 67.1081 184.869 66.9998 184.328 66.9998C183.822 66.9998 183.457 67.1081 183.231 67.3248C183.014 67.5414 182.906 67.9025 182.906 68.408C182.906 68.9135 183.014 69.2745 183.231 69.4912C183.457 69.6988 183.822 69.8026 184.328 69.8026ZM190.483 73.1334C189.842 73.1334 189.355 72.9574 189.021 72.6054C188.696 72.2533 188.533 71.7343 188.533 71.0483C188.533 70.597 188.61 70.2314 188.763 69.9515C188.926 69.6717 189.165 69.4596 189.481 69.3152C189.806 69.1707 190.199 69.0805 190.659 69.0444L192.69 68.8413V68.2861C192.69 67.8438 192.591 67.5324 192.392 67.3519C192.194 67.1713 191.905 67.0811 191.526 67.0811C191.291 67.0811 191.016 67.0901 190.7 67.1081C190.393 67.1262 190.081 67.1488 189.765 67.1758C189.458 67.2029 189.188 67.23 188.953 67.2571L188.899 66.3905C189.115 66.3454 189.377 66.3003 189.684 66.2551C190 66.21 190.325 66.1739 190.659 66.1468C191.002 66.1107 191.313 66.0926 191.593 66.0926C192.117 66.0926 192.546 66.1694 192.88 66.3228C193.214 66.4763 193.457 66.7155 193.611 67.0404C193.773 67.3564 193.854 67.7671 193.854 68.2726V71.6576C193.872 71.8471 193.949 71.9871 194.085 72.0773C194.22 72.1586 194.392 72.2127 194.599 72.2398L194.558 73.1334C194.432 73.1334 194.306 73.1289 194.179 73.1199C194.062 73.1109 193.949 73.0973 193.841 73.0793C193.733 73.0612 193.633 73.0387 193.543 73.0116C193.408 72.9665 193.286 72.9123 193.177 72.8491C193.069 72.7769 192.965 72.6957 192.866 72.6054C192.694 72.6776 192.478 72.7543 192.216 72.8356C191.954 72.9168 191.674 72.9845 191.377 73.0387C191.079 73.1019 190.781 73.1334 190.483 73.1334ZM190.686 72.1856C190.921 72.1856 191.164 72.1676 191.417 72.1315C191.67 72.0864 191.909 72.0322 192.135 71.969C192.361 71.9058 192.546 71.8471 192.69 71.793V69.6807L190.808 69.8568C190.42 69.8929 190.14 70.0102 189.968 70.2088C189.797 70.3984 189.711 70.6692 189.711 71.0212C189.711 71.3823 189.792 71.6666 189.955 71.8742C190.126 72.0818 190.37 72.1856 190.686 72.1856ZM195.803 72.998V66.228H196.94V72.998H195.803ZM195.803 64.7928V63.5336H196.94V64.7928H195.803ZM198.831 72.998V66.228H199.968V66.6884C200.121 66.5981 200.311 66.5079 200.537 66.4176C200.771 66.3273 201.015 66.2506 201.268 66.1874C201.53 66.1242 201.778 66.0926 202.012 66.0926C202.482 66.0926 202.866 66.1558 203.163 66.2822C203.47 66.3996 203.705 66.5936 203.867 66.8644C204.039 67.1262 204.156 67.4692 204.22 67.8935C204.292 68.3087 204.328 68.8187 204.328 69.4235V72.998H203.177V69.4641C203.177 68.8954 203.141 68.4396 203.069 68.0966C203.005 67.7536 202.875 67.5053 202.676 67.3519C202.486 67.1984 202.189 67.1217 201.782 67.1217C201.566 67.1217 201.34 67.1488 201.105 67.2029C200.88 67.2481 200.668 67.3067 200.469 67.3789C200.27 67.4512 200.103 67.5234 199.968 67.5956V72.998H198.831Z" fill="#60554D"/>
<path d="M64.8228 60.7063C67.4302 60.7063 69.7811 62.5232 69.7811 64.9563V68.1714C69.7811 68.6262 69.915 69.0703 70.1672 69.4485L71.7255 71.7846C71.8337 71.9465 71.8959 72.1347 71.9054 72.3292C71.9149 72.5237 71.8714 72.7171 71.7795 72.8888C71.6877 73.0605 71.5509 73.2039 71.3838 73.3039C71.2167 73.4039 71.0256 73.4565 70.8309 73.4563H67.3019C67.3019 73.7819 67.2378 74.1042 67.1132 74.405C66.9886 74.7058 66.806 74.9791 66.5758 75.2093C66.3456 75.4395 66.0723 75.6222 65.7715 75.7468C65.4707 75.8713 65.1483 75.9355 64.8228 75.9355C64.4972 75.9355 64.1748 75.8713 63.874 75.7468C63.5733 75.6222 63.3 75.4395 63.0697 75.2093C62.8395 74.9791 62.6569 74.7058 62.5323 74.405C62.4077 74.1042 62.3436 73.7819 62.3436 73.4563H58.8154C58.6208 73.4565 58.4298 73.4038 58.2627 73.3039C58.0957 73.2041 57.9589 73.0607 57.8669 72.8892C57.7749 72.7177 57.7312 72.5244 57.7405 72.33C57.7497 72.1356 57.8115 71.9474 57.9194 71.7853L59.4777 69.4485C59.7299 69.0704 59.8644 68.626 59.8644 68.1714V64.9563C59.8644 62.5232 62.2147 60.7063 64.8228 60.7063ZM60.9269 64.9563V68.1714C60.9271 68.8357 60.7307 69.4851 60.3624 70.0379L58.8041 72.374L58.8019 72.3811L58.8026 72.386L58.8055 72.3903L58.8097 72.3931L58.8147 72.3938H70.8309L70.8358 72.3931L70.8401 72.3903L70.8429 72.386L70.8436 72.3818L70.8415 72.3747L69.2839 70.0379C68.9153 69.4852 68.7186 68.8357 68.7186 68.1714V64.9563C68.7186 63.2818 67.0307 61.7688 64.8228 61.7688C62.6149 61.7688 60.9269 63.2818 60.9269 64.9563ZM66.2394 73.4563H63.4061C63.4061 73.832 63.5554 74.1924 63.821 74.458C64.0867 74.7237 64.4471 74.873 64.8228 74.873C65.1985 74.873 65.5588 74.7237 65.8245 74.458C66.0902 74.1924 66.2394 73.832 66.2394 73.4563Z" fill="#CE0E2D"/>
<path d="M78.8862 123.401H79.6519C79.9891 123.401 80.3081 123.388 80.6089 123.36C80.9142 123.328 81.1808 123.26 81.4087 123.155C81.6411 123.05 81.8234 122.893 81.9556 122.684C82.0923 122.474 82.1606 122.189 82.1606 121.829C82.1606 121.542 82.1037 121.305 81.9897 121.118C81.8804 120.931 81.7368 120.783 81.5591 120.674C81.3859 120.56 81.1922 120.482 80.978 120.441C80.7638 120.396 80.5565 120.373 80.356 120.373H78.8862V123.401ZM78.8862 127.852H79.9321C80.2511 127.852 80.5542 127.831 80.8413 127.79C81.133 127.744 81.3882 127.665 81.6069 127.551C81.8302 127.432 82.0057 127.271 82.1333 127.065C82.2655 126.86 82.3315 126.596 82.3315 126.272C82.3315 125.894 82.2563 125.591 82.106 125.363C81.9556 125.135 81.7573 124.962 81.5112 124.844C81.2697 124.721 80.9985 124.641 80.6978 124.604C80.397 124.568 80.0962 124.55 79.7954 124.55H78.8862V127.852ZM77.4849 119.225H80.1304C80.6362 119.225 81.0988 119.27 81.5181 119.361C81.9419 119.448 82.3042 119.589 82.605 119.785C82.9103 119.981 83.145 120.236 83.3091 120.551C83.4777 120.865 83.562 121.246 83.562 121.692C83.562 122.358 83.3797 122.873 83.0151 123.237C82.6551 123.597 82.1652 123.857 81.5454 124.017V124.044C81.8781 124.071 82.1834 124.144 82.4614 124.263C82.7394 124.381 82.9787 124.543 83.1792 124.748C83.3797 124.949 83.5347 125.188 83.644 125.466C83.758 125.744 83.8149 126.054 83.8149 126.396C83.8149 126.92 83.7147 127.35 83.5142 127.688C83.3136 128.025 83.0425 128.291 82.7007 128.487C82.3589 128.679 81.9624 128.813 81.5112 128.891C81.0601 128.964 80.5861 129 80.0894 129H77.4849V119.225ZM87.5679 120.264H86.0845V118.78H87.5679V120.264ZM86.1665 121.863H87.4858V129H86.1665V121.863ZM90.063 118.5H91.3823V129H90.063V118.5ZM93.9595 118.5H95.2788V129H93.9595V118.5ZM103.031 123.429H104.22C104.895 123.429 105.414 123.294 105.779 123.025C106.148 122.757 106.333 122.383 106.333 121.904C106.333 121.449 106.168 121.095 105.84 120.845C105.512 120.59 105.022 120.462 104.371 120.462H103.031V123.429ZM101.629 119.225H104.022C104.268 119.225 104.507 119.231 104.74 119.245C104.977 119.254 105.207 119.277 105.43 119.313C105.653 119.345 105.865 119.391 106.066 119.45C106.271 119.505 106.462 119.58 106.64 119.676C106.818 119.771 106.977 119.885 107.119 120.018C107.264 120.145 107.388 120.298 107.488 120.476C107.593 120.653 107.672 120.858 107.727 121.091C107.786 121.323 107.816 121.585 107.816 121.877C107.816 122.173 107.764 122.449 107.659 122.704C107.554 122.955 107.41 123.176 107.228 123.367C107.05 123.559 106.838 123.718 106.592 123.846C106.346 123.969 106.082 124.053 105.799 124.099V124.126C105.904 124.172 106 124.222 106.086 124.276C106.178 124.331 106.255 124.393 106.319 124.461C106.456 124.598 106.601 124.814 106.756 125.11L108.602 129H107.002L105.505 125.609C105.396 125.377 105.284 125.197 105.17 125.069C105.056 124.937 104.933 124.841 104.801 124.782C104.674 124.723 104.535 124.689 104.384 124.68C104.234 124.666 104.063 124.659 103.872 124.659H103.031V129H101.629V119.225ZM114.768 124.741C114.768 124.468 114.727 124.213 114.645 123.976C114.568 123.734 114.454 123.524 114.303 123.347C114.153 123.164 113.966 123.021 113.743 122.916C113.524 122.811 113.273 122.759 112.991 122.759C112.663 122.759 112.382 122.82 112.15 122.943C111.922 123.062 111.733 123.217 111.583 123.408C111.432 123.6 111.316 123.814 111.234 124.051C111.152 124.283 111.097 124.513 111.07 124.741H114.768ZM115.623 128.706C115.49 128.752 115.354 128.802 115.212 128.856C115.076 128.907 114.918 128.954 114.741 129C114.563 129.05 114.362 129.091 114.139 129.123C113.916 129.155 113.658 129.171 113.367 129.171C112.738 129.171 112.191 129.077 111.726 128.891C111.261 128.704 110.876 128.442 110.571 128.104C110.265 127.767 110.038 127.362 109.887 126.888C109.741 126.409 109.668 125.881 109.668 125.302C109.668 124.778 109.748 124.295 109.908 123.853C110.067 123.41 110.293 123.03 110.584 122.711C110.881 122.387 111.234 122.137 111.644 121.959C112.054 121.781 112.512 121.692 113.018 121.692C113.611 121.692 114.107 121.795 114.508 122C114.914 122.205 115.237 122.49 115.479 122.854C115.725 123.215 115.901 123.641 116.005 124.133C116.11 124.62 116.163 125.151 116.163 125.726H111.07C111.07 126.076 111.134 126.398 111.261 126.689C111.389 126.981 111.56 127.232 111.774 127.441C111.993 127.651 112.243 127.815 112.526 127.934C112.813 128.048 113.111 128.104 113.421 128.104C113.645 128.104 113.868 128.079 114.091 128.029C114.319 127.979 114.531 127.918 114.727 127.845C114.928 127.772 115.105 127.694 115.26 127.612C115.42 127.53 115.541 127.455 115.623 127.387V128.706ZM117.926 121.863H119.157V122.896H119.184C119.435 122.476 119.742 122.171 120.107 121.979C120.472 121.788 120.92 121.692 121.454 121.692C121.864 121.692 122.258 121.802 122.636 122.021C123.019 122.244 123.302 122.597 123.484 123.08C123.602 122.825 123.755 122.608 123.942 122.431C124.129 122.253 124.325 122.109 124.53 122C124.739 121.891 124.947 121.813 125.152 121.768C125.357 121.717 125.537 121.692 125.692 121.692C126.148 121.692 126.533 121.763 126.847 121.904C127.162 122.041 127.417 122.232 127.613 122.479C127.809 122.72 127.95 123.007 128.037 123.34C128.128 123.673 128.173 124.033 128.173 124.42V129H126.854V124.741C126.854 124.522 126.836 124.297 126.799 124.064C126.767 123.827 126.706 123.613 126.615 123.422C126.524 123.226 126.394 123.066 126.225 122.943C126.061 122.82 125.847 122.759 125.583 122.759C125.245 122.759 124.958 122.834 124.721 122.984C124.484 123.135 124.291 123.333 124.14 123.579C123.99 123.825 123.88 124.108 123.812 124.427C123.744 124.741 123.709 125.067 123.709 125.404V129H122.39V124.741C122.39 124.522 122.372 124.297 122.335 124.064C122.304 123.827 122.242 123.613 122.151 123.422C122.06 123.226 121.93 123.066 121.761 122.943C121.597 122.82 121.383 122.759 121.119 122.759C120.781 122.759 120.494 122.834 120.257 122.984C120.02 123.135 119.827 123.333 119.676 123.579C119.526 123.825 119.414 124.108 119.341 124.427C119.273 124.741 119.239 125.067 119.239 125.404V129H117.926V121.863ZM131.96 120.264H130.477V118.78H131.96V120.264ZM130.559 121.863H131.878V129H130.559V121.863ZM134.292 121.863H135.563V122.991H135.59C135.791 122.576 136.103 122.257 136.527 122.034C136.96 121.806 137.427 121.692 137.928 121.692C138.849 121.692 139.526 121.964 139.958 122.506C140.387 123.044 140.601 123.793 140.601 124.755V129H139.289V125.302C139.289 124.468 139.181 123.843 138.967 123.429C138.753 123.014 138.357 122.791 137.778 122.759C137.4 122.759 137.074 122.832 136.8 122.978C136.527 123.119 136.301 123.319 136.124 123.579C135.946 123.839 135.814 124.149 135.727 124.509C135.645 124.869 135.604 125.265 135.604 125.698V129H134.292V121.863ZM143.773 125.404C143.768 125.591 143.78 125.787 143.807 125.992C143.839 126.197 143.889 126.4 143.958 126.601C144.026 126.801 144.112 126.993 144.217 127.175C144.327 127.357 144.454 127.517 144.6 127.653C144.75 127.79 144.919 127.899 145.106 127.981C145.297 128.063 145.512 128.104 145.749 128.104C146.122 128.104 146.441 128.022 146.706 127.858C146.97 127.69 147.186 127.478 147.355 127.223C147.524 126.963 147.647 126.676 147.724 126.361C147.806 126.047 147.847 125.742 147.847 125.445C147.847 125.108 147.804 124.78 147.717 124.461C147.631 124.137 147.499 123.85 147.321 123.6C147.148 123.344 146.929 123.142 146.665 122.991C146.4 122.836 146.09 122.759 145.735 122.759C145.379 122.759 145.074 122.836 144.819 122.991C144.568 123.142 144.363 123.342 144.204 123.593C144.049 123.839 143.935 124.121 143.862 124.44C143.793 124.755 143.764 125.076 143.773 125.404ZM147.902 127.995H147.875C147.792 128.127 147.676 128.262 147.526 128.398C147.38 128.535 147.205 128.663 147 128.781C146.794 128.895 146.562 128.989 146.302 129.062C146.042 129.134 145.755 129.171 145.441 129.171C144.899 129.171 144.434 129.062 144.046 128.843C143.659 128.619 143.34 128.328 143.089 127.968C142.843 127.603 142.661 127.191 142.542 126.73C142.429 126.266 142.372 125.789 142.372 125.302C142.372 124.823 142.433 124.368 142.556 123.935C142.684 123.497 142.875 123.112 143.13 122.779C143.39 122.447 143.711 122.182 144.094 121.986C144.482 121.79 144.935 121.692 145.455 121.692C146.074 121.692 146.573 121.802 146.952 122.021C147.325 122.239 147.615 122.513 147.82 122.841H147.847V118.5H149.16V129H147.902V127.995ZM156.03 124.741C156.03 124.468 155.989 124.213 155.907 123.976C155.829 123.734 155.715 123.524 155.565 123.347C155.415 123.164 155.228 123.021 155.004 122.916C154.786 122.811 154.535 122.759 154.252 122.759C153.924 122.759 153.644 122.82 153.412 122.943C153.184 123.062 152.995 123.217 152.844 123.408C152.694 123.6 152.578 123.814 152.496 124.051C152.414 124.283 152.359 124.513 152.332 124.741H156.03ZM156.884 128.706C156.752 128.752 156.615 128.802 156.474 128.856C156.337 128.907 156.18 128.954 156.002 129C155.825 129.05 155.624 129.091 155.401 129.123C155.178 129.155 154.92 129.171 154.628 129.171C154 129.171 153.453 129.077 152.988 128.891C152.523 128.704 152.138 128.442 151.833 128.104C151.527 127.767 151.299 127.362 151.149 126.888C151.003 126.409 150.93 125.881 150.93 125.302C150.93 124.778 151.01 124.295 151.169 123.853C151.329 123.41 151.555 123.03 151.846 122.711C152.142 122.387 152.496 122.137 152.906 121.959C153.316 121.781 153.774 121.692 154.28 121.692C154.872 121.692 155.369 121.795 155.77 122C156.176 122.205 156.499 122.49 156.741 122.854C156.987 123.215 157.162 123.641 157.267 124.133C157.372 124.62 157.424 125.151 157.424 125.726H152.332C152.332 126.076 152.395 126.398 152.523 126.689C152.651 126.981 152.821 127.232 153.036 127.441C153.254 127.651 153.505 127.815 153.788 127.934C154.075 128.048 154.373 128.104 154.683 128.104C154.906 128.104 155.13 128.079 155.353 128.029C155.581 127.979 155.793 127.918 155.989 127.845C156.189 127.772 156.367 127.694 156.522 127.612C156.681 127.53 156.802 127.455 156.884 127.387V128.706ZM159.202 121.863H160.432V122.964H160.459C160.633 122.595 160.892 122.289 161.239 122.048C161.576 121.811 161.938 121.692 162.326 121.692C162.522 121.692 162.679 121.701 162.797 121.72C162.92 121.738 163.053 121.761 163.194 121.788V122.964C163.071 122.918 162.945 122.886 162.818 122.868C162.695 122.85 162.576 122.841 162.462 122.841C161.875 122.841 161.403 123.103 161.047 123.627C160.692 124.146 160.514 124.855 160.514 125.753V129H159.202V121.863Z" fill="black"/>
<path d="M79.1646 145.08L76.4351 141.018H77.6021L79.6821 144.152L81.7134 141.018H82.8804L80.1606 145.08V148H79.1646V145.08ZM82.9663 145.451C82.9663 145.676 82.9972 145.902 83.0591 146.13C83.1242 146.358 83.2218 146.563 83.3521 146.745C83.4823 146.927 83.6483 147.076 83.8501 147.189C84.0519 147.303 84.2912 147.36 84.5679 147.36C84.8413 147.36 85.0773 147.303 85.2759 147.189C85.4777 147.076 85.6421 146.927 85.769 146.745C85.8993 146.563 85.9953 146.358 86.0571 146.13C86.1222 145.902 86.1548 145.676 86.1548 145.451C86.1548 145.207 86.119 144.971 86.0474 144.743C85.9757 144.515 85.8716 144.312 85.7349 144.133C85.5981 143.954 85.4305 143.811 85.2319 143.703C85.0366 143.596 84.8153 143.542 84.5679 143.542C84.3172 143.542 84.0926 143.596 83.894 143.703C83.6955 143.811 83.5278 143.954 83.3911 144.133C83.2544 144.312 83.1486 144.515 83.0737 144.743C83.0021 144.971 82.9663 145.207 82.9663 145.451ZM81.9653 145.451C81.9653 145.064 82.0272 144.707 82.1509 144.382C82.2778 144.053 82.4536 143.771 82.6782 143.537C82.9061 143.299 83.1795 143.114 83.4985 142.98C83.8208 142.847 84.1772 142.78 84.5679 142.78C84.9552 142.78 85.3084 142.847 85.6274 142.98C85.9465 143.114 86.2183 143.299 86.4429 143.537C86.6707 143.771 86.8465 144.053 86.9702 144.382C87.0939 144.707 87.1558 145.064 87.1558 145.451C87.1558 145.816 87.0923 146.161 86.9653 146.486C86.8384 146.809 86.661 147.092 86.4331 147.336C86.2052 147.577 85.9318 147.769 85.6128 147.912C85.297 148.052 84.9487 148.122 84.5679 148.122C84.1838 148.122 83.8322 148.052 83.5132 147.912C83.1942 147.769 82.9191 147.577 82.688 147.336C82.4601 147.092 82.2827 146.809 82.1558 146.486C82.0288 146.161 81.9653 145.816 81.9653 145.451ZM92.4272 148H91.519V147.189H91.4995C91.3563 147.486 91.1333 147.715 90.8306 147.878C90.5213 148.041 90.1877 148.122 89.8296 148.122C89.172 148.122 88.6886 147.928 88.3794 147.541C88.0734 147.157 87.9204 146.62 87.9204 145.93V142.902H88.8579V145.539C88.8579 146.138 88.9344 146.586 89.0874 146.882C89.2437 147.178 89.5285 147.338 89.9419 147.36C90.2088 147.36 90.4399 147.31 90.6353 147.209C90.8306 147.105 90.9917 146.96 91.1187 146.774C91.2456 146.589 91.3384 146.368 91.397 146.11C91.4588 145.853 91.4897 145.57 91.4897 145.261V142.902H92.4272V148ZM93.5337 142.902H94.4126V143.688H94.4321C94.5558 143.425 94.7414 143.207 94.9888 143.034C95.2297 142.865 95.4884 142.78 95.7651 142.78C95.9051 142.78 96.0174 142.787 96.1021 142.8C96.1899 142.813 96.2843 142.829 96.3853 142.849V143.688C96.2974 143.656 96.2078 143.633 96.1167 143.62C96.0288 143.607 95.9442 143.601 95.8628 143.601C95.4429 143.601 95.106 143.788 94.8521 144.162C94.5981 144.533 94.4712 145.039 94.4712 145.681V148H93.5337V142.902ZM102.514 144.958C102.514 144.763 102.485 144.58 102.426 144.411C102.371 144.239 102.29 144.089 102.182 143.962C102.075 143.832 101.941 143.729 101.782 143.654C101.625 143.579 101.446 143.542 101.245 143.542C101.01 143.542 100.81 143.586 100.644 143.674C100.481 143.758 100.346 143.869 100.239 144.006C100.131 144.143 100.048 144.296 99.9897 144.465C99.9312 144.631 99.8921 144.795 99.8726 144.958H102.514ZM103.125 147.79C103.03 147.823 102.932 147.858 102.832 147.897C102.734 147.933 102.622 147.967 102.495 148C102.368 148.036 102.224 148.065 102.065 148.088C101.905 148.111 101.722 148.122 101.513 148.122C101.064 148.122 100.673 148.055 100.341 147.922C100.009 147.788 99.7342 147.601 99.5161 147.36C99.298 147.119 99.1353 146.83 99.0278 146.491C98.9237 146.149 98.8716 145.772 98.8716 145.358C98.8716 144.984 98.9285 144.639 99.0425 144.323C99.1564 144.007 99.3175 143.736 99.5259 143.508C99.7375 143.277 99.9897 143.098 100.283 142.971C100.576 142.844 100.903 142.78 101.264 142.78C101.687 142.78 102.042 142.854 102.329 143C102.618 143.146 102.849 143.35 103.022 143.61C103.198 143.868 103.323 144.172 103.398 144.523C103.473 144.872 103.51 145.251 103.51 145.661H99.8726C99.8726 145.912 99.9181 146.141 100.009 146.35C100.1 146.558 100.222 146.737 100.375 146.887C100.532 147.036 100.711 147.154 100.913 147.238C101.118 147.32 101.331 147.36 101.552 147.36C101.712 147.36 101.871 147.342 102.031 147.307C102.194 147.271 102.345 147.227 102.485 147.175C102.628 147.123 102.755 147.067 102.866 147.009C102.98 146.95 103.066 146.896 103.125 146.848V147.79ZM104.397 140.5H105.339V148H104.397V140.5ZM109.864 144.958C109.864 144.763 109.834 144.58 109.776 144.411C109.721 144.239 109.639 144.089 109.532 143.962C109.424 143.832 109.291 143.729 109.131 143.654C108.975 143.579 108.796 143.542 108.594 143.542C108.36 143.542 108.16 143.586 107.994 143.674C107.831 143.758 107.696 143.869 107.588 144.006C107.481 144.143 107.398 144.296 107.339 144.465C107.281 144.631 107.242 144.795 107.222 144.958H109.864ZM110.474 147.79C110.38 147.823 110.282 147.858 110.181 147.897C110.083 147.933 109.971 147.967 109.844 148C109.717 148.036 109.574 148.065 109.415 148.088C109.255 148.111 109.071 148.122 108.863 148.122C108.414 148.122 108.023 148.055 107.691 147.922C107.359 147.788 107.084 147.601 106.866 147.36C106.648 147.119 106.485 146.83 106.377 146.491C106.273 146.149 106.221 145.772 106.221 145.358C106.221 144.984 106.278 144.639 106.392 144.323C106.506 144.007 106.667 143.736 106.875 143.508C107.087 143.277 107.339 143.098 107.632 142.971C107.925 142.844 108.252 142.78 108.614 142.78C109.037 142.78 109.392 142.854 109.678 143C109.968 143.146 110.199 143.35 110.372 143.61C110.547 143.868 110.673 144.172 110.748 144.523C110.822 144.872 110.86 145.251 110.86 145.661H107.222C107.222 145.912 107.268 146.141 107.359 146.35C107.45 146.558 107.572 146.737 107.725 146.887C107.881 147.036 108.06 147.154 108.262 147.238C108.467 147.32 108.681 147.36 108.902 147.36C109.061 147.36 109.221 147.342 109.38 147.307C109.543 147.271 109.694 147.227 109.834 147.175C109.978 147.123 110.105 147.067 110.215 147.009C110.329 146.95 110.416 146.896 110.474 146.848V147.79ZM114.867 143.762C114.688 143.687 114.512 143.632 114.339 143.596C114.167 143.56 114.002 143.542 113.846 143.542C113.586 143.542 113.355 143.596 113.153 143.703C112.951 143.811 112.78 143.954 112.64 144.133C112.5 144.312 112.393 144.515 112.318 144.743C112.246 144.971 112.21 145.207 112.21 145.451C112.21 145.676 112.241 145.902 112.303 146.13C112.368 146.358 112.469 146.563 112.606 146.745C112.743 146.927 112.918 147.076 113.133 147.189C113.348 147.303 113.607 147.36 113.91 147.36C114.069 147.36 114.24 147.336 114.422 147.287C114.608 147.235 114.774 147.163 114.92 147.072L114.989 147.912C114.793 148.003 114.592 148.06 114.383 148.083C114.175 148.109 113.983 148.122 113.807 148.122C113.423 148.122 113.071 148.052 112.752 147.912C112.437 147.769 112.163 147.577 111.932 147.336C111.704 147.092 111.527 146.809 111.4 146.486C111.273 146.161 111.209 145.816 111.209 145.451C111.209 145.064 111.271 144.707 111.395 144.382C111.522 144.053 111.698 143.771 111.922 143.537C112.15 143.299 112.424 143.114 112.743 142.98C113.062 142.847 113.417 142.78 113.807 142.78C114.009 142.78 114.214 142.801 114.422 142.844C114.65 142.883 114.826 142.928 114.95 142.98L114.867 143.762ZM118.283 143.659H116.93V146.452C116.93 146.755 117.008 146.981 117.165 147.131C117.327 147.284 117.513 147.36 117.721 147.36C117.868 147.36 117.993 147.342 118.097 147.307C118.201 147.268 118.289 147.225 118.361 147.18V147.98C118.253 148.013 118.131 148.044 117.995 148.073C117.861 148.106 117.716 148.122 117.56 148.122C117.072 148.122 116.689 148.003 116.413 147.766C116.133 147.525 115.993 147.149 115.993 146.638V143.659H114.84V142.902H115.993V141.721L116.93 141.418V142.902H118.283V143.659ZM118.969 142.902H119.848V143.688H119.868C119.991 143.425 120.177 143.207 120.424 143.034C120.665 142.865 120.924 142.78 121.201 142.78C121.341 142.78 121.453 142.787 121.538 142.8C121.625 142.813 121.72 142.829 121.821 142.849V143.688C121.733 143.656 121.643 143.633 121.552 143.62C121.464 143.607 121.38 143.601 121.298 143.601C120.878 143.601 120.542 143.788 120.288 144.162C120.034 144.533 119.907 145.039 119.907 145.681V148H118.969V142.902ZM123.484 141.76H122.424V140.7H123.484V141.76ZM122.483 142.902H123.425V148H122.483V142.902ZM127.886 143.762C127.707 143.687 127.531 143.632 127.359 143.596C127.186 143.56 127.022 143.542 126.866 143.542C126.605 143.542 126.374 143.596 126.172 143.703C125.971 143.811 125.8 143.954 125.66 144.133C125.52 144.312 125.412 144.515 125.337 144.743C125.266 144.971 125.23 145.207 125.23 145.451C125.23 145.676 125.261 145.902 125.323 146.13C125.388 146.358 125.489 146.563 125.625 146.745C125.762 146.927 125.938 147.076 126.153 147.189C126.368 147.303 126.626 147.36 126.929 147.36C127.089 147.36 127.26 147.336 127.442 147.287C127.627 147.235 127.793 147.163 127.94 147.072L128.008 147.912C127.813 148.003 127.611 148.06 127.403 148.083C127.194 148.109 127.002 148.122 126.827 148.122C126.443 148.122 126.091 148.052 125.772 147.912C125.456 147.769 125.183 147.577 124.952 147.336C124.724 147.092 124.546 146.809 124.419 146.486C124.292 146.161 124.229 145.816 124.229 145.451C124.229 145.064 124.291 144.707 124.415 144.382C124.542 144.053 124.717 143.771 124.942 143.537C125.17 143.299 125.443 143.114 125.762 142.98C126.081 142.847 126.436 142.78 126.827 142.78C127.028 142.78 127.234 142.801 127.442 142.844C127.67 142.883 127.846 142.928 127.969 142.98L127.886 143.762ZM129.71 141.76H128.651V140.7H129.71V141.76ZM128.709 142.902H129.652V148H128.709V142.902ZM133.585 143.659H132.233V146.452C132.233 146.755 132.311 146.981 132.467 147.131C132.63 147.284 132.816 147.36 133.024 147.36C133.17 147.36 133.296 147.342 133.4 147.307C133.504 147.268 133.592 147.225 133.664 147.18V147.98C133.556 148.013 133.434 148.044 133.297 148.073C133.164 148.106 133.019 148.122 132.863 148.122C132.375 148.122 131.992 148.003 131.715 147.766C131.435 147.525 131.295 147.149 131.295 146.638V143.659H130.143V142.902H131.295V141.721L132.233 141.418V142.902H133.585V143.659ZM133.891 149.382C133.95 149.401 134.018 149.419 134.096 149.436C134.174 149.452 134.252 149.46 134.331 149.46C134.539 149.46 134.715 149.398 134.858 149.274C135.004 149.151 135.12 149.014 135.205 148.864C135.296 148.715 135.359 148.573 135.395 148.439C135.434 148.309 135.454 148.229 135.454 148.2C135.454 148.155 135.431 148.073 135.385 147.956L135.273 147.658L133.54 142.902H134.57L135.942 147.121H135.961L137.363 142.902H138.31L136.43 148.112C136.346 148.356 136.253 148.604 136.152 148.854C136.054 149.105 135.932 149.331 135.786 149.533C135.639 149.738 135.46 149.904 135.249 150.031C135.037 150.158 134.778 150.222 134.472 150.222C134.319 150.222 134.195 150.212 134.101 150.192C134.007 150.176 133.917 150.161 133.833 150.148L133.891 149.382ZM144.903 145.432C144.909 145.204 144.887 144.978 144.834 144.753C144.786 144.525 144.704 144.322 144.59 144.143C144.48 143.964 144.335 143.819 144.156 143.708C143.977 143.597 143.76 143.542 143.506 143.542C143.249 143.542 143.026 143.597 142.837 143.708C142.649 143.815 142.491 143.96 142.364 144.143C142.24 144.322 142.147 144.527 142.085 144.758C142.024 144.986 141.993 145.22 141.993 145.461C141.993 145.673 142.02 145.891 142.076 146.115C142.134 146.34 142.224 146.545 142.344 146.73C142.465 146.913 142.619 147.064 142.808 147.185C143 147.302 143.23 147.36 143.497 147.36C143.747 147.36 143.962 147.299 144.141 147.175C144.32 147.048 144.467 146.888 144.581 146.696C144.698 146.504 144.781 146.296 144.83 146.071C144.882 145.847 144.906 145.633 144.903 145.432ZM141.055 140.5H141.993V143.601H142.012C142.162 143.369 142.369 143.174 142.632 143.015C142.899 142.858 143.257 142.78 143.707 142.78C144.074 142.78 144.395 142.85 144.668 142.99C144.945 143.13 145.175 143.319 145.357 143.557C145.539 143.794 145.676 144.069 145.767 144.382C145.858 144.691 145.904 145.017 145.904 145.358C145.904 145.713 145.861 146.057 145.777 146.389C145.695 146.717 145.565 147.01 145.386 147.268C145.21 147.525 144.984 147.731 144.708 147.888C144.431 148.041 144.1 148.119 143.716 148.122C143.485 148.122 143.277 148.094 143.091 148.039C142.906 147.987 142.74 147.92 142.593 147.839C142.45 147.757 142.326 147.668 142.222 147.57C142.118 147.469 142.035 147.373 141.973 147.282H141.954V148H141.055V140.5ZM147.787 141.76H146.727V140.7H147.787V141.76ZM146.786 142.902H147.728V148H146.786V142.902ZM149.069 140.5H150.011V148H149.069V140.5ZM151.352 140.5H152.294V148H151.352V140.5ZM156.919 141.76H155.86V140.7H156.919V141.76ZM155.918 142.902H156.861V148H155.918V142.902ZM157.704 146.999C157.798 147.061 157.899 147.115 158.006 147.16C158.114 147.206 158.22 147.243 158.324 147.272C158.431 147.302 158.532 147.325 158.626 147.341C158.724 147.354 158.807 147.36 158.875 147.36C158.98 147.36 159.089 147.349 159.203 147.326C159.317 147.303 159.419 147.264 159.51 147.209C159.605 147.15 159.681 147.076 159.74 146.984C159.802 146.89 159.833 146.771 159.833 146.628C159.833 146.514 159.8 146.413 159.735 146.325C159.673 146.237 159.59 146.158 159.486 146.086C159.385 146.011 159.268 145.943 159.134 145.881C159.001 145.816 158.866 145.749 158.729 145.681C158.592 145.609 158.457 145.534 158.324 145.456C158.19 145.375 158.071 145.282 157.967 145.178C157.866 145.074 157.783 144.955 157.718 144.821C157.656 144.685 157.625 144.527 157.625 144.348C157.625 144.084 157.671 143.854 157.762 143.659C157.853 143.461 157.979 143.296 158.138 143.166C158.301 143.036 158.491 142.94 158.709 142.878C158.931 142.813 159.168 142.78 159.422 142.78C159.647 142.78 159.852 142.801 160.038 142.844C160.223 142.883 160.409 142.928 160.594 142.98L160.516 143.801C160.461 143.768 160.388 143.737 160.296 143.708C160.208 143.675 160.116 143.648 160.018 143.625C159.92 143.599 159.826 143.579 159.735 143.566C159.647 143.55 159.577 143.542 159.525 143.542C159.281 143.542 159.069 143.592 158.89 143.693C158.711 143.791 158.622 143.947 158.622 144.162C158.622 144.292 158.653 144.405 158.714 144.499C158.779 144.59 158.864 144.672 158.968 144.743C159.072 144.812 159.19 144.877 159.32 144.938C159.453 144.997 159.588 145.061 159.725 145.129C159.862 145.194 159.997 145.266 160.13 145.344C160.264 145.419 160.381 145.51 160.482 145.617C160.586 145.725 160.671 145.853 160.736 146.003C160.801 146.149 160.833 146.325 160.833 146.53C160.833 146.804 160.783 147.041 160.682 147.243C160.581 147.442 160.448 147.606 160.282 147.736C160.116 147.867 159.925 147.963 159.71 148.024C159.499 148.09 159.279 148.122 159.051 148.122C158.814 148.122 158.574 148.103 158.333 148.063C158.096 148.028 157.87 147.953 157.655 147.839L157.704 146.999ZM164.423 145.432C164.42 145.565 164.428 145.705 164.448 145.852C164.471 145.998 164.506 146.143 164.555 146.286C164.604 146.429 164.666 146.566 164.741 146.696C164.819 146.826 164.91 146.94 165.014 147.038C165.122 147.136 165.242 147.214 165.375 147.272C165.512 147.331 165.665 147.36 165.834 147.36C166.101 147.36 166.329 147.302 166.518 147.185C166.707 147.064 166.861 146.913 166.982 146.73C167.102 146.545 167.19 146.34 167.246 146.115C167.304 145.891 167.333 145.673 167.333 145.461C167.333 145.22 167.303 144.986 167.241 144.758C167.179 144.527 167.084 144.322 166.958 144.143C166.834 143.96 166.678 143.815 166.489 143.708C166.3 143.597 166.079 143.542 165.825 143.542C165.571 143.542 165.353 143.597 165.17 143.708C164.991 143.815 164.845 143.959 164.731 144.138C164.62 144.313 164.539 144.515 164.487 144.743C164.438 144.968 164.417 145.197 164.423 145.432ZM167.373 147.282H167.353C167.294 147.377 167.211 147.473 167.104 147.57C167 147.668 166.875 147.759 166.728 147.844C166.582 147.925 166.416 147.992 166.23 148.044C166.044 148.096 165.839 148.122 165.615 148.122C165.227 148.122 164.895 148.044 164.619 147.888C164.342 147.728 164.114 147.52 163.935 147.263C163.759 147.002 163.629 146.708 163.544 146.379C163.463 146.047 163.422 145.707 163.422 145.358C163.422 145.017 163.466 144.691 163.554 144.382C163.645 144.069 163.782 143.794 163.964 143.557C164.15 143.319 164.379 143.13 164.653 142.99C164.93 142.85 165.253 142.78 165.625 142.78C166.067 142.78 166.424 142.858 166.694 143.015C166.961 143.171 167.167 143.366 167.314 143.601H167.333V140.5H168.271V148H167.373V147.282ZM173.884 148H172.976V147.189H172.957C172.813 147.486 172.59 147.715 172.288 147.878C171.978 148.041 171.645 148.122 171.287 148.122C170.629 148.122 170.146 147.928 169.836 147.541C169.53 147.157 169.377 146.62 169.377 145.93V142.902H170.315V145.539C170.315 146.138 170.391 146.586 170.544 146.882C170.701 147.178 170.986 147.338 171.399 147.36C171.666 147.36 171.897 147.31 172.092 147.209C172.288 147.105 172.449 146.96 172.576 146.774C172.703 146.589 172.795 146.368 172.854 146.11C172.916 145.853 172.947 145.57 172.947 145.261V142.902H173.884V148ZM178.292 144.958C178.292 144.763 178.262 144.58 178.204 144.411C178.148 144.239 178.067 144.089 177.959 143.962C177.852 143.832 177.719 143.729 177.559 143.654C177.403 143.579 177.224 143.542 177.022 143.542C176.788 143.542 176.587 143.586 176.421 143.674C176.259 143.758 176.124 143.869 176.016 144.006C175.909 144.143 175.826 144.296 175.767 144.465C175.708 144.631 175.669 144.795 175.65 144.958H178.292ZM178.902 147.79C178.807 147.823 178.71 147.858 178.609 147.897C178.511 147.933 178.399 147.967 178.272 148C178.145 148.036 178.002 148.065 177.842 148.088C177.683 148.111 177.499 148.122 177.291 148.122C176.841 148.122 176.451 148.055 176.119 147.922C175.787 147.788 175.512 147.601 175.293 147.36C175.075 147.119 174.913 146.83 174.805 146.491C174.701 146.149 174.649 145.772 174.649 145.358C174.649 144.984 174.706 144.639 174.82 144.323C174.934 144.007 175.095 143.736 175.303 143.508C175.515 143.277 175.767 143.098 176.06 142.971C176.353 142.844 176.68 142.78 177.042 142.78C177.465 142.78 177.819 142.854 178.106 143C178.396 143.146 178.627 143.35 178.799 143.61C178.975 143.868 179.1 144.172 179.175 144.523C179.25 144.872 179.288 145.251 179.288 145.661H175.65C175.65 145.912 175.695 146.141 175.787 146.35C175.878 146.558 176 146.737 176.153 146.887C176.309 147.036 176.488 147.154 176.69 147.238C176.895 147.32 177.108 147.36 177.33 147.36C177.489 147.36 177.649 147.342 177.808 147.307C177.971 147.271 178.122 147.227 178.262 147.175C178.405 147.123 178.532 147.067 178.643 147.009C178.757 146.95 178.843 146.896 178.902 146.848V147.79ZM185.05 143.659H183.698V146.452C183.698 146.755 183.776 146.981 183.932 147.131C184.095 147.284 184.28 147.36 184.489 147.36C184.635 147.36 184.761 147.342 184.865 147.307C184.969 147.268 185.057 147.225 185.128 147.18V147.98C185.021 148.013 184.899 148.044 184.762 148.073C184.629 148.106 184.484 148.122 184.328 148.122C183.839 148.122 183.457 148.003 183.18 147.766C182.9 147.525 182.76 147.149 182.76 146.638V143.659H181.608V142.902H182.76V141.721L183.698 141.418V142.902H185.05V143.659ZM186.396 145.451C186.396 145.676 186.427 145.902 186.489 146.13C186.554 146.358 186.652 146.563 186.782 146.745C186.912 146.927 187.078 147.076 187.28 147.189C187.482 147.303 187.721 147.36 187.998 147.36C188.271 147.36 188.507 147.303 188.706 147.189C188.907 147.076 189.072 146.927 189.199 146.745C189.329 146.563 189.425 146.358 189.487 146.13C189.552 145.902 189.584 145.676 189.584 145.451C189.584 145.207 189.549 144.971 189.477 144.743C189.405 144.515 189.301 144.312 189.165 144.133C189.028 143.954 188.86 143.811 188.662 143.703C188.466 143.596 188.245 143.542 187.998 143.542C187.747 143.542 187.522 143.596 187.324 143.703C187.125 143.811 186.958 143.954 186.821 144.133C186.684 144.312 186.578 144.515 186.503 144.743C186.432 144.971 186.396 145.207 186.396 145.451ZM185.395 145.451C185.395 145.064 185.457 144.707 185.581 144.382C185.708 144.053 185.883 143.771 186.108 143.537C186.336 143.299 186.609 143.114 186.928 142.98C187.25 142.847 187.607 142.78 187.998 142.78C188.385 142.78 188.738 142.847 189.057 142.98C189.376 143.114 189.648 143.299 189.873 143.537C190.1 143.771 190.276 144.053 190.4 144.382C190.524 144.707 190.585 145.064 190.585 145.451C190.585 145.816 190.522 146.161 190.395 146.486C190.268 146.809 190.091 147.092 189.863 147.336C189.635 147.577 189.361 147.769 189.042 147.912C188.727 148.052 188.378 148.122 187.998 148.122C187.613 148.122 187.262 148.052 186.943 147.912C186.624 147.769 186.349 147.577 186.118 147.336C185.89 147.092 185.712 146.809 185.585 146.486C185.458 146.161 185.395 145.816 185.395 145.451ZM192.009 145.432C192.006 145.565 192.014 145.705 192.034 145.852C192.056 145.998 192.092 146.143 192.141 146.286C192.19 146.429 192.252 146.566 192.327 146.696C192.405 146.826 192.496 146.94 192.6 147.038C192.708 147.136 192.828 147.214 192.961 147.272C193.098 147.331 193.251 147.36 193.42 147.36C193.687 147.36 193.915 147.302 194.104 147.185C194.293 147.064 194.447 146.913 194.568 146.73C194.688 146.545 194.776 146.34 194.832 146.115C194.89 145.891 194.919 145.673 194.919 145.461C194.919 145.22 194.889 144.986 194.827 144.758C194.765 144.527 194.67 144.322 194.543 144.143C194.42 143.96 194.264 143.815 194.075 143.708C193.886 143.597 193.665 143.542 193.411 143.542C193.157 143.542 192.939 143.597 192.756 143.708C192.577 143.815 192.431 143.959 192.317 144.138C192.206 144.313 192.125 144.515 192.073 144.743C192.024 144.968 192.003 145.197 192.009 145.432ZM194.958 147.282H194.939C194.88 147.377 194.797 147.473 194.69 147.57C194.586 147.668 194.46 147.759 194.314 147.844C194.167 147.925 194.001 147.992 193.816 148.044C193.63 148.096 193.425 148.122 193.201 148.122C192.813 148.122 192.481 148.044 192.205 147.888C191.928 147.728 191.7 147.52 191.521 147.263C191.345 147.002 191.215 146.708 191.13 146.379C191.049 146.047 191.008 145.707 191.008 145.358C191.008 145.017 191.052 144.691 191.14 144.382C191.231 144.069 191.368 143.794 191.55 143.557C191.736 143.319 191.965 143.13 192.239 142.99C192.515 142.85 192.839 142.78 193.21 142.78C193.653 142.78 194.01 142.858 194.28 143.015C194.547 143.171 194.753 143.366 194.9 143.601H194.919V140.5H195.857V148H194.958V147.282ZM199.991 145.568C199.893 145.568 199.794 145.565 199.693 145.559C199.592 145.552 199.493 145.549 199.395 145.549C199.33 145.549 199.257 145.552 199.175 145.559C199.094 145.562 199.003 145.567 198.902 145.573C198.707 145.586 198.511 145.629 198.316 145.7C198.127 145.762 197.964 145.86 197.828 145.993C197.691 146.127 197.623 146.306 197.623 146.53C197.623 146.664 197.652 146.783 197.71 146.887C197.769 146.988 197.844 147.074 197.935 147.146C198.029 147.214 198.132 147.268 198.243 147.307C198.357 147.342 198.467 147.36 198.575 147.36C199.04 147.36 199.392 147.232 199.629 146.975C199.87 146.714 199.991 146.395 199.991 146.018V145.568ZM197.203 143.259C197.437 143.119 197.694 143.005 197.974 142.917C198.254 142.826 198.557 142.78 198.882 142.78C199.615 142.78 200.139 142.958 200.455 143.312C200.774 143.667 200.933 144.193 200.933 144.89V146.999C200.933 147.292 200.936 147.513 200.943 147.663C200.949 147.813 200.959 147.925 200.972 148H200.093V147.341H200.074C200.018 147.419 199.945 147.504 199.854 147.595C199.763 147.686 199.651 147.771 199.517 147.849C199.387 147.927 199.236 147.992 199.063 148.044C198.894 148.096 198.703 148.122 198.492 148.122C198.218 148.122 197.966 148.091 197.735 148.029C197.507 147.971 197.31 147.876 197.144 147.746C196.978 147.616 196.849 147.451 196.758 147.253C196.667 147.051 196.622 146.81 196.622 146.53C196.622 146.371 196.641 146.224 196.68 146.091C196.722 145.957 196.779 145.837 196.851 145.729C196.926 145.622 197.014 145.526 197.115 145.441C197.216 145.357 197.325 145.282 197.442 145.217C197.676 145.087 197.933 144.994 198.213 144.938C198.49 144.88 198.75 144.851 198.995 144.851H199.493C199.568 144.851 199.646 144.852 199.727 144.855C199.808 144.859 199.896 144.864 199.991 144.87C199.991 144.431 199.9 144.1 199.717 143.879C199.535 143.654 199.206 143.542 198.731 143.542C198.464 143.542 198.199 143.589 197.935 143.684C197.675 143.775 197.447 143.9 197.251 144.06L197.203 143.259ZM201.649 149.382C201.708 149.401 201.776 149.419 201.854 149.436C201.932 149.452 202.01 149.46 202.088 149.46C202.297 149.46 202.472 149.398 202.616 149.274C202.762 149.151 202.878 149.014 202.962 148.864C203.054 148.715 203.117 148.573 203.153 148.439C203.192 148.309 203.211 148.229 203.211 148.2C203.211 148.155 203.189 148.073 203.143 147.956L203.031 147.658L201.297 142.902H202.328L203.7 147.121H203.719L205.121 142.902H206.068L204.188 148.112C204.103 148.356 204.011 148.604 203.91 148.854C203.812 149.105 203.69 149.331 203.543 149.533C203.397 149.738 203.218 149.904 203.006 150.031C202.795 150.158 202.536 150.222 202.23 150.222C202.077 150.222 201.953 150.212 201.859 150.192C201.764 150.176 201.675 150.161 201.59 150.148L201.649 149.382ZM207.121 146.882H208.239V148H207.121V146.882ZM208.107 146.042H207.248L207.121 141.018H208.239L208.107 146.042Z" fill="black"/>
<defs>
<linearGradient id="paint0_linear_1_13642" x1="48.3447" y1="94.6375" x2="147.328" y2="217.137" gradientUnits="userSpaceOnUse">
<stop stop-color="#F4AC31"/>
<stop offset="1" stop-color="#F2E2C7"/>
</linearGradient>
<linearGradient id="paint1_linear_1_13642" x1="71.4593" y1="82.5221" x2="318.343" y2="20.1577" gradientUnits="userSpaceOnUse">
<stop stop-color="#F4AC31" stop-opacity="0.38"/>
<stop offset="0.9999" stop-color="#F4AC31"/>
<stop offset="1" stop-color="white" stop-opacity="0"/>
</linearGradient>
</defs>
</svg>
