<svg width="282" height="281" viewBox="0 0 282 281" fill="none" xmlns="http://www.w3.org/2000/svg">
<rect x="0.548828" y="0.179688" width="280.775" height="280.775" rx="35.7126" fill="white"/>
<path d="M33.5661 255.281L38.5831 236.939H43.1754L48.1659 255.281H46.0423L44.7416 250.636H36.9904L35.6897 255.281H33.5661ZM37.4417 248.751H44.2903L41.5562 238.744H40.1758L37.4417 248.751ZM54.6925 255.547C54.1616 255.547 53.6572 255.485 53.1794 255.361C52.7016 255.255 52.2592 255.06 51.8521 254.777C51.4628 254.494 51.1177 254.104 50.8169 253.609C50.516 253.096 50.286 252.441 50.1267 251.645C49.9674 250.848 49.8878 249.884 49.8878 248.751C49.8878 247.176 50.0736 245.875 50.4452 244.849C50.8169 243.805 51.4097 243.026 52.2238 242.513C53.0378 242 54.1173 241.743 55.4623 241.743C55.7985 241.743 56.1701 241.761 56.5772 241.796C56.9842 241.832 57.3735 241.876 57.7451 241.929C58.1345 241.982 58.4442 242.035 58.6742 242.088V236.248H60.7447V255.281H58.7008V254.405C58.4176 254.565 58.046 254.733 57.5859 254.91C57.1434 255.087 56.6656 255.237 56.1524 255.361C55.6569 255.485 55.1703 255.547 54.6925 255.547ZM54.9579 253.689C55.418 253.689 55.8781 253.635 56.3382 253.529C56.8161 253.423 57.2585 253.299 57.6655 253.158C58.0725 252.998 58.4088 252.857 58.6742 252.733V243.84C58.4619 243.805 58.1699 243.77 57.7982 243.734C57.4266 243.681 57.0373 243.637 56.6302 243.601C56.2409 243.566 55.887 243.548 55.5684 243.548C54.6659 243.548 53.958 243.743 53.4448 244.132C52.9316 244.522 52.56 245.106 52.3299 245.884C52.1176 246.645 52.0114 247.601 52.0114 248.751C52.0114 249.813 52.091 250.671 52.2503 251.326C52.4096 251.963 52.6219 252.459 52.8874 252.813C53.1705 253.149 53.4891 253.379 53.843 253.503C54.1969 253.627 54.5686 253.689 54.9579 253.689ZM67.0166 255.281L63.3003 242.009H65.5301L68.5562 253.503H69.565L72.6973 242.009H74.8209L71.1046 255.281H67.0166ZM80.1442 255.547C78.9231 255.547 77.994 255.202 77.357 254.511C76.7199 253.821 76.4013 252.813 76.4013 251.485C76.4013 250.618 76.5518 249.91 76.8526 249.362C77.1535 248.813 77.6047 248.397 78.2064 248.114C78.8258 247.813 79.5868 247.627 80.4893 247.557L84.5772 247.158V246.017C84.5772 245.114 84.3737 244.477 83.9667 244.106C83.5774 243.734 82.9934 243.548 82.2147 243.548C81.7723 243.548 81.2414 243.566 80.622 243.601C80.0203 243.637 79.4186 243.681 78.8169 243.734C78.2153 243.787 77.6844 243.84 77.2242 243.893L77.1181 242.327C77.5428 242.239 78.056 242.15 78.6577 242.062C79.2594 241.973 79.8876 241.903 80.5424 241.849C81.1972 241.779 81.7988 241.743 82.3474 241.743C83.3562 241.743 84.1791 241.903 84.8161 242.221C85.4532 242.522 85.9133 242.991 86.1965 243.628C86.4973 244.247 86.6477 245.044 86.6477 246.017V252.733C86.6831 253.122 86.8336 253.405 87.099 253.582C87.3822 253.759 87.7361 253.874 88.1608 253.927L88.0812 255.547C87.8334 255.547 87.5945 255.538 87.3645 255.52C87.1344 255.502 86.9132 255.467 86.7008 255.414C86.5062 255.379 86.3115 255.334 86.1168 255.281C85.8868 255.193 85.6656 255.087 85.4532 254.963C85.2586 254.839 85.0639 254.688 84.8692 254.511C84.533 254.653 84.0994 254.803 83.5685 254.963C83.0553 255.122 82.4979 255.255 81.8962 255.361C81.3122 255.485 80.7282 255.547 80.1442 255.547ZM80.4893 253.821C80.9671 253.821 81.4626 253.777 81.9758 253.689C82.489 253.6 82.9757 253.494 83.4358 253.37C83.8959 253.246 84.2764 253.131 84.5772 253.025V248.698L80.7282 249.07C79.9318 249.14 79.3567 249.371 79.0028 249.76C78.6665 250.149 78.4984 250.707 78.4984 251.432C78.4984 252.175 78.6665 252.759 79.0028 253.184C79.339 253.609 79.8345 253.821 80.4893 253.821ZM90.5752 255.281V242.009H92.6191V242.938C92.92 242.761 93.2916 242.584 93.734 242.407C94.1941 242.23 94.6808 242.08 95.194 241.956C95.7072 241.814 96.2027 241.743 96.6805 241.743C97.6008 241.743 98.3529 241.867 98.9369 242.115C99.5209 242.345 99.9721 242.725 100.291 243.256C100.627 243.77 100.857 244.442 100.981 245.274C101.122 246.088 101.193 247.079 101.193 248.247V255.281H99.1227V248.326C99.1227 247.176 99.0519 246.256 98.9103 245.566C98.7864 244.876 98.521 244.38 98.114 244.079C97.7246 243.761 97.123 243.601 96.3089 243.601C95.8665 243.601 95.4064 243.655 94.9286 243.761C94.4684 243.849 94.0349 243.973 93.6278 244.132C93.2208 244.274 92.8846 244.415 92.6191 244.557V255.281H90.5752ZM109.77 255.547C108.371 255.547 107.274 255.317 106.478 254.857C105.682 254.379 105.115 253.618 104.779 252.574C104.461 251.53 104.301 250.149 104.301 248.433C104.301 246.822 104.478 245.53 104.832 244.557C105.204 243.566 105.797 242.849 106.611 242.407C107.425 241.964 108.487 241.743 109.796 241.743C110.097 241.743 110.46 241.77 110.884 241.823C111.327 241.858 111.778 241.911 112.238 241.982C112.698 242.035 113.097 242.088 113.433 242.141L113.353 243.84C113.052 243.805 112.707 243.77 112.318 243.734C111.929 243.699 111.548 243.672 111.176 243.655C110.805 243.619 110.495 243.601 110.247 243.601C109.239 243.601 108.451 243.761 107.885 244.079C107.336 244.398 106.947 244.911 106.717 245.619C106.504 246.309 106.398 247.247 106.398 248.433C106.398 249.724 106.496 250.76 106.69 251.538C106.885 252.299 107.257 252.848 107.805 253.184C108.354 253.52 109.168 253.689 110.247 253.689C110.495 253.689 110.805 253.68 111.176 253.662C111.566 253.627 111.955 253.591 112.344 253.556C112.751 253.52 113.105 253.494 113.406 253.476L113.459 255.175C113.105 255.228 112.698 255.281 112.238 255.334C111.778 255.387 111.327 255.432 110.884 255.467C110.442 255.52 110.07 255.547 109.77 255.547ZM120.963 255.547C119.636 255.547 118.583 255.29 117.804 254.777C117.043 254.264 116.495 253.503 116.159 252.494C115.822 251.485 115.654 250.229 115.654 248.725C115.654 247.043 115.884 245.698 116.344 244.69C116.805 243.663 117.45 242.92 118.282 242.46C119.114 241.982 120.096 241.743 121.229 241.743C122.998 241.743 124.334 242.239 125.237 243.23C126.14 244.203 126.591 245.778 126.591 247.955L126.485 249.521H117.751C117.769 250.901 118.026 251.945 118.521 252.653C119.017 253.361 119.91 253.715 121.202 253.715C121.698 253.715 122.237 253.706 122.821 253.689C123.423 253.653 124.016 253.618 124.6 253.582C125.184 253.547 125.679 253.512 126.086 253.476L126.14 255.095C125.715 255.166 125.193 255.237 124.573 255.308C123.972 255.379 123.352 255.432 122.715 255.467C122.078 255.52 121.494 255.547 120.963 255.547ZM117.751 247.849H124.52C124.52 246.221 124.255 245.088 123.724 244.451C123.211 243.796 122.379 243.469 121.229 243.469C120.485 243.469 119.857 243.619 119.344 243.92C118.831 244.203 118.433 244.663 118.149 245.3C117.884 245.937 117.751 246.787 117.751 247.849ZM133.861 255.547C133.33 255.547 132.826 255.485 132.348 255.361C131.87 255.255 131.428 255.06 131.021 254.777C130.631 254.494 130.286 254.104 129.985 253.609C129.685 253.096 129.455 252.441 129.295 251.645C129.136 250.848 129.056 249.884 129.056 248.751C129.056 247.176 129.242 245.875 129.614 244.849C129.985 243.805 130.578 243.026 131.392 242.513C132.206 242 133.286 241.743 134.631 241.743C134.967 241.743 135.339 241.761 135.746 241.796C136.153 241.832 136.542 241.876 136.914 241.929C137.303 241.982 137.613 242.035 137.843 242.088V236.248H139.913V255.281H137.869V254.405C137.586 254.565 137.215 254.733 136.754 254.91C136.312 255.087 135.834 255.237 135.321 255.361C134.826 255.485 134.339 255.547 133.861 255.547ZM134.127 253.689C134.587 253.689 135.047 253.635 135.507 253.529C135.985 253.423 136.427 253.299 136.834 253.158C137.241 252.998 137.577 252.857 137.843 252.733V243.84C137.63 243.805 137.338 243.77 136.967 243.734C136.595 243.681 136.206 243.637 135.799 243.601C135.41 243.566 135.056 243.548 134.737 243.548C133.835 243.548 133.127 243.743 132.613 244.132C132.1 244.522 131.729 245.106 131.499 245.884C131.286 246.645 131.18 247.601 131.18 248.751C131.18 249.813 131.26 250.671 131.419 251.326C131.578 251.963 131.791 252.459 132.056 252.813C132.339 253.149 132.658 253.379 133.012 253.503C133.366 253.627 133.737 253.689 134.127 253.689ZM149.894 255.281V236.939H156.61C157.955 236.939 159.061 237.16 159.928 237.602C160.795 238.027 161.441 238.682 161.866 239.567C162.291 240.434 162.503 241.54 162.503 242.885C162.503 244.212 162.291 245.345 161.866 246.282C161.441 247.203 160.795 247.911 159.928 248.406C159.061 248.884 157.955 249.123 156.61 249.123H152.018V255.281H149.894ZM152.018 247.265H156.61C157.92 247.265 158.867 246.884 159.451 246.123C160.034 245.362 160.326 244.283 160.326 242.885C160.326 241.469 160.034 240.434 159.451 239.779C158.867 239.124 157.92 238.797 156.61 238.797H152.018V247.265ZM167.919 255.547C166.698 255.547 165.769 255.202 165.132 254.511C164.495 253.821 164.176 252.813 164.176 251.485C164.176 250.618 164.327 249.91 164.628 249.362C164.928 248.813 165.38 248.397 165.981 248.114C166.601 247.813 167.362 247.627 168.264 247.557L172.352 247.158V246.017C172.352 245.114 172.149 244.477 171.742 244.106C171.352 243.734 170.768 243.548 169.99 243.548C169.547 243.548 169.016 243.566 168.397 243.601C167.795 243.637 167.194 243.681 166.592 243.734C165.99 243.787 165.459 243.84 164.999 243.893L164.893 242.327C165.318 242.239 165.831 242.15 166.433 242.062C167.034 241.973 167.663 241.903 168.317 241.849C168.972 241.779 169.574 241.743 170.122 241.743C171.131 241.743 171.954 241.903 172.591 242.221C173.228 242.522 173.688 242.991 173.971 243.628C174.272 244.247 174.423 245.044 174.423 246.017V252.733C174.458 253.122 174.609 253.405 174.874 253.582C175.157 253.759 175.511 253.874 175.936 253.927L175.856 255.547C175.608 255.547 175.37 255.538 175.139 255.52C174.909 255.502 174.688 255.467 174.476 255.414C174.281 255.379 174.087 255.334 173.892 255.281C173.662 255.193 173.441 255.087 173.228 254.963C173.034 254.839 172.839 254.688 172.644 254.511C172.308 254.653 171.874 254.803 171.344 254.963C170.83 255.122 170.273 255.255 169.671 255.361C169.087 255.485 168.503 255.547 167.919 255.547ZM168.264 253.821C168.742 253.821 169.238 253.777 169.751 253.689C170.264 253.6 170.751 253.494 171.211 253.37C171.671 253.246 172.051 253.131 172.352 253.025V248.698L168.503 249.07C167.707 249.14 167.132 249.371 166.778 249.76C166.442 250.149 166.273 250.707 166.273 251.432C166.273 252.175 166.442 252.759 166.778 253.184C167.114 253.609 167.61 253.821 168.264 253.821ZM180.774 261.148L182.499 255.281H180.508L176.766 242.009H178.836L182.075 253.503H182.977L186.242 242.009H188.313L182.844 261.148H180.774ZM190.871 255.281V242.009H192.915V242.938C193.198 242.761 193.552 242.584 193.977 242.407C194.401 242.23 194.853 242.08 195.331 241.956C195.826 241.814 196.295 241.743 196.737 241.743C197.622 241.743 198.33 241.849 198.861 242.062C199.41 242.274 199.852 242.619 200.188 243.097C200.542 242.902 200.976 242.699 201.489 242.487C202.002 242.274 202.551 242.097 203.135 241.956C203.736 241.814 204.32 241.743 204.887 241.743C205.789 241.743 206.533 241.858 207.117 242.088C207.701 242.318 208.152 242.69 208.47 243.203C208.807 243.716 209.037 244.389 209.161 245.221C209.302 246.035 209.373 247.043 209.373 248.247V255.281H207.329V248.326C207.329 247.176 207.258 246.256 207.117 245.566C206.993 244.876 206.736 244.38 206.347 244.079C205.957 243.761 205.365 243.601 204.568 243.601C204.108 243.601 203.639 243.655 203.161 243.761C202.701 243.849 202.268 243.973 201.861 244.132C201.471 244.274 201.153 244.415 200.905 244.557C201.029 245.017 201.108 245.592 201.144 246.282C201.197 246.955 201.224 247.654 201.224 248.38V255.281H199.18V248.433C199.18 247.229 199.118 246.282 198.994 245.592C198.87 244.884 198.604 244.38 198.197 244.079C197.808 243.761 197.215 243.601 196.419 243.601C195.976 243.601 195.525 243.655 195.065 243.761C194.623 243.849 194.216 243.973 193.844 244.132C193.472 244.274 193.163 244.415 192.915 244.557V255.281H190.871ZM217.759 255.547C216.432 255.547 215.379 255.29 214.601 254.777C213.84 254.264 213.291 253.503 212.955 252.494C212.619 251.485 212.45 250.229 212.45 248.725C212.45 247.043 212.68 245.698 213.141 244.69C213.601 243.663 214.247 242.92 215.078 242.46C215.91 241.982 216.892 241.743 218.025 241.743C219.795 241.743 221.131 242.239 222.033 243.23C222.936 244.203 223.387 245.778 223.387 247.955L223.281 249.521H214.547C214.565 250.901 214.822 251.945 215.317 252.653C215.813 253.361 216.706 253.715 217.998 253.715C218.494 253.715 219.034 253.706 219.618 253.689C220.219 253.653 220.812 253.618 221.396 253.582C221.98 253.547 222.476 253.512 222.883 253.476L222.936 255.095C222.511 255.166 221.989 255.237 221.37 255.308C220.768 255.379 220.148 255.432 219.511 255.467C218.874 255.52 218.29 255.547 217.759 255.547ZM214.547 247.849H221.316C221.316 246.221 221.051 245.088 220.52 244.451C220.007 243.796 219.175 243.469 218.025 243.469C217.282 243.469 216.653 243.619 216.14 243.92C215.627 244.203 215.229 244.663 214.946 245.3C214.68 245.937 214.547 246.787 214.547 247.849ZM226.463 255.281V242.009H228.507V242.938C228.808 242.761 229.18 242.584 229.622 242.407C230.082 242.23 230.569 242.08 231.082 241.956C231.595 241.814 232.091 241.743 232.568 241.743C233.489 241.743 234.241 241.867 234.825 242.115C235.409 242.345 235.86 242.725 236.179 243.256C236.515 243.77 236.745 244.442 236.869 245.274C237.01 246.088 237.081 247.079 237.081 248.247V255.281H235.011V248.326C235.011 247.176 234.94 246.256 234.798 245.566C234.674 244.876 234.409 244.38 234.002 244.079C233.613 243.761 233.011 243.601 232.197 243.601C231.754 243.601 231.294 243.655 230.817 243.761C230.356 243.849 229.923 243.973 229.516 244.132C229.109 244.274 228.773 244.415 228.507 244.557V255.281H226.463ZM245.022 255.573C244.102 255.573 243.368 255.432 242.819 255.149C242.288 254.865 241.908 254.379 241.678 253.689C241.448 252.981 241.333 251.99 241.333 250.715V243.787H239.448V242.009H241.333V237.947H243.376V242.009H247.544V243.787H243.376V250.105C243.376 251.043 243.412 251.777 243.483 252.308C243.571 252.821 243.748 253.184 244.014 253.397C244.279 253.609 244.695 253.715 245.261 253.715C245.438 253.715 245.668 253.706 245.951 253.689C246.234 253.671 246.518 253.653 246.801 253.635C247.102 253.6 247.367 253.574 247.597 253.556L247.73 255.281C247.482 255.317 247.19 255.352 246.854 255.387C246.518 255.441 246.181 255.485 245.845 255.52C245.527 255.556 245.252 255.573 245.022 255.573Z" fill="#111111"/>
<path d="M83.3232 107H199.323V187C199.323 192.523 194.846 197 189.323 197H93.3232C87.8004 197 83.3232 192.523 83.3232 187V107Z" fill="#B8CEDC"/>
<path d="M83.3232 92C83.3232 86.4772 87.8004 82 93.3232 82H189.323C194.846 82 199.323 86.4772 199.323 92V104H83.3232V92Z" fill="#E6EEF3"/>
<g clip-path="url(#clip0_1_14684)">
<circle cx="111.058" cy="123.76" r="7.73362" fill="white" fill-opacity="0.5"/>
<ellipse cx="129.551" cy="123.76" rx="7.73363" ry="7.73362" fill="white" fill-opacity="0.5"/>
<ellipse cx="148.045" cy="123.76" rx="7.73363" ry="7.73362" fill="white" fill-opacity="0.5"/>
<circle cx="111.058" cy="142.253" r="7.73362" fill="white" fill-opacity="0.5"/>
<ellipse cx="129.551" cy="142.253" rx="7.73363" ry="7.73362" fill="white" fill-opacity="0.5"/>
<ellipse cx="148.045" cy="142.253" rx="7.73363" ry="7.73362" fill="white" fill-opacity="0.5"/>
<ellipse cx="111.058" cy="160.747" rx="7.73362" ry="7.73362" fill="white" fill-opacity="0.5"/>
<ellipse cx="129.551" cy="160.747" rx="7.73363" ry="7.73362" fill="white" fill-opacity="0.5"/>
<ellipse cx="148.045" cy="160.747" rx="7.73363" ry="7.73362" fill="white" fill-opacity="0.5"/>
<circle cx="111.058" cy="179.24" r="7.73362" fill="white" fill-opacity="0.5"/>
<ellipse cx="129.551" cy="179.24" rx="7.73363" ry="7.73362" fill="white" fill-opacity="0.5"/>
<ellipse cx="148.045" cy="179.24" rx="7.73363" ry="7.73362" fill="white" fill-opacity="0.5"/>
<circle cx="172.591" cy="123.76" r="7.73362" fill="white"/>
<circle cx="172.591" cy="142.253" r="7.73362" fill="#F4AC31"/>
<ellipse cx="172.591" cy="160.747" rx="7.73362" ry="7.73362" fill="white"/>
<circle cx="172.591" cy="179.24" r="7.73362" fill="white"/>
</g>
<rect x="123.323" y="73" width="8" height="14" rx="4" fill="black"/>
<rect x="152.323" y="73" width="8" height="14" rx="4" fill="black"/>
<defs>
<clipPath id="clip0_1_14684">
<rect width="77" height="77" fill="white" transform="translate(103.324 113)"/>
</clipPath>
</defs>
</svg>
