<svg width="17" height="16" viewBox="0 0 17 16" fill="none" xmlns="http://www.w3.org/2000/svg">
<g clip-path="url(#clip0_1_9481)">
<path d="M15.5935 6.9995V7.5745C15.5926 8.92226 15.1271 10.2337 14.2664 11.3131C13.4056 12.3926 12.1957 13.1823 10.817 13.5644C9.43842 13.9466 7.96497 13.9007 6.61645 13.4336C5.26792 12.9665 4.11657 12.1033 3.33411 10.9727C2.55164 9.84202 2.17999 8.50454 2.27458 7.1597C2.36917 5.81485 2.92494 4.5347 3.85899 3.51017C4.79303 2.48564 6.05532 1.77161 7.45759 1.47459C8.85986 1.17757 10.327 1.31346 11.6401 1.862" stroke="#2C8C2F" stroke-width="1.26182" stroke-linecap="round" stroke-linejoin="round"/>
<path d="M15.5935 2.57446L8.92679 8.83071L6.92679 6.95571" stroke="#2C8C2F" stroke-width="1.26182" stroke-linecap="round" stroke-linejoin="round"/>
</g>
<defs>
<clipPath id="clip0_1_9481">
<rect width="16" height="15" fill="white" transform="translate(0.926788 0.0744629)"/>
</clipPath>
</defs>
</svg>
