<svg width="37" height="36" viewBox="0 0 37 36" fill="none" xmlns="http://www.w3.org/2000/svg">
<g clip-path="url(#clip0_1_9464)">
<rect x="0.964722" y="0.5" width="35.7292" height="35" rx="17.5" fill="#F93939"/>
<path d="M33.2911 0.5H4.3675C2.4882 0.5 0.964722 2.58934 0.964722 5.16667V30.8333C0.964722 33.4107 2.4882 35.5 4.3675 35.5H33.2911C35.1704 35.5 36.6939 33.4107 36.6939 30.8333V5.16667C36.6939 2.58934 35.1704 0.5 33.2911 0.5Z" fill="#F93939"/>
<path fill-rule="evenodd" clip-rule="evenodd" d="M10.3192 17.3701L7.81812 19.1738L8.2945 15.3541L6.27325 12.6475L9.06864 12.0945L10.3192 8.61779L11.568 12.0945L14.3634 12.6475L12.3387 15.3541L12.8185 19.1715L10.3192 17.3701ZM16.2774 7.50012H17.9788V9.83346H16.2774V7.50012ZM17.9788 12.1668H19.6802V14.5001H17.9788V12.1668ZM17.9788 16.8335H19.6802V19.1668H17.9788V16.8335ZM16.2774 21.5001H17.9788V23.8335H16.2774V21.5001Z" fill="#FFDA2C"/>
</g>
<defs>
<clipPath id="clip0_1_9464">
<rect x="0.964722" y="0.5" width="35.7292" height="35" rx="17.5" fill="white"/>
</clipPath>
</defs>
</svg>
