<svg width="36" height="34" viewBox="0 0 36 34" fill="none" xmlns="http://www.w3.org/2000/svg">
<circle cx="17.5" cy="17.5" r="17.5" transform="matrix(-1 0 0 1 35.4487 0)" fill="#0054A4"/>
<path d="M27.7952 9.81958L27.3639 11.1634H25.9499L27.0932 11.9958L26.6519 13.3396L27.7952 12.5073L28.9384 13.3396L28.5072 11.9958L29.6505 11.1634H28.2364L27.7952 9.81958Z" fill="#FFD104"/>
<path d="M23.7172 5.66614L23.2859 7.00998H21.8719L23.0152 7.84235L22.5739 9.18619L23.7172 8.35382L24.8604 9.18619L24.4292 7.84235L25.5725 7.00998H24.1584L23.7172 5.66614Z" fill="#FFD104"/>
<path d="M17.8982 4.10059L17.467 5.44443H16.053L17.1962 6.26678L16.755 7.61061L17.8982 6.78827L19.0415 7.61061L18.6103 6.26678L19.7535 5.44443H18.3395L17.8982 4.10059Z" fill="#FFD104"/>
<path d="M12.1534 5.67749L11.7122 7.02133H10.3081L11.4514 7.84368L11.0101 9.18752L12.1534 8.36517L13.2967 9.18752L12.8554 7.84368L13.9987 7.02133H12.5846L12.1534 5.67749Z" fill="#FFD104"/>
<path d="M7.92264 9.91016L7.48138 11.254H6.06734L7.21061 12.0864L6.77937 13.4302L7.92264 12.5978L9.06591 13.4302L8.62465 12.0864L9.76791 11.254H8.35387L7.92264 9.91016Z" fill="#FFD104"/>
<path d="M6.34895 15.7235L5.91772 17.0674H4.50369L5.64695 17.8897L5.20569 19.2335L6.34895 18.4112L7.49222 19.2335L7.06099 17.8897L8.20425 17.0674H6.79022L6.34895 15.7235Z" fill="#FFD104"/>
<path d="M7.92015 21.5632L7.48892 22.9071H6.07488L7.21815 23.7294L6.77688 25.0733L7.92015 24.2409L9.06342 25.0733L8.63218 23.7294L9.77545 22.9071H8.36141L7.92015 21.5632Z" fill="#FFD104"/>
<path d="M12.1547 25.7618L11.7235 27.1057H10.3094L11.4527 27.9381L11.0114 29.2819L12.1547 28.4495L13.298 29.2819L12.8667 27.9381L14.01 27.1057H12.596L12.1547 25.7618Z" fill="#FFD104"/>
<path d="M17.8894 27.2972L17.4481 28.6411H16.0441L17.1774 29.4735L16.7461 30.8173L17.8894 29.9849L19.0327 30.8173L18.5914 29.4735L19.7347 28.6411H18.3206L17.8894 27.2972Z" fill="#FFD104"/>
<path d="M23.7008 25.7317L23.2596 27.0755H21.8455L22.9888 27.9079L22.5575 29.2517L23.7008 28.4194L24.8441 29.2517L24.4028 27.9079L25.5461 27.0755H24.132L23.7008 25.7317Z" fill="#FFD104"/>
<path d="M27.8461 21.533L27.4149 22.8768H26.0008L27.1441 23.6991L26.7129 25.043L27.8461 24.2206L28.9894 25.043L28.5581 23.6991L29.7014 22.8768H28.2874L27.8461 21.533Z" fill="#FFD104"/>
<path d="M29.4412 15.614L29 16.9679H27.5759L28.7292 17.8103L28.288 19.1642L29.4412 18.3318L30.5945 19.1642L30.1533 17.8103L31.3066 16.9679H29.8825L29.4412 15.614Z" fill="#FFD104"/>
</svg>
