<svg width="22" height="22" viewBox="0 0 22 22" fill="none" xmlns="http://www.w3.org/2000/svg">
<path d="M10.6845 19.7238C15.5027 19.7238 19.4087 15.8178 19.4087 10.9996C19.4087 6.18134 15.5027 2.27539 10.6845 2.27539C5.86625 2.27539 1.9603 6.18134 1.9603 10.9996C1.9603 15.8178 5.86625 19.7238 10.6845 19.7238Z" stroke="black" stroke-width="1.30863" stroke-linecap="round" stroke-linejoin="round"/>
<path d="M7.19481 3.14795H8.06723C6.36602 8.24287 6.36602 13.7566 8.06723 18.8515H7.19481" stroke="black" stroke-width="1.30863" stroke-linecap="round" stroke-linejoin="round"/>
<path d="M13.3017 3.14795C15.0029 8.24287 15.0029 13.7566 13.3017 18.8515" stroke="black" stroke-width="1.30863" stroke-linecap="round" stroke-linejoin="round"/>
<path d="M2.8327 14.4896V13.6172C7.92763 15.3184 13.4413 15.3184 18.5362 13.6172V14.4896" stroke="black" stroke-width="1.30863" stroke-linecap="round" stroke-linejoin="round"/>
<path d="M2.8327 8.38285C7.92763 6.68163 13.4413 6.68163 18.5362 8.38285" stroke="black" stroke-width="1.30863" stroke-linecap="round" stroke-linejoin="round"/>
</svg>
