<svg width="30" height="30" viewBox="0 0 30 30" fill="none" xmlns="http://www.w3.org/2000/svg">
<path d="M15.0043 27.2191C21.784 27.2191 27.2801 21.7231 27.2801 14.9433C27.2801 8.16356 21.784 2.66748 15.0043 2.66748C8.22453 2.66748 2.72845 8.16356 2.72845 14.9433C2.72845 21.7231 8.22453 27.2191 15.0043 27.2191Z" stroke="#A40F21" stroke-width="0.88386" stroke-linecap="round" stroke-linejoin="round"/>
<path d="M10.0939 3.89502H11.3215C8.92774 11.0641 8.92774 18.8224 11.3215 25.9915H10.0939" stroke="#A40F21" stroke-width="0.88386" stroke-linecap="round" stroke-linejoin="round"/>
<path d="M18.687 3.89502C21.0808 11.0641 21.0808 18.8224 18.687 25.9915" stroke="#A40F21" stroke-width="0.88386" stroke-linecap="round" stroke-linejoin="round"/>
<path d="M3.95599 19.8536V18.626C11.1251 21.0198 18.8834 21.0198 26.0525 18.626V19.8536" stroke="#A40F21" stroke-width="0.88386" stroke-linecap="round" stroke-linejoin="round"/>
<path d="M3.95599 11.2607C11.1251 8.86689 18.8834 8.86689 26.0525 11.2607" stroke="#A40F21" stroke-width="0.88386" stroke-linecap="round" stroke-linejoin="round"/>
</svg>
