<svg width="36" height="36" viewBox="0 0 36 36" fill="none" xmlns="http://www.w3.org/2000/svg">
<rect width="36" height="36" rx="18" fill="#333336"/>
<path d="M24.525 16.659H19.35V11.475C19.35 11.117 19.2078 10.7736 18.9546 10.5204C18.7014 10.2672 18.358 10.125 18 10.125C17.642 10.125 17.2986 10.2672 17.0454 10.5204C16.7922 10.7736 16.65 11.117 16.65 11.475V16.65H11.475C11.117 16.65 10.7736 16.7922 10.5204 17.0454C10.2672 17.2986 10.125 17.642 10.125 18C10.125 18.358 10.2672 18.7014 10.5204 18.9546C10.7736 19.2078 11.117 19.35 11.475 19.35H16.65V24.525C16.65 24.883 16.7922 25.2264 17.0454 25.4796C17.2986 25.7328 17.642 25.875 18 25.875C18.358 25.875 18.7014 25.7328 18.9546 25.4796C19.2078 25.2264 19.35 24.883 19.35 24.525V19.35H24.525C24.883 19.35 25.2264 19.2078 25.4796 18.9546C25.7328 18.7014 25.875 18.358 25.875 18C25.875 17.642 25.7328 17.2986 25.4796 17.0454C25.2264 16.7922 24.883 16.65 24.525 16.65V16.659Z" fill="#D6D6D7"/>
</svg>
