<svg width="39" height="39" viewBox="0 0 39 39" fill="none" xmlns="http://www.w3.org/2000/svg">
<path d="M6.453 30.6586C10.0273 34.1608 14.2469 36.6414 18.7417 38.1103L20.3235 36.5607C17.3527 35.5214 14.5657 33.8362 12.1898 31.507C8.086 27.4903 5.94539 22.2863 5.75123 17.0259L0.373169 22.2916C1.86694 25.317 3.88879 28.1493 6.453 30.6586Z" fill="#C91229"/>
<path d="M31.2329 32.2493C34.8091 28.7468 37.3405 24.6122 38.8424 20.2139L37.257 18.6646C36.1957 21.5713 34.4755 24.3029 32.0993 26.6305C27.9976 30.6488 22.6829 32.7462 17.3113 32.9371L22.6891 38.2046C25.7779 36.737 28.6695 34.7597 31.2329 32.2493Z" fill="#F4AC31"/>
<path d="M32.856 7.9789C29.2809 4.47828 25.0578 1.99905 20.5674 0.528809L18.9847 2.07896C21.954 3.12039 24.7436 4.8016 27.1187 7.13289C31.2214 11.1499 33.3639 16.3533 33.5573 21.6122L38.9361 16.347C37.4432 13.3229 35.4197 10.4898 32.856 7.9789Z" fill="#C91229"/>
<path d="M8.07568 6.3896C4.49974 9.89074 1.96892 14.0248 0.465454 18.4253L2.04701 19.9746C3.11072 17.0671 4.83151 14.3379 7.21125 12.0079C11.3102 7.99064 16.6257 5.89275 21.9976 5.70208L16.6198 0.435059C13.5318 1.90055 10.6383 3.88003 8.07568 6.3896Z" fill="#F4AC31"/>
</svg>
