<svg width="121" height="47" viewBox="0 0 121 47" fill="none" xmlns="http://www.w3.org/2000/svg">
<path d="M57.973 24.3413C54.1917 24.3413 50.2795 27.1433 50.2795 31.8334C50.2795 36.0157 53.9338 39.2921 58.5983 39.2921C60.4184 39.2921 61.8561 39.0122 63.1159 38.4089V36.0486C61.8857 36.6571 60.5426 36.955 59.0147 36.955C55.2561 36.955 53.4159 34.3727 53.3091 32.5406L53.3022 32.4279H63.1397L64.6421 31.1446V29.7253C64.6419 27.1163 62.3048 24.3413 57.973 24.3413ZM61.6625 30.1993L61.6404 30.2798H53.4917L53.5184 30.1531C53.9226 28.2029 56.0004 26.6166 58.1471 26.6166C60.2735 26.6166 61.702 28.2574 61.702 29.7904C61.7023 29.9223 61.7023 30.0583 61.6625 30.1993Z" fill="white"/>
<path d="M75.6753 24.3413C73.1383 24.3413 72.04 24.9579 70.9011 26.0956L70.7209 26.2746L70.569 24.6937H68.0171V38.9415H70.9407V29.7578C70.9407 28.2456 72.1626 26.6164 74.8419 26.6164C77.6151 26.6164 78.605 28.2388 78.605 29.7578V38.9412H81.5286V29.469C81.5286 26.4042 79.1763 24.3413 75.6753 24.3413Z" fill="white"/>
<path d="M82.4751 44.6633L84.2913 46.3051C86.4631 45.8106 88.6864 43.5637 88.6864 40.6129V24.6924H85.7609V40.389C85.7607 42.6783 84.6274 44.1531 82.4751 44.6633Z" fill="white"/>
<path d="M103.99 35.3139V29.47C103.99 26.308 101.719 24.3408 98.0645 24.3408C96.1074 24.3408 94.3785 24.7514 93.0608 25.5283L93.6267 27.7012C94.8065 27.0201 96.3874 26.6161 97.8923 26.6161C99.9082 26.6161 101.064 27.5173 101.064 29.0866V30.1096L97.0009 30.4713C94.6981 30.6862 92.2118 32.4279 92.2118 34.8672C92.2118 37.7422 94.7627 39.2916 97.163 39.2916C99.0326 39.2916 100.484 38.6832 101.478 37.4829L101.61 37.3247L101.682 37.5126C102.018 38.3826 102.836 39.0557 103.826 39.2799L105.641 37.6108C104.616 37.3554 103.99 36.4935 103.99 35.3139ZM101.064 33.6847C101.064 35.5779 99.0414 37.049 97.3023 37.049C96.0316 37.049 94.9968 36.1269 94.9968 34.9952C94.9968 33.8983 95.8679 32.7216 97.5351 32.588L101.065 32.2887V33.6847H101.064Z" fill="white"/>
<path d="M112.05 36.6042L112.1 36.5333C113.14 35.0091 114.059 33.6207 114.91 32.2886L119.512 25.129V24.6929H108.29V26.9033H115.094L115.229 27.0276L115.18 27.1005C114.134 28.6333 113.215 30.0199 112.37 31.3432L107.803 38.5028V38.9404H120.137V36.7302H112.185L112.05 36.6042Z" fill="white"/>
<path d="M118.009 13.1583V1.47461H115.085V13.5416C115.085 16.3736 117.278 17.2075 118.057 17.4121L120.011 15.6151C118.993 15.3509 118.009 14.408 118.009 13.1583Z" fill="white"/>
<path d="M59.9622 14.7864V6.84521H57.0381V14.4991C57.0381 16.0181 56.0484 17.6405 53.2763 17.6405H50.2382V19.9141H54.1087C57.6097 19.9141 59.9622 17.8527 59.9622 14.7864Z" fill="white"/>
<path d="M68.6233 17.4253H106.009C109.509 17.4253 111.862 15.3639 111.862 12.2976V6.85027H108.937V12.0089C108.937 13.5291 107.95 15.1517 105.177 15.1517H94.9164V13.4842C94.9164 9.85192 91.9643 5.99156 86.4947 5.99156C84.5987 5.99156 82.9963 6.32944 81.5945 7.02485L82.1305 9.35197C83.4064 8.63864 84.6577 8.33047 86.2867 8.33047C89.0346 8.33047 91.9574 10.1365 91.9574 13.4842V15.1517H69.4568C66.6827 15.1517 65.6936 13.5293 65.6936 12.0089V1.39355H62.7684V12.2979C62.7682 15.3639 65.1218 17.4253 68.6233 17.4253Z" fill="white"/>
<path d="M87.2523 19.0129L85.2124 20.8892L87.2523 22.7654L89.2922 20.8892L87.2523 19.0129Z" fill="white"/>
<path d="M110.409 1.34941L108.368 3.22559L110.408 5.10255L112.448 3.22638L110.409 1.34941Z" fill="white"/>
<path d="M58.325 1.35403L56.2849 3.23047L58.325 5.1069L60.365 3.23047L58.325 1.35403Z" fill="white"/>
<path d="M6.69956 31.9152C10.6403 35.5384 15.2898 38.1052 20.2396 39.6251L21.9824 38.0222C18.7123 36.9434 15.6419 35.2017 13.0206 32.7918C8.50159 28.6341 6.1408 23.2498 5.92669 17.8066L0 23.255C1.64666 26.3846 3.87557 29.3177 6.69956 31.9152Z" fill="#CE0E2D"/>
<path d="M34.0029 33.5595C37.942 29.9351 40.7321 25.6568 42.3859 21.1052L40.6418 19.5024C39.4693 22.5102 37.5757 25.3358 34.9554 27.7455C30.4354 31.9022 24.5818 34.0734 18.6637 34.2703L24.5888 39.7219C27.9902 38.2071 31.1786 36.1572 34.0029 33.5595Z" fill="#F5B335"/>
<path d="M35.7918 8.44404C31.8513 4.82113 27.1999 2.25485 22.2514 0.734375L20.5087 2.3376C23.779 3.41607 26.8494 5.15779 29.4705 7.56889C33.9897 11.7242 36.3505 17.1097 36.5646 22.5531L42.4911 17.103C40.8441 13.9759 38.6158 11.0423 35.7918 8.44404Z" fill="#CE0E2D"/>
<path d="M8.48828 6.79964C4.54784 10.4243 1.75882 14.7011 0.105225 19.2539L1.84933 20.8584C3.02212 17.8491 4.91545 15.025 7.53547 12.6139C12.0547 8.45713 17.9093 6.28594 23.8275 6.08901L17.9024 0.637695C14.5012 2.15375 11.3125 4.20364 8.48828 6.79964Z" fill="#F5B335"/>
</svg>
