<svg width="24" height="26" viewBox="0 0 24 26" fill="none" xmlns="http://www.w3.org/2000/svg">
<path fill-rule="evenodd" clip-rule="evenodd" d="M1.33398 25.5092L12.1043 14.5708L15.9007 18.426L3.09716 25.6561C2.61034 25.9311 2.01409 25.9269 1.53034 25.6446L1.33398 25.5092ZM11.0182 13.4677L0.75 23.8957V3.03973L11.0182 13.4677ZM17.4348 9.15838L22.4512 11.9907C22.9442 12.2698 23.25 12.7927 23.25 13.3594C23.25 13.9261 22.9442 14.449 22.4512 14.7281L17.2977 17.6375L13.1915 13.4677L17.4348 9.15838ZM1.22045 1.31059C1.3125 1.21996 1.4158 1.1408 1.53034 1.07413C2.01409 0.791836 2.61034 0.787676 3.09716 1.06267L16.0377 8.36988L12.1043 12.3646L1.22045 1.31059Z" fill="#111111" fill-opacity="0.4"/>
</svg>
