<svg width="202" height="158" viewBox="0 0 202 158" fill="none" xmlns="http://www.w3.org/2000/svg">
<path d="M168.241 132.035C167.467 133.366 165.543 133.36 164.777 132.025L159.176 122.259C158.41 120.923 159.377 119.259 160.917 119.264L172.175 119.296C173.715 119.301 174.672 120.97 173.898 122.301L168.241 132.035Z" fill="#F5F5F5"/>
<rect x="105" y="18.998" width="94" height="106" rx="10" fill="#F5F5F5"/>
<path d="M192.143 131.573C191.451 133.032 189.404 133.112 188.601 131.711L182.799 121.594C182.131 120.429 182.778 118.95 184.087 118.649L195.981 115.921C197.61 115.547 198.951 117.217 198.235 118.727L192.143 131.573Z" fill="#F5F5F5"/>
<path d="M180.241 132.035C179.467 133.366 177.543 133.36 176.777 132.025L171.176 122.259C170.41 120.923 171.377 119.259 172.917 119.264L184.175 119.296C185.715 119.301 186.672 120.97 185.898 122.301L180.241 132.035Z" fill="#F5F5F5"/>
<path d="M156.241 133.035C155.467 134.366 153.543 134.36 152.777 133.025L147.176 123.259C146.41 121.923 147.377 120.259 148.917 120.264L160.175 120.296C161.715 120.301 162.672 121.97 161.898 123.301L156.241 133.035Z" fill="#F5F5F5"/>
<line x1="185" y1="65.998" x2="173" y2="65.998" stroke="#D9D9D9" stroke-width="4" stroke-linecap="round"/>
<line x1="185" y1="71.998" x2="173" y2="71.998" stroke="#D9D9D9" stroke-width="4" stroke-linecap="round"/>
<line x1="152" y1="65.998" x2="140" y2="65.998" stroke="#D9D9D9" stroke-width="4" stroke-linecap="round"/>
<line x1="151" y1="70.998" x2="137" y2="70.998" stroke="#D9D9D9" stroke-width="2" stroke-linecap="round"/>
<line x1="151" y1="74.998" x2="137" y2="74.998" stroke="#D9D9D9" stroke-width="2" stroke-linecap="round"/>
<line x1="151" y1="96.998" x2="139" y2="96.998" stroke="#D9D9D9" stroke-width="4" stroke-linecap="round"/>
<line x1="152" y1="45.998" x2="140" y2="45.998" stroke="#D9D9D9" stroke-width="4" stroke-linecap="round"/>
<line x1="184" y1="45.998" x2="172" y2="45.998" stroke="#D9D9D9" stroke-width="4" stroke-linecap="round"/>
<g filter="url(#filter0_d_1_13605)">
<path d="M173.468 97.7949C173.639 97.8906 173.839 97.9681 174.066 98.0273C174.294 98.0866 174.543 98.1162 174.812 98.1162C174.916 98.1162 175.017 98.1105 175.112 98.0991C175.21 98.0854 175.297 98.0615 175.372 98.0273C175.447 97.9932 175.507 97.9453 175.55 97.8838C175.595 97.8223 175.618 97.7414 175.618 97.6411C175.618 97.4862 175.561 97.3688 175.447 97.2891C175.331 97.2093 175.188 97.141 175.017 97.084C174.848 97.0247 174.663 96.9666 174.463 96.9097C174.262 96.8527 174.077 96.7707 173.906 96.6636C173.733 96.5565 173.59 96.4152 173.479 96.2397C173.365 96.0597 173.308 95.8216 173.308 95.5254C173.308 95.2337 173.373 94.9899 173.502 94.7939C173.632 94.6025 173.8 94.4499 174.005 94.3359C174.205 94.2243 174.432 94.1457 174.685 94.1001C174.938 94.0522 175.189 94.0283 175.437 94.0283C175.676 94.0283 175.904 94.0454 176.121 94.0796C176.339 94.1115 176.531 94.1548 176.695 94.2095L176.613 95.2178C176.442 95.138 176.264 95.0811 176.08 95.0469C175.897 95.0127 175.713 94.9956 175.526 94.9956C175.444 94.9956 175.352 94.999 175.249 95.0059C175.149 95.0127 175.054 95.0309 174.965 95.0605C174.876 95.0902 174.801 95.1357 174.74 95.1973C174.681 95.2588 174.651 95.3431 174.651 95.4502C174.651 95.5778 174.708 95.6781 174.822 95.751C174.938 95.8193 175.08 95.8797 175.249 95.9321C175.42 95.9845 175.606 96.0392 175.806 96.0962C176.002 96.1486 176.188 96.2295 176.363 96.3389C176.534 96.446 176.677 96.5884 176.791 96.7661C176.904 96.9461 176.961 97.182 176.961 97.4736C176.961 97.7904 176.901 98.0524 176.78 98.2598C176.66 98.4671 176.498 98.6323 176.295 98.7554C176.094 98.8761 175.865 98.9604 175.608 99.0083C175.35 99.0584 175.085 99.0835 174.812 99.0835C174.695 99.0835 174.577 99.0789 174.456 99.0698C174.335 99.0607 174.209 99.047 174.077 99.0288C173.812 98.9946 173.572 98.9422 173.355 98.8716L173.468 97.7949ZM179.99 95.1187H179.973L179.344 97.0327H180.571L179.99 95.1187ZM179.19 94.1104H180.786L182.669 98.998H181.241L180.878 97.9556H179.043L178.657 98.998H177.334L179.19 94.1104ZM184.45 96.1406H184.792C184.897 96.1406 185.005 96.1372 185.117 96.1304C185.231 96.1235 185.333 96.103 185.424 96.0688C185.518 96.0324 185.594 95.9766 185.653 95.9014C185.713 95.8239 185.743 95.7157 185.746 95.5767C185.746 95.4604 185.719 95.367 185.667 95.2964C185.615 95.2257 185.544 95.1711 185.455 95.1323C185.368 95.0936 185.267 95.0685 185.151 95.0571C185.037 95.0435 184.917 95.0366 184.792 95.0366H184.45V96.1406ZM183.148 94.1104H185.472C185.686 94.1104 185.889 94.1354 186.081 94.1855C186.272 94.2357 186.439 94.312 186.583 94.4146C186.727 94.5171 186.839 94.6458 186.921 94.8008C187.006 94.9557 187.048 95.1369 187.048 95.3442C187.048 95.6701 186.97 95.939 186.815 96.1509C186.66 96.3605 186.425 96.5018 186.108 96.5747V96.5884C186.213 96.618 186.296 96.6636 186.357 96.7251C186.421 96.7843 186.476 96.8595 186.521 96.9507C186.567 97.0418 186.609 97.1478 186.648 97.2686C186.689 97.387 186.74 97.5203 186.802 97.6685L187.277 98.998H185.92L185.64 98.1162C185.574 97.9066 185.511 97.7345 185.452 97.6001C185.395 97.4634 185.332 97.3563 185.264 97.2788C185.198 97.1991 185.121 97.1444 185.035 97.1147C184.95 97.0828 184.847 97.0669 184.724 97.0669H184.45V98.998H183.148V94.1104Z" fill="#F4AC31"/>
</g>
<rect x="53" y="-0.00195312" width="94" height="158" rx="13" fill="#D9D9D9"/>
<rect x="57" y="11.998" width="85" height="139" rx="13" fill="white"/>
<rect x="71" y="113.998" width="57" height="16" rx="5" fill="#CE0E2D"/>
<g filter="url(#filter1_d_1_13605)">
<path d="M85.5811 119.11H86.8628C87.1134 119.11 87.3493 119.135 87.5703 119.186C87.7936 119.233 87.9884 119.314 88.1548 119.428C88.3211 119.542 88.4521 119.693 88.5479 119.879C88.6458 120.066 88.6948 120.299 88.6948 120.577C88.6948 120.846 88.6458 121.073 88.5479 121.26C88.4499 121.447 88.32 121.599 88.1582 121.715C87.9987 121.831 87.8153 121.915 87.6079 121.968C87.4006 122.02 87.1864 122.046 86.9653 122.046H86.2817V123.998H85.5811V119.11ZM86.2817 121.428H86.9756C87.085 121.428 87.1966 121.414 87.3105 121.387C87.4268 121.357 87.5316 121.309 87.625 121.243C87.7207 121.175 87.7993 121.086 87.8608 120.977C87.9224 120.865 87.9531 120.728 87.9531 120.566C87.9531 120.414 87.9167 120.284 87.8438 120.177C87.7731 120.07 87.6831 119.983 87.5737 119.917C87.4666 119.851 87.3504 119.803 87.2251 119.773C87.0998 119.744 86.9836 119.729 86.8765 119.729H86.2817V121.428ZM91.5762 122.296C91.5078 122.296 91.4383 122.294 91.3677 122.289C91.297 122.285 91.2275 122.282 91.1592 122.282C91.1136 122.282 91.0623 122.285 91.0054 122.289C90.9484 122.291 90.8846 122.295 90.814 122.299C90.6772 122.308 90.5405 122.338 90.4038 122.388C90.2716 122.431 90.1577 122.5 90.062 122.593C89.9663 122.687 89.9185 122.812 89.9185 122.969C89.9185 123.063 89.939 123.146 89.98 123.219C90.021 123.289 90.0734 123.35 90.1372 123.4C90.2033 123.448 90.2751 123.485 90.3525 123.513C90.4323 123.538 90.5098 123.55 90.585 123.55C90.9108 123.55 91.1569 123.46 91.3232 123.28C91.4919 123.098 91.5762 122.875 91.5762 122.61V122.296ZM89.6245 120.679C89.7886 120.581 89.9686 120.501 90.1646 120.44C90.3605 120.376 90.5724 120.344 90.8003 120.344C91.313 120.344 91.6799 120.468 91.9009 120.717C92.1242 120.965 92.2358 121.333 92.2358 121.821V123.297C92.2358 123.502 92.2381 123.657 92.2427 123.762C92.2472 123.867 92.2541 123.946 92.2632 123.998H91.6479V123.537H91.6343C91.5955 123.591 91.5443 123.651 91.4805 123.714C91.4167 123.778 91.3381 123.837 91.2446 123.892C91.1535 123.947 91.0475 123.992 90.9268 124.029C90.8083 124.065 90.675 124.083 90.5269 124.083C90.3354 124.083 90.1589 124.062 89.9971 124.019C89.8376 123.978 89.6997 123.911 89.5835 123.82C89.4673 123.729 89.3773 123.614 89.3135 123.475C89.2497 123.334 89.2178 123.165 89.2178 122.969C89.2178 122.858 89.2314 122.755 89.2588 122.662C89.2884 122.568 89.3283 122.484 89.3784 122.409C89.4308 122.333 89.4924 122.266 89.563 122.207C89.6336 122.148 89.71 122.095 89.792 122.05C89.9561 121.959 90.1361 121.894 90.332 121.855C90.5257 121.814 90.708 121.793 90.8789 121.793H91.2275C91.2799 121.793 91.3346 121.795 91.3916 121.797C91.4486 121.799 91.5101 121.803 91.5762 121.807C91.5762 121.5 91.5124 121.268 91.3848 121.113C91.2572 120.956 91.027 120.877 90.6943 120.877C90.5075 120.877 90.3218 120.91 90.1372 120.977C89.9549 121.04 89.7954 121.128 89.6587 121.24L89.6245 120.679ZM93.0869 124.965C93.1279 124.979 93.1758 124.992 93.2305 125.003C93.2852 125.014 93.3398 125.02 93.3945 125.02C93.5404 125.02 93.6634 124.977 93.7637 124.89C93.8662 124.804 93.9471 124.708 94.0063 124.603C94.0701 124.498 94.1146 124.399 94.1396 124.306C94.167 124.215 94.1807 124.159 94.1807 124.138C94.1807 124.106 94.1647 124.049 94.1328 123.967L94.0542 123.759L92.8408 120.43H93.562L94.5225 123.383H94.5361L95.5171 120.43H96.1802L94.8643 124.077C94.805 124.248 94.7401 124.421 94.6694 124.596C94.6011 124.772 94.5156 124.93 94.4131 125.071C94.3105 125.215 94.1852 125.331 94.0371 125.42C93.889 125.509 93.7078 125.553 93.4937 125.553C93.3866 125.553 93.3 125.546 93.2339 125.533C93.1678 125.521 93.1051 125.511 93.0459 125.502L93.0869 124.965ZM98.8564 119.11H99.8101L101.967 123.044H101.98V119.11H102.678V123.998H101.782L99.5708 119.979H99.5571V123.998H98.8564V119.11ZM104.322 122.214C104.322 122.371 104.343 122.529 104.387 122.689C104.432 122.848 104.501 122.992 104.592 123.12C104.683 123.247 104.799 123.351 104.94 123.431C105.082 123.51 105.249 123.55 105.443 123.55C105.634 123.55 105.799 123.51 105.938 123.431C106.08 123.351 106.195 123.247 106.284 123.12C106.375 122.992 106.442 122.848 106.485 122.689C106.531 122.529 106.554 122.371 106.554 122.214C106.554 122.043 106.529 121.878 106.479 121.718C106.428 121.559 106.355 121.416 106.26 121.291C106.164 121.166 106.047 121.065 105.908 120.99C105.771 120.915 105.616 120.877 105.443 120.877C105.267 120.877 105.11 120.915 104.971 120.99C104.832 121.065 104.715 121.166 104.619 121.291C104.523 121.416 104.449 121.559 104.397 121.718C104.347 121.878 104.322 122.043 104.322 122.214ZM103.621 122.214C103.621 121.943 103.664 121.693 103.751 121.465C103.84 121.235 103.963 121.038 104.12 120.874C104.28 120.708 104.471 120.578 104.694 120.484C104.92 120.391 105.169 120.344 105.443 120.344C105.714 120.344 105.961 120.391 106.185 120.484C106.408 120.578 106.598 120.708 106.755 120.874C106.915 121.038 107.038 121.235 107.125 121.465C107.211 121.693 107.254 121.943 107.254 122.214C107.254 122.469 107.21 122.711 107.121 122.938C107.032 123.164 106.908 123.362 106.749 123.533C106.589 123.702 106.398 123.836 106.174 123.937C105.953 124.035 105.709 124.083 105.443 124.083C105.174 124.083 104.928 124.035 104.705 123.937C104.481 123.836 104.289 123.702 104.127 123.533C103.967 123.362 103.843 123.164 103.754 122.938C103.666 122.711 103.621 122.469 103.621 122.214ZM112.18 123.998H111.414L110.491 121H110.478L109.575 123.998H108.81L107.665 120.43H108.386L109.203 123.383H109.216L110.125 120.43H110.905L111.8 123.383H111.814L112.682 120.43H113.325L112.18 123.998Z" fill="white"/>
</g>
<g filter="url(#filter2_d_1_13605)">
<path d="M80.2817 29.1987H80.6646C80.8332 29.1987 80.9927 29.1919 81.1431 29.1782C81.2957 29.1623 81.429 29.1281 81.543 29.0757C81.6592 29.0233 81.7503 28.9447 81.8164 28.8398C81.8848 28.735 81.9189 28.5926 81.9189 28.4126C81.9189 28.269 81.8905 28.1506 81.8335 28.0571C81.7788 27.9637 81.707 27.8896 81.6182 27.835C81.5316 27.778 81.4347 27.7393 81.3276 27.7188C81.2205 27.696 81.1169 27.6846 81.0166 27.6846H80.2817V29.1987ZM80.2817 31.4238H80.8047C80.9642 31.4238 81.1157 31.4136 81.2593 31.3931C81.4051 31.3703 81.5327 31.3304 81.6421 31.2734C81.7537 31.2142 81.8415 31.1333 81.9053 31.0308C81.9714 30.9282 82.0044 30.7961 82.0044 30.6343C82.0044 30.4451 81.9668 30.2936 81.8916 30.1797C81.8164 30.0658 81.7173 29.9792 81.5942 29.9199C81.4735 29.8584 81.3379 29.8185 81.1875 29.8003C81.0371 29.7821 80.8867 29.7729 80.7363 29.7729H80.2817V31.4238ZM79.5811 27.1104H80.9038C81.1567 27.1104 81.388 27.1331 81.5977 27.1787C81.8096 27.222 81.9907 27.2926 82.1411 27.3906C82.2938 27.4886 82.4111 27.6162 82.4932 27.7734C82.5775 27.9307 82.6196 28.1209 82.6196 28.3442C82.6196 28.6769 82.5285 28.9344 82.3462 29.1167C82.1662 29.2967 81.9212 29.4266 81.6113 29.5063V29.52C81.7777 29.5337 81.9303 29.5701 82.0693 29.6294C82.2083 29.6886 82.328 29.7695 82.4282 29.8721C82.5285 29.9723 82.606 30.092 82.6606 30.231C82.7176 30.37 82.7461 30.5249 82.7461 30.6958C82.7461 30.9578 82.696 31.1732 82.5957 31.3418C82.4954 31.5104 82.3599 31.6437 82.189 31.7417C82.0181 31.8374 81.8198 31.9046 81.5942 31.9434C81.3687 31.9798 81.1317 31.998 80.8833 31.998H79.5811V27.1104ZM84.6226 27.6299H83.8809V26.8882H84.6226V27.6299ZM83.9219 28.4297H84.5815V31.998H83.9219V28.4297ZM85.8701 26.748H86.5298V31.998H85.8701V26.748ZM87.8184 26.748H88.478V31.998H87.8184V26.748ZM91.6533 27.1104H92.9351C93.1857 27.1104 93.4215 27.1354 93.6426 27.1855C93.8659 27.2334 94.0607 27.3143 94.2271 27.4282C94.3934 27.5422 94.5244 27.6925 94.6201 27.8794C94.7181 28.0662 94.7671 28.2987 94.7671 28.5767C94.7671 28.8455 94.7181 29.0734 94.6201 29.2603C94.5221 29.4471 94.3923 29.5986 94.2305 29.7148C94.071 29.8311 93.8875 29.9154 93.6802 29.9678C93.4728 30.0202 93.2586 30.0464 93.0376 30.0464H92.354V31.998H91.6533V27.1104ZM92.354 29.4277H93.0479C93.1572 29.4277 93.2689 29.4141 93.3828 29.3867C93.499 29.3571 93.6038 29.3092 93.6973 29.2432C93.793 29.1748 93.8716 29.0859 93.9331 28.9766C93.9946 28.8649 94.0254 28.7282 94.0254 28.5664C94.0254 28.4137 93.9889 28.2839 93.916 28.1768C93.8454 28.0697 93.7554 27.9831 93.646 27.917C93.5389 27.8509 93.4227 27.8031 93.2974 27.7734C93.172 27.7438 93.0558 27.729 92.9487 27.729H92.354V29.4277ZM97.6484 30.2959C97.5801 30.2959 97.5106 30.2936 97.4399 30.2891C97.3693 30.2845 97.2998 30.2822 97.2314 30.2822C97.1859 30.2822 97.1346 30.2845 97.0776 30.2891C97.0207 30.2913 96.9569 30.2948 96.8862 30.2993C96.7495 30.3084 96.6128 30.3381 96.4761 30.3882C96.3439 30.4315 96.23 30.4998 96.1343 30.5933C96.0386 30.6867 95.9907 30.812 95.9907 30.9692C95.9907 31.0627 96.0112 31.1458 96.0522 31.2188C96.0933 31.2894 96.1457 31.3498 96.2095 31.3999C96.2756 31.4478 96.3473 31.4854 96.4248 31.5127C96.5046 31.5378 96.582 31.5503 96.6572 31.5503C96.9831 31.5503 97.2292 31.4603 97.3955 31.2803C97.5641 31.098 97.6484 30.8747 97.6484 30.6104V30.2959ZM95.6968 28.6792C95.8608 28.5812 96.0409 28.5015 96.2368 28.4399C96.4328 28.3761 96.6447 28.3442 96.8726 28.3442C97.3853 28.3442 97.7521 28.4684 97.9731 28.7168C98.1965 28.9652 98.3081 29.3332 98.3081 29.8208V31.2974C98.3081 31.5024 98.3104 31.6574 98.3149 31.7622C98.3195 31.867 98.3263 31.9456 98.3354 31.998H97.7202V31.5366H97.7065C97.6678 31.5913 97.6165 31.6506 97.5527 31.7144C97.4889 31.7782 97.4103 31.8374 97.3169 31.8921C97.2257 31.9468 97.1198 31.9924 96.999 32.0288C96.8805 32.0653 96.7472 32.0835 96.5991 32.0835C96.4077 32.0835 96.2311 32.0618 96.0693 32.0186C95.9098 31.9775 95.772 31.9115 95.6558 31.8203C95.5396 31.7292 95.4495 31.6141 95.3857 31.4751C95.3219 31.3338 95.29 31.1652 95.29 30.9692C95.29 30.8576 95.3037 30.755 95.3311 30.6616C95.3607 30.5682 95.4006 30.4839 95.4507 30.4087C95.5031 30.3335 95.5646 30.2663 95.6353 30.207C95.7059 30.1478 95.7822 30.0954 95.8643 30.0498C96.0283 29.9587 96.2083 29.8937 96.4043 29.855C96.598 29.814 96.7803 29.7935 96.9512 29.7935H97.2998C97.3522 29.7935 97.4069 29.7946 97.4639 29.7969C97.5208 29.7992 97.5824 29.8026 97.6484 29.8071C97.6484 29.4995 97.5846 29.2682 97.457 29.1133C97.3294 28.9561 97.0993 28.8774 96.7666 28.8774C96.5798 28.8774 96.394 28.9105 96.2095 28.9766C96.0272 29.0404 95.8677 29.1281 95.731 29.2397L95.6968 28.6792ZM99.1592 32.9653C99.2002 32.979 99.248 32.9915 99.3027 33.0029C99.3574 33.0143 99.4121 33.02 99.4668 33.02C99.6126 33.02 99.7357 32.9767 99.8359 32.8901C99.9385 32.8035 100.019 32.7078 100.079 32.603C100.142 32.4982 100.187 32.3991 100.212 32.3057C100.239 32.2145 100.253 32.1587 100.253 32.1382C100.253 32.1063 100.237 32.0493 100.205 31.9673L100.126 31.7588L98.9131 28.4297H99.6343L100.595 31.3828H100.608L101.589 28.4297H102.252L100.937 32.0767C100.877 32.2476 100.812 32.4207 100.742 32.5962C100.673 32.7716 100.588 32.93 100.485 33.0713C100.383 33.2148 100.257 33.3311 100.109 33.4199C99.9613 33.5088 99.7801 33.5532 99.5659 33.5532C99.4588 33.5532 99.3722 33.5464 99.3062 33.5327C99.2401 33.5213 99.1774 33.5111 99.1182 33.502L99.1592 32.9653ZM102.919 28.4297H103.534V28.9458H103.548C103.673 28.7362 103.827 28.5835 104.009 28.4878C104.192 28.3921 104.416 28.3442 104.683 28.3442C104.888 28.3442 105.085 28.3989 105.274 28.5083C105.465 28.62 105.607 28.7965 105.698 29.0381C105.757 28.9105 105.833 28.8022 105.927 28.7134C106.02 28.6245 106.118 28.5527 106.221 28.498C106.326 28.4434 106.429 28.4046 106.532 28.3818C106.634 28.3568 106.724 28.3442 106.802 28.3442C107.03 28.3442 107.222 28.3796 107.379 28.4502C107.537 28.5186 107.664 28.6143 107.762 28.7373C107.86 28.8581 107.931 29.0016 107.974 29.168C108.02 29.3343 108.042 29.5143 108.042 29.708V31.998H107.383V29.8687C107.383 29.7593 107.374 29.6465 107.355 29.5303C107.34 29.4118 107.309 29.3047 107.263 29.209C107.218 29.111 107.153 29.0312 107.068 28.9697C106.986 28.9082 106.879 28.8774 106.747 28.8774C106.578 28.8774 106.435 28.915 106.316 28.9902C106.198 29.0654 106.101 29.1646 106.026 29.2876C105.951 29.4106 105.896 29.5519 105.862 29.7114C105.828 29.8687 105.811 30.0316 105.811 30.2002V31.998H105.151V29.8687C105.151 29.7593 105.142 29.6465 105.124 29.5303C105.108 29.4118 105.077 29.3047 105.031 29.209C104.986 29.111 104.921 29.0312 104.836 28.9697C104.754 28.9082 104.647 28.8774 104.515 28.8774C104.347 28.8774 104.203 28.915 104.084 28.9902C103.966 29.0654 103.869 29.1646 103.794 29.2876C103.719 29.4106 103.663 29.5519 103.626 29.7114C103.592 29.8687 103.575 30.0316 103.575 30.2002V31.998H102.919V28.4297ZM111.464 29.8687C111.464 29.7319 111.443 29.6043 111.402 29.4858C111.364 29.3651 111.307 29.2603 111.231 29.1714C111.156 29.0802 111.063 29.0085 110.951 28.9561C110.842 28.9036 110.716 28.8774 110.575 28.8774C110.411 28.8774 110.271 28.9082 110.155 28.9697C110.041 29.029 109.946 29.1064 109.871 29.2021C109.796 29.2979 109.738 29.4049 109.697 29.5234C109.656 29.6396 109.628 29.7547 109.615 29.8687H111.464ZM111.891 31.8511C111.825 31.8739 111.757 31.8989 111.686 31.9263C111.618 31.9513 111.539 31.9753 111.45 31.998C111.361 32.0231 111.261 32.0436 111.149 32.0596C111.038 32.0755 110.909 32.0835 110.763 32.0835C110.449 32.0835 110.175 32.0368 109.943 31.9434C109.71 31.8499 109.518 31.7189 109.365 31.5503C109.213 31.3817 109.099 31.1789 109.023 30.9419C108.951 30.7026 108.914 30.4383 108.914 30.1489C108.914 29.8869 108.954 29.6453 109.034 29.4243C109.113 29.2033 109.226 29.013 109.372 28.8535C109.52 28.6917 109.697 28.5664 109.902 28.4775C110.107 28.3887 110.336 28.3442 110.589 28.3442C110.885 28.3442 111.133 28.3955 111.334 28.498C111.537 28.6006 111.699 28.743 111.819 28.9253C111.942 29.1053 112.03 29.3184 112.083 29.5645C112.135 29.8083 112.161 30.0737 112.161 30.3608H109.615C109.615 30.5363 109.647 30.6969 109.71 30.8428C109.774 30.9886 109.86 31.1139 109.967 31.2188C110.076 31.3236 110.201 31.4056 110.343 31.4648C110.486 31.5218 110.636 31.5503 110.791 31.5503C110.902 31.5503 111.014 31.5378 111.125 31.5127C111.239 31.4876 111.345 31.4569 111.443 31.4204C111.544 31.384 111.632 31.3452 111.71 31.3042C111.79 31.2632 111.85 31.2256 111.891 31.1914V31.8511ZM113.05 28.4297H113.686V28.9937H113.699C113.799 28.7863 113.956 28.6268 114.167 28.5151C114.384 28.4012 114.618 28.3442 114.868 28.3442C115.328 28.3442 115.667 28.4798 115.883 28.751C116.097 29.0199 116.205 29.3947 116.205 29.8755V31.998H115.548V30.1489C115.548 29.7319 115.495 29.4198 115.388 29.2124C115.281 29.005 115.082 28.8934 114.793 28.8774C114.604 28.8774 114.441 28.9139 114.304 28.9868C114.167 29.0575 114.055 29.1577 113.966 29.2876C113.877 29.4175 113.811 29.5724 113.768 29.7524C113.727 29.9325 113.706 30.1307 113.706 30.3472V31.998H113.05V28.4297ZM119.226 28.9595H118.279V30.9146C118.279 31.1265 118.334 31.2848 118.443 31.3896C118.557 31.4967 118.687 31.5503 118.833 31.5503C118.936 31.5503 119.023 31.5378 119.096 31.5127C119.169 31.4854 119.231 31.4557 119.281 31.4238V31.9844C119.206 32.0072 119.12 32.0288 119.024 32.0493C118.931 32.0721 118.83 32.0835 118.72 32.0835C118.378 32.0835 118.111 32.0003 117.917 31.834C117.721 31.6654 117.623 31.4022 117.623 31.0444V28.9595H116.816V28.4297H117.623V27.6025L118.279 27.3906V28.4297H119.226V28.9595Z" fill="#616161"/>
</g>
<line x1="96" y1="48.998" x2="69" y2="48.998" stroke="#D9D9D9" stroke-width="4" stroke-linecap="round"/>
<line x1="102" y1="5.99805" x2="93" y2="5.99805" stroke="#979797" stroke-width="4" stroke-linecap="round"/>
<line x1="108" y1="5.99805" x2="107" y2="5.99805" stroke="#979797" stroke-width="4" stroke-linecap="round"/>
<line x1="105" y1="74.998" x2="69" y2="74.998" stroke="#D9D9D9" stroke-width="4" stroke-linecap="round"/>
<line x1="105" y1="80.998" x2="69" y2="80.998" stroke="#D9D9D9" stroke-width="4" stroke-linecap="round"/>
<line x1="105" y1="86.998" x2="69" y2="86.998" stroke="#D9D9D9" stroke-width="4" stroke-linecap="round"/>
<line x1="106" y1="53.998" x2="68" y2="53.998" stroke="#D9D9D9" stroke-width="2" stroke-linecap="round"/>
<line x1="91" y1="57.998" x2="68" y2="57.998" stroke="#D9D9D9" stroke-width="2" stroke-linecap="round"/>
<line x1="118" y1="57.998" x2="95" y2="57.998" stroke="#D9D9D9" stroke-width="2" stroke-linecap="round"/>
<defs>
<filter id="filter0_d_1_13605" x="158.892" y="83.2164" width="42.8009" height="33.8869" filterUnits="userSpaceOnUse" color-interpolation-filters="sRGB">
<feFlood flood-opacity="0" result="BackgroundImageFix"/>
<feColorMatrix in="SourceAlpha" type="matrix" values="0 0 0 0 0 0 0 0 0 0 0 0 0 0 0 0 0 0 127 0" result="hardAlpha"/>
<feOffset dy="3.60396"/>
<feGaussianBlur stdDeviation="7.20792"/>
<feComposite in2="hardAlpha" operator="out"/>
<feColorMatrix type="matrix" values="0 0 0 0 0.160075 0 0 0 0 0.160075 0 0 0 0 0.160075 0 0 0 0.1 0"/>
<feBlend mode="normal" in2="BackgroundImageFix" result="effect1_dropShadow_1_13605"/>
<feBlend mode="normal" in="SourceGraphic" in2="effect1_dropShadow_1_13605" result="shape"/>
</filter>
<filter id="filter1_d_1_13605" x="71.1652" y="108.298" width="56.5753" height="35.2746" filterUnits="userSpaceOnUse" color-interpolation-filters="sRGB">
<feFlood flood-opacity="0" result="BackgroundImageFix"/>
<feColorMatrix in="SourceAlpha" type="matrix" values="0 0 0 0 0 0 0 0 0 0 0 0 0 0 0 0 0 0 127 0" result="hardAlpha"/>
<feOffset dy="3.60396"/>
<feGaussianBlur stdDeviation="7.20792"/>
<feComposite in2="hardAlpha" operator="out"/>
<feColorMatrix type="matrix" values="0 0 0 0 0.160075 0 0 0 0 0.160075 0 0 0 0 0.160075 0 0 0 0.1 0"/>
<feBlend mode="normal" in2="BackgroundImageFix" result="effect1_dropShadow_1_13605"/>
<feBlend mode="normal" in="SourceGraphic" in2="effect1_dropShadow_1_13605" result="shape"/>
</filter>
<filter id="filter2_d_1_13605" x="65.1652" y="15.9362" width="68.5314" height="35.6369" filterUnits="userSpaceOnUse" color-interpolation-filters="sRGB">
<feFlood flood-opacity="0" result="BackgroundImageFix"/>
<feColorMatrix in="SourceAlpha" type="matrix" values="0 0 0 0 0 0 0 0 0 0 0 0 0 0 0 0 0 0 127 0" result="hardAlpha"/>
<feOffset dy="3.60396"/>
<feGaussianBlur stdDeviation="7.20792"/>
<feComposite in2="hardAlpha" operator="out"/>
<feColorMatrix type="matrix" values="0 0 0 0 0.160075 0 0 0 0 0.160075 0 0 0 0 0.160075 0 0 0 0.1 0"/>
<feBlend mode="normal" in2="BackgroundImageFix" result="effect1_dropShadow_1_13605"/>
<feBlend mode="normal" in="SourceGraphic" in2="effect1_dropShadow_1_13605" result="shape"/>
</filter>
</defs>
</svg>
