<svg width="30" height="30" viewBox="0 0 30 30" fill="none" xmlns="http://www.w3.org/2000/svg">
<path d="M17.1247 4.52121L19.2852 8.8423C19.5798 9.44382 20.3655 10.0208 21.0284 10.1313L24.9444 10.7819C27.4487 11.1993 28.0379 13.0161 26.2333 14.8084L23.1889 17.8528C22.6734 18.3683 22.391 19.3627 22.5506 20.0747L23.4222 23.8434C24.1096 26.8264 22.526 27.9803 19.8867 26.4213L16.2163 24.2485C15.5534 23.8556 14.4608 23.8556 13.7857 24.2485L10.1152 26.4213C7.48815 27.9803 5.89229 26.8141 6.57974 23.8434L7.45133 20.0747C7.61091 19.3627 7.32857 18.3683 6.81298 17.8528L3.76858 14.8084C1.9763 13.0161 2.55327 11.1993 5.05754 10.7819L8.97353 10.1313C9.62415 10.0208 10.4098 9.44382 10.7044 8.8423L12.865 4.52121C14.0434 2.17652 15.9585 2.17652 17.1247 4.52121Z" stroke="#A40F21" stroke-width="0.88386" stroke-linecap="round" stroke-linejoin="round"/>
</svg>
