<svg width="38" height="39" viewBox="0 0 38 39" fill="none" xmlns="http://www.w3.org/2000/svg">
<g clip-path="url(#clip0_1_9477)">
<rect x="0.579529" y="0.617188" width="36.878" height="37.4048" rx="18.439" fill="white"/>
<path fill-rule="evenodd" clip-rule="evenodd" d="M0.579529 0.617188H16.3844V18.0728H0.579529V0.617188Z" fill="#1A47B8"/>
<path fill-rule="evenodd" clip-rule="evenodd" d="M16.3844 0.617188V3.11084H37.4575V0.617188H16.3844ZM16.3844 5.6045V8.09815H37.4575V5.6045H16.3844ZM16.3844 10.5918V13.0855H37.4575V10.5918H16.3844ZM16.3844 15.5791V18.0728H37.4575V15.5791H16.3844ZM0.579529 20.5664V23.0601H37.4575V20.5664H0.579529ZM0.579529 25.5537V28.0474H37.4575V25.5537H0.579529ZM0.579529 30.5411V33.0347H37.4575V30.5411H0.579529ZM0.579529 35.5284V38.022H37.4575V35.5284H0.579529Z" fill="#F93939"/>
<path fill-rule="evenodd" clip-rule="evenodd" d="M2.3356 3.11072V5.60437H4.0917V3.11072H2.3356ZM5.84779 3.11072V5.60437H7.60389V3.11072H5.84779ZM9.35998 3.11072V5.60437H11.1161V3.11072H9.35998ZM12.8722 3.11072V5.60437H14.6283V3.11072H12.8722ZM11.1161 5.60437V8.09803H12.8722V5.60437H11.1161ZM7.60389 5.60437V8.09803H9.35998V5.60437H7.60389ZM4.0917 5.60437V8.09803H5.84779V5.60437H4.0917ZM2.3356 8.09803V10.5917H4.0917V8.09803H2.3356ZM5.84779 8.09803V10.5917H7.60389V8.09803H5.84779ZM9.35998 8.09803V10.5917H11.1161V8.09803H9.35998ZM12.8722 8.09803V10.5917H14.6283V8.09803H12.8722ZM2.3356 13.0853V15.579H4.0917V13.0853H2.3356ZM5.84779 13.0853V15.579H7.60389V13.0853H5.84779ZM9.35998 13.0853V15.579H11.1161V13.0853H9.35998ZM12.8722 13.0853V15.579H14.6283V13.0853H12.8722ZM11.1161 10.5917V13.0853H12.8722V10.5917H11.1161ZM7.60389 10.5917V13.0853H9.35998V10.5917H7.60389ZM4.0917 10.5917V13.0853H5.84779V10.5917H4.0917Z" fill="white"/>
</g>
<defs>
<clipPath id="clip0_1_9477">
<rect x="0.579529" y="0.617188" width="36.878" height="37.4048" rx="18.439" fill="white"/>
</clipPath>
</defs>
</svg>
