<svg width="82" height="38" viewBox="0 0 82 38" fill="none" xmlns="http://www.w3.org/2000/svg">
<path d="M50.7519 0L40.7189 37.0355H33.4382L25.8375 12.4818L18.2367 37.0355H11.004L0.875 0H8.76377L14.9644 23.4366L22.2131 0H29.5098L36.8866 23.6134L42.9511 0H50.7519ZM73.9302 0V22.8096V22.8659C73.9302 22.8981 74.0903 26.0004 72.0981 28.1303C70.8019 29.5127 68.8577 30.2119 66.3135 30.2119C63.7692 30.2119 61.825 29.5127 60.5289 28.1303C58.5367 26.0004 58.6967 22.8981 58.6967 22.8659V0H55.4244L50.7519 17.2479V22.6087C50.7519 27.1739 52.2241 31.0398 55.0083 33.7965C57.7926 36.5453 61.697 38 66.3135 38C70.9219 38 74.8343 36.5453 77.6186 33.7965C80.4028 31.0478 81.875 27.1739 81.875 22.6087V0H73.9302Z" fill="black"/>
</svg>
