<svg width="141" height="85" viewBox="0 0 141 85" fill="none" xmlns="http://www.w3.org/2000/svg">
<path d="M68.5 2.54846C70.3564 1.47666 72.6436 1.47666 74.5 2.54846L100.976 17.8344C102.832 18.9062 103.976 20.8869 103.976 23.0305V53.6023C103.976 55.7459 102.832 57.7267 100.976 58.7985L74.5 74.0844C72.6436 75.1562 70.3564 75.1562 68.5 74.0844L42.024 58.7985C40.1676 57.7267 39.024 55.7459 39.024 53.6023V23.0305C39.024 20.8869 40.1676 18.9062 42.024 17.8344L68.5 2.54846Z" fill="#F6C54D"/>
<path d="M69.4098 5.09744C70.6924 4.31136 72.3076 4.31136 73.5902 5.09744L97.736 19.8959C98.9225 20.6231 99.6458 21.9147 99.6458 23.3064V53.3265C99.6458 54.7181 98.9225 56.0097 97.736 56.7369L73.5902 71.5354C72.3076 72.3214 70.6924 72.3214 69.4098 71.5354L45.264 56.7369C44.0775 56.0097 43.3542 54.7181 43.3542 53.3265V23.3064C43.3542 21.9147 44.0775 20.6231 45.264 19.8959L69.4098 5.09744Z" fill="url(#paint0_linear_1_9596)"/>
<path opacity="0.5" d="M73.1666 27.1497H70.8333C68.633 27.1497 67.534 27.1497 66.8503 27.8333C66.1666 28.517 66.1666 29.616 66.1666 31.8163V36.483H77.8333V31.8163C77.8333 29.616 77.8333 28.517 77.1496 27.8333C76.466 27.1497 75.367 27.1497 73.1666 27.1497Z" fill="white"/>
<path fill-rule="evenodd" clip-rule="evenodd" d="M72 50.4831C74.4753 50.4831 76.8493 49.4997 78.5996 47.7494C80.35 45.9991 81.3333 43.6251 81.3333 41.1497C81.3333 38.6744 80.35 36.3004 78.5996 34.5501C76.8493 32.7997 74.4753 31.8164 72 31.8164C69.5246 31.8164 67.1506 32.7997 65.4003 34.5501C63.65 36.3004 62.6666 38.6744 62.6666 41.1497C62.6666 43.6251 63.65 45.9991 65.4003 47.7494C67.1506 49.4997 69.5246 50.4831 72 50.4831ZM72 37.6497C71.6686 37.6497 71.447 38.0464 71.0036 38.8432L70.8893 39.0486C70.7633 39.2749 70.7003 39.3869 70.6023 39.4616C70.5031 39.5362 70.3806 39.5642 70.1356 39.6191L69.914 39.6704C69.053 39.8652 68.6225 39.9621 68.5198 40.2911C68.4171 40.6212 68.7111 40.9642 69.298 41.6502L69.4496 41.8276C69.6165 42.0224 69.7005 42.1192 69.7378 42.2406C69.7751 42.3619 69.7623 42.4914 69.7378 42.7516L69.7145 42.9884C69.6258 43.9042 69.5815 44.3627 69.8486 44.5657C70.117 44.7687 70.5206 44.5832 71.3268 44.2122L71.5345 44.1166C71.7643 44.0116 71.8786 43.9579 72 43.9579C72.1213 43.9579 72.2356 44.0116 72.4655 44.1166L72.6731 44.2122C73.4793 44.5844 73.883 44.7687 74.1513 44.5657C74.4196 44.3627 74.3741 43.9042 74.2855 42.9884L74.2621 42.7516C74.2376 42.4914 74.2248 42.3619 74.2621 42.2406C74.2995 42.1204 74.3835 42.0224 74.5503 41.8276L74.702 41.6502C75.2888 40.9642 75.5828 40.6212 75.4801 40.2911C75.3775 39.9621 74.947 39.8652 74.086 39.6704L73.8643 39.6191C73.6193 39.5642 73.4968 39.5374 73.3976 39.4616C73.2996 39.3869 73.2366 39.2749 73.1106 39.0486L72.9963 38.8432C72.553 38.0464 72.3313 37.6497 72 37.6497Z" fill="white"/>
<defs>
<linearGradient id="paint0_linear_1_9596" x1="38.999" y1="72.816" x2="107.876" y2="7.93132" gradientUnits="userSpaceOnUse">
<stop stop-color="#E8A312"/>
<stop offset="1" stop-color="#FFDA72"/>
</linearGradient>
</defs>
</svg>
